G04 #@! TF.GenerationSoftware,KiCad,Pcbnew,(5.1.0)-1*
G04 #@! TF.CreationDate,2021-04-12T00:50:47+02:00*
G04 #@! TF.ProjectId,Drehzahlmesser,44726568-7a61-4686-9c6d-65737365722e,rev?*
G04 #@! TF.SameCoordinates,Original*
G04 #@! TF.FileFunction,Legend,Top*
G04 #@! TF.FilePolarity,Positive*
%FSLAX46Y46*%
G04 Gerber Fmt 4.6, Leading zero omitted, Abs format (unit mm)*
G04 Created by KiCad (PCBNEW (5.1.0)-1) date 2021-04-12 00:50:47*
%MOMM*%
%LPD*%
G04 APERTURE LIST*
%ADD10C,0.150000*%
%ADD11C,0.120000*%
G04 APERTURE END LIST*
D10*
X153519047Y-52071428D02*
X154280952Y-52071428D01*
X153900000Y-52452380D02*
X153900000Y-51690476D01*
D11*
X123990000Y-73937221D02*
X123990000Y-74262779D01*
X125010000Y-73937221D02*
X125010000Y-74262779D01*
X127110000Y-74262779D02*
X127110000Y-73937221D01*
X126090000Y-74262779D02*
X126090000Y-73937221D01*
X138537221Y-54310000D02*
X138862779Y-54310000D01*
X138537221Y-53290000D02*
X138862779Y-53290000D01*
X135437221Y-54310000D02*
X135762779Y-54310000D01*
X135437221Y-53290000D02*
X135762779Y-53290000D01*
X133315000Y-61735000D02*
X135600000Y-61735000D01*
X133315000Y-60265000D02*
X133315000Y-61735000D01*
X135600000Y-60265000D02*
X133315000Y-60265000D01*
X134962779Y-58890000D02*
X134637221Y-58890000D01*
X134962779Y-59910000D02*
X134637221Y-59910000D01*
X142535000Y-57985000D02*
X142535000Y-55700000D01*
X141065000Y-57985000D02*
X142535000Y-57985000D01*
X141065000Y-55700000D02*
X141065000Y-57985000D01*
X122000000Y-63100000D02*
X119200000Y-63100000D01*
X119200000Y-63100000D02*
X119200000Y-61100000D01*
X119200000Y-61100000D02*
X122000000Y-61100000D01*
X122000000Y-61100000D02*
X122000000Y-63100000D01*
X114075000Y-72875000D02*
X114075000Y-71525000D01*
X112325000Y-72875000D02*
X112325000Y-71525000D01*
X129900000Y-58110000D02*
X131700000Y-58110000D01*
X131700000Y-54890000D02*
X129250000Y-54890000D01*
D10*
X116525000Y-70425000D02*
X116525000Y-70475000D01*
X120675000Y-70425000D02*
X120675000Y-70570000D01*
X120675000Y-75575000D02*
X120675000Y-75430000D01*
X116525000Y-75575000D02*
X116525000Y-75430000D01*
X116525000Y-70425000D02*
X120675000Y-70425000D01*
X116525000Y-75575000D02*
X120675000Y-75575000D01*
X116525000Y-70475000D02*
X115125000Y-70475000D01*
D11*
X146360000Y-63880000D02*
X146360000Y-62950000D01*
X146360000Y-60720000D02*
X146360000Y-61650000D01*
X146360000Y-60720000D02*
X144200000Y-60720000D01*
X146360000Y-63880000D02*
X144900000Y-63880000D01*
X127990000Y-70410000D02*
X127990000Y-70710000D01*
X127990000Y-70710000D02*
X128290000Y-70710000D01*
X127990000Y-63790000D02*
X127990000Y-63490000D01*
X127990000Y-63490000D02*
X128290000Y-63490000D01*
X135210000Y-70410000D02*
X135210000Y-70710000D01*
X135210000Y-70710000D02*
X134910000Y-70710000D01*
X135210000Y-63790000D02*
X135210000Y-63490000D01*
X135210000Y-63490000D02*
X134910000Y-63490000D01*
X134910000Y-63490000D02*
X134910000Y-62175000D01*
X177600000Y-73520000D02*
X177570000Y-73520000D01*
X171140000Y-73520000D02*
X171170000Y-73520000D01*
X171140000Y-67060000D02*
X171170000Y-67060000D01*
X177570000Y-67060000D02*
X177600000Y-67060000D01*
X175670000Y-73520000D02*
X173070000Y-73520000D01*
X177600000Y-67060000D02*
X177600000Y-73520000D01*
X175670000Y-67060000D02*
X173070000Y-67060000D01*
X171140000Y-67060000D02*
X171140000Y-73520000D01*
X170680000Y-58130000D02*
X173710000Y-58130000D01*
X175010000Y-58130000D02*
X177920000Y-58130000D01*
X170680000Y-64970000D02*
X173710000Y-64970000D01*
X175010000Y-64970000D02*
X177920000Y-64970000D01*
X170680000Y-58130000D02*
X170680000Y-64970000D01*
X177920000Y-58130000D02*
X177920000Y-64970000D01*
X123890000Y-56662779D02*
X123890000Y-56337221D01*
X124910000Y-56662779D02*
X124910000Y-56337221D01*
X120110000Y-56337221D02*
X120110000Y-56662779D01*
X119090000Y-56337221D02*
X119090000Y-56662779D01*
X127490000Y-56662779D02*
X127490000Y-56337221D01*
X128510000Y-56662779D02*
X128510000Y-56337221D01*
X134310000Y-56337221D02*
X134310000Y-56662779D01*
X133290000Y-56337221D02*
X133290000Y-56662779D01*
X139487221Y-67910000D02*
X139812779Y-67910000D01*
X139487221Y-68930000D02*
X139812779Y-68930000D01*
X139110000Y-56337221D02*
X139110000Y-56662779D01*
X138090000Y-56337221D02*
X138090000Y-56662779D01*
X139690000Y-56662779D02*
X139690000Y-56337221D01*
X140710000Y-56662779D02*
X140710000Y-56337221D01*
X143562779Y-70310000D02*
X143237221Y-70310000D01*
X143562779Y-69290000D02*
X143237221Y-69290000D01*
X139910000Y-63137221D02*
X139910000Y-63462779D01*
X138890000Y-63137221D02*
X138890000Y-63462779D01*
X131437221Y-60490000D02*
X131762779Y-60490000D01*
X131437221Y-61510000D02*
X131762779Y-61510000D01*
X143110000Y-63137221D02*
X143110000Y-63462779D01*
X142090000Y-63137221D02*
X142090000Y-63462779D01*
X122000000Y-58500000D02*
X122000000Y-60500000D01*
X119200000Y-58500000D02*
X122000000Y-58500000D01*
X119200000Y-60500000D02*
X119200000Y-58500000D01*
X122000000Y-60500000D02*
X119200000Y-60500000D01*
X118340000Y-50040000D02*
X118340000Y-49300000D01*
X118340000Y-49300000D02*
X117840000Y-49300000D01*
X112440000Y-55860000D02*
X112440000Y-49540000D01*
X113210000Y-49540000D02*
X112440000Y-49540000D01*
X115750000Y-49540000D02*
X114790000Y-49540000D01*
X118100000Y-49540000D02*
X117330000Y-49540000D01*
X118100000Y-55860000D02*
X112440000Y-55860000D01*
X113210000Y-50100000D02*
X112440000Y-50100000D01*
X118100000Y-55400000D02*
X112440000Y-55400000D01*
X115750000Y-50100000D02*
X114790000Y-50100000D01*
X118100000Y-50100000D02*
X117330000Y-50100000D01*
X118100000Y-55860000D02*
X118100000Y-49540000D01*
X125250000Y-76670000D02*
X125250000Y-79330000D01*
X132930000Y-76670000D02*
X125250000Y-76670000D01*
X132930000Y-79330000D02*
X125250000Y-79330000D01*
X132930000Y-76670000D02*
X132930000Y-79330000D01*
X134200000Y-76670000D02*
X135530000Y-76670000D01*
X135530000Y-76670000D02*
X135530000Y-78000000D01*
X146510000Y-84310000D02*
X138690000Y-84310000D01*
X140490000Y-74990000D02*
X140490000Y-74560000D01*
X146510000Y-84310000D02*
X146510000Y-82360000D01*
X146510000Y-80140000D02*
X146510000Y-76910000D01*
X144710000Y-74990000D02*
X145790000Y-74990000D01*
X139410000Y-74990000D02*
X140490000Y-74990000D01*
X138690000Y-80140000D02*
X138690000Y-76910000D01*
X138690000Y-84310000D02*
X138690000Y-82360000D01*
X161140000Y-50040000D02*
X161140000Y-49300000D01*
X161140000Y-49300000D02*
X160640000Y-49300000D01*
X155240000Y-55860000D02*
X155240000Y-49540000D01*
X156010000Y-49540000D02*
X155240000Y-49540000D01*
X158550000Y-49540000D02*
X157590000Y-49540000D01*
X160900000Y-49540000D02*
X160130000Y-49540000D01*
X160900000Y-55860000D02*
X155240000Y-55860000D01*
X156010000Y-50100000D02*
X155240000Y-50100000D01*
X160900000Y-55400000D02*
X155240000Y-55400000D01*
X158550000Y-50100000D02*
X157590000Y-50100000D01*
X160900000Y-50100000D02*
X160130000Y-50100000D01*
X160900000Y-55860000D02*
X160900000Y-49540000D01*
X147935000Y-58300000D02*
X147935000Y-56015000D01*
X147935000Y-56015000D02*
X146465000Y-56015000D01*
X146465000Y-56015000D02*
X146465000Y-58300000D01*
X120465000Y-55712500D02*
X120465000Y-57997500D01*
X120465000Y-57997500D02*
X121935000Y-57997500D01*
X121935000Y-57997500D02*
X121935000Y-55712500D01*
X121600000Y-68665000D02*
X119315000Y-68665000D01*
X119315000Y-68665000D02*
X119315000Y-70135000D01*
X119315000Y-70135000D02*
X121600000Y-70135000D01*
X115600000Y-70135000D02*
X117885000Y-70135000D01*
X117885000Y-70135000D02*
X117885000Y-68665000D01*
X117885000Y-68665000D02*
X115600000Y-68665000D01*
X137735000Y-57300000D02*
X137735000Y-55015000D01*
X137735000Y-55015000D02*
X136265000Y-55015000D01*
X136265000Y-55015000D02*
X136265000Y-57300000D01*
X153600000Y-55965000D02*
X151315000Y-55965000D01*
X151315000Y-55965000D02*
X151315000Y-57435000D01*
X151315000Y-57435000D02*
X153600000Y-57435000D01*
X122290000Y-56662779D02*
X122290000Y-56337221D01*
X123310000Y-56662779D02*
X123310000Y-56337221D01*
X130962779Y-54310000D02*
X130637221Y-54310000D01*
X130962779Y-53290000D02*
X130637221Y-53290000D01*
X135910000Y-56337221D02*
X135910000Y-56662779D01*
X134890000Y-56337221D02*
X134890000Y-56662779D01*
X111510000Y-72037221D02*
X111510000Y-72362779D01*
X110490000Y-72037221D02*
X110490000Y-72362779D01*
X140490000Y-63462779D02*
X140490000Y-63137221D01*
X141510000Y-63462779D02*
X141510000Y-63137221D01*
X110910000Y-76637221D02*
X110910000Y-76962779D01*
X109890000Y-76637221D02*
X109890000Y-76962779D01*
X148140000Y-71360000D02*
X152190000Y-71360000D01*
X158660000Y-71360000D02*
X154610000Y-71360000D01*
X158660000Y-61904437D02*
X158660000Y-71360000D01*
X148140000Y-61904437D02*
X148140000Y-71360000D01*
X149204437Y-60840000D02*
X152190000Y-60840000D01*
X157595563Y-60840000D02*
X154610000Y-60840000D01*
X157595563Y-60840000D02*
X158660000Y-61904437D01*
X149204437Y-60840000D02*
X148140000Y-61904437D01*
X155860000Y-59350000D02*
X155860000Y-60600000D01*
X156485000Y-59975000D02*
X155235000Y-59975000D01*
X149310000Y-57337221D02*
X149310000Y-57662779D01*
X148290000Y-57337221D02*
X148290000Y-57662779D01*
X150910000Y-57337221D02*
X150910000Y-57662779D01*
X149890000Y-57337221D02*
X149890000Y-57662779D01*
X131762779Y-59910000D02*
X131437221Y-59910000D01*
X131762779Y-58890000D02*
X131437221Y-58890000D01*
X136837221Y-61990000D02*
X137162779Y-61990000D01*
X136837221Y-63010000D02*
X137162779Y-63010000D01*
X126362779Y-72210000D02*
X126037221Y-72210000D01*
X126362779Y-71190000D02*
X126037221Y-71190000D01*
X96860000Y-73410000D02*
X94760000Y-73410000D01*
X96860000Y-59910000D02*
X94760000Y-59910000D01*
X100860000Y-59910000D02*
X102310000Y-59910000D01*
X102310000Y-59910000D02*
X104910000Y-62510000D01*
X104910000Y-62510000D02*
X105710000Y-62510000D01*
X105710000Y-62510000D02*
X105710000Y-70810000D01*
X105710000Y-70810000D02*
X104910000Y-70810000D01*
X104910000Y-70810000D02*
X102310000Y-73410000D01*
X102310000Y-73410000D02*
X100860000Y-73410000D01*
X94810000Y-59910000D02*
G75*
G03X93260000Y-61360000I-50000J-1500000D01*
G01*
X94810000Y-73410000D02*
G75*
G02X93260000Y-71960000I-50000J1500000D01*
G01*
X93671329Y-71150661D02*
G75*
G03X93660000Y-62160000I-3711329J4490661D01*
G01*
X93275840Y-61245385D02*
G75*
G03X93660000Y-62160000I984160J-124615D01*
G01*
X93275840Y-72074615D02*
G75*
G02X93660000Y-71160000I984160J124615D01*
G01*
D10*
X123552380Y-74642857D02*
X123076190Y-74976190D01*
X123552380Y-75214285D02*
X122552380Y-75214285D01*
X122552380Y-74833333D01*
X122600000Y-74738095D01*
X122647619Y-74690476D01*
X122742857Y-74642857D01*
X122885714Y-74642857D01*
X122980952Y-74690476D01*
X123028571Y-74738095D01*
X123076190Y-74833333D01*
X123076190Y-75214285D01*
X123552380Y-73690476D02*
X123552380Y-74261904D01*
X123552380Y-73976190D02*
X122552380Y-73976190D01*
X122695238Y-74071428D01*
X122790476Y-74166666D01*
X122838095Y-74261904D01*
X122552380Y-72785714D02*
X122552380Y-73261904D01*
X123028571Y-73309523D01*
X122980952Y-73261904D01*
X122933333Y-73166666D01*
X122933333Y-72928571D01*
X122980952Y-72833333D01*
X123028571Y-72785714D01*
X123123809Y-72738095D01*
X123361904Y-72738095D01*
X123457142Y-72785714D01*
X123504761Y-72833333D01*
X123552380Y-72928571D01*
X123552380Y-73166666D01*
X123504761Y-73261904D01*
X123457142Y-73309523D01*
X128752380Y-74842857D02*
X128276190Y-75176190D01*
X128752380Y-75414285D02*
X127752380Y-75414285D01*
X127752380Y-75033333D01*
X127800000Y-74938095D01*
X127847619Y-74890476D01*
X127942857Y-74842857D01*
X128085714Y-74842857D01*
X128180952Y-74890476D01*
X128228571Y-74938095D01*
X128276190Y-75033333D01*
X128276190Y-75414285D01*
X128752380Y-73890476D02*
X128752380Y-74461904D01*
X128752380Y-74176190D02*
X127752380Y-74176190D01*
X127895238Y-74271428D01*
X127990476Y-74366666D01*
X128038095Y-74461904D01*
X128085714Y-73033333D02*
X128752380Y-73033333D01*
X127704761Y-73271428D02*
X128419047Y-73509523D01*
X128419047Y-72890476D01*
X138057142Y-52822380D02*
X137723809Y-52346190D01*
X137485714Y-52822380D02*
X137485714Y-51822380D01*
X137866666Y-51822380D01*
X137961904Y-51870000D01*
X138009523Y-51917619D01*
X138057142Y-52012857D01*
X138057142Y-52155714D01*
X138009523Y-52250952D01*
X137961904Y-52298571D01*
X137866666Y-52346190D01*
X137485714Y-52346190D01*
X139009523Y-52822380D02*
X138438095Y-52822380D01*
X138723809Y-52822380D02*
X138723809Y-51822380D01*
X138628571Y-51965238D01*
X138533333Y-52060476D01*
X138438095Y-52108095D01*
X139342857Y-51822380D02*
X139961904Y-51822380D01*
X139628571Y-52203333D01*
X139771428Y-52203333D01*
X139866666Y-52250952D01*
X139914285Y-52298571D01*
X139961904Y-52393809D01*
X139961904Y-52631904D01*
X139914285Y-52727142D01*
X139866666Y-52774761D01*
X139771428Y-52822380D01*
X139485714Y-52822380D01*
X139390476Y-52774761D01*
X139342857Y-52727142D01*
X134957142Y-52822380D02*
X134623809Y-52346190D01*
X134385714Y-52822380D02*
X134385714Y-51822380D01*
X134766666Y-51822380D01*
X134861904Y-51870000D01*
X134909523Y-51917619D01*
X134957142Y-52012857D01*
X134957142Y-52155714D01*
X134909523Y-52250952D01*
X134861904Y-52298571D01*
X134766666Y-52346190D01*
X134385714Y-52346190D01*
X135909523Y-52822380D02*
X135338095Y-52822380D01*
X135623809Y-52822380D02*
X135623809Y-51822380D01*
X135528571Y-51965238D01*
X135433333Y-52060476D01*
X135338095Y-52108095D01*
X136290476Y-51917619D02*
X136338095Y-51870000D01*
X136433333Y-51822380D01*
X136671428Y-51822380D01*
X136766666Y-51870000D01*
X136814285Y-51917619D01*
X136861904Y-52012857D01*
X136861904Y-52108095D01*
X136814285Y-52250952D01*
X136242857Y-52822380D01*
X136861904Y-52822380D01*
X136661904Y-61452380D02*
X136661904Y-60452380D01*
X136900000Y-60452380D01*
X137042857Y-60500000D01*
X137138095Y-60595238D01*
X137185714Y-60690476D01*
X137233333Y-60880952D01*
X137233333Y-61023809D01*
X137185714Y-61214285D01*
X137138095Y-61309523D01*
X137042857Y-61404761D01*
X136900000Y-61452380D01*
X136661904Y-61452380D01*
X137804761Y-60880952D02*
X137709523Y-60833333D01*
X137661904Y-60785714D01*
X137614285Y-60690476D01*
X137614285Y-60642857D01*
X137661904Y-60547619D01*
X137709523Y-60500000D01*
X137804761Y-60452380D01*
X137995238Y-60452380D01*
X138090476Y-60500000D01*
X138138095Y-60547619D01*
X138185714Y-60642857D01*
X138185714Y-60690476D01*
X138138095Y-60785714D01*
X138090476Y-60833333D01*
X137995238Y-60880952D01*
X137804761Y-60880952D01*
X137709523Y-60928571D01*
X137661904Y-60976190D01*
X137614285Y-61071428D01*
X137614285Y-61261904D01*
X137661904Y-61357142D01*
X137709523Y-61404761D01*
X137804761Y-61452380D01*
X137995238Y-61452380D01*
X138090476Y-61404761D01*
X138138095Y-61357142D01*
X138185714Y-61261904D01*
X138185714Y-61071428D01*
X138138095Y-60976190D01*
X138090476Y-60928571D01*
X137995238Y-60880952D01*
X137257142Y-59852380D02*
X136923809Y-59376190D01*
X136685714Y-59852380D02*
X136685714Y-58852380D01*
X137066666Y-58852380D01*
X137161904Y-58900000D01*
X137209523Y-58947619D01*
X137257142Y-59042857D01*
X137257142Y-59185714D01*
X137209523Y-59280952D01*
X137161904Y-59328571D01*
X137066666Y-59376190D01*
X136685714Y-59376190D01*
X138209523Y-59852380D02*
X137638095Y-59852380D01*
X137923809Y-59852380D02*
X137923809Y-58852380D01*
X137828571Y-58995238D01*
X137733333Y-59090476D01*
X137638095Y-59138095D01*
X139161904Y-59852380D02*
X138590476Y-59852380D01*
X138876190Y-59852380D02*
X138876190Y-58852380D01*
X138780952Y-58995238D01*
X138685714Y-59090476D01*
X138590476Y-59138095D01*
X142252380Y-59838095D02*
X141252380Y-59838095D01*
X141252380Y-59600000D01*
X141300000Y-59457142D01*
X141395238Y-59361904D01*
X141490476Y-59314285D01*
X141680952Y-59266666D01*
X141823809Y-59266666D01*
X142014285Y-59314285D01*
X142109523Y-59361904D01*
X142204761Y-59457142D01*
X142252380Y-59600000D01*
X142252380Y-59838095D01*
X141252380Y-58933333D02*
X141252380Y-58266666D01*
X142252380Y-58695238D01*
X119766666Y-63352380D02*
X119766666Y-64066666D01*
X119719047Y-64209523D01*
X119623809Y-64304761D01*
X119480952Y-64352380D01*
X119385714Y-64352380D01*
X120242857Y-64352380D02*
X120242857Y-63352380D01*
X120623809Y-63352380D01*
X120719047Y-63400000D01*
X120766666Y-63447619D01*
X120814285Y-63542857D01*
X120814285Y-63685714D01*
X120766666Y-63780952D01*
X120719047Y-63828571D01*
X120623809Y-63876190D01*
X120242857Y-63876190D01*
X121195238Y-63447619D02*
X121242857Y-63400000D01*
X121338095Y-63352380D01*
X121576190Y-63352380D01*
X121671428Y-63400000D01*
X121719047Y-63447619D01*
X121766666Y-63542857D01*
X121766666Y-63638095D01*
X121719047Y-63780952D01*
X121147619Y-64352380D01*
X121766666Y-64352380D01*
X113176190Y-69676190D02*
X113652380Y-69676190D01*
X112652380Y-70009523D02*
X113176190Y-69676190D01*
X112652380Y-69342857D01*
X113652380Y-68485714D02*
X113652380Y-69057142D01*
X113652380Y-68771428D02*
X112652380Y-68771428D01*
X112795238Y-68866666D01*
X112890476Y-68961904D01*
X112938095Y-69057142D01*
X129938095Y-51852380D02*
X129938095Y-52661904D01*
X129985714Y-52757142D01*
X130033333Y-52804761D01*
X130128571Y-52852380D01*
X130319047Y-52852380D01*
X130414285Y-52804761D01*
X130461904Y-52757142D01*
X130509523Y-52661904D01*
X130509523Y-51852380D01*
X131461904Y-51852380D02*
X130985714Y-51852380D01*
X130938095Y-52328571D01*
X130985714Y-52280952D01*
X131080952Y-52233333D01*
X131319047Y-52233333D01*
X131414285Y-52280952D01*
X131461904Y-52328571D01*
X131509523Y-52423809D01*
X131509523Y-52661904D01*
X131461904Y-52757142D01*
X131414285Y-52804761D01*
X131319047Y-52852380D01*
X131080952Y-52852380D01*
X130985714Y-52804761D01*
X130938095Y-52757142D01*
X117838095Y-72352380D02*
X117838095Y-73161904D01*
X117885714Y-73257142D01*
X117933333Y-73304761D01*
X118028571Y-73352380D01*
X118219047Y-73352380D01*
X118314285Y-73304761D01*
X118361904Y-73257142D01*
X118409523Y-73161904D01*
X118409523Y-72352380D01*
X119314285Y-72685714D02*
X119314285Y-73352380D01*
X119076190Y-72304761D02*
X118838095Y-73019047D01*
X119457142Y-73019047D01*
X144838095Y-59252380D02*
X144838095Y-60061904D01*
X144885714Y-60157142D01*
X144933333Y-60204761D01*
X145028571Y-60252380D01*
X145219047Y-60252380D01*
X145314285Y-60204761D01*
X145361904Y-60157142D01*
X145409523Y-60061904D01*
X145409523Y-59252380D01*
X145790476Y-59252380D02*
X146409523Y-59252380D01*
X146076190Y-59633333D01*
X146219047Y-59633333D01*
X146314285Y-59680952D01*
X146361904Y-59728571D01*
X146409523Y-59823809D01*
X146409523Y-60061904D01*
X146361904Y-60157142D01*
X146314285Y-60204761D01*
X146219047Y-60252380D01*
X145933333Y-60252380D01*
X145838095Y-60204761D01*
X145790476Y-60157142D01*
X125838095Y-61952380D02*
X125838095Y-62761904D01*
X125885714Y-62857142D01*
X125933333Y-62904761D01*
X126028571Y-62952380D01*
X126219047Y-62952380D01*
X126314285Y-62904761D01*
X126361904Y-62857142D01*
X126409523Y-62761904D01*
X126409523Y-61952380D01*
X126838095Y-62047619D02*
X126885714Y-62000000D01*
X126980952Y-61952380D01*
X127219047Y-61952380D01*
X127314285Y-62000000D01*
X127361904Y-62047619D01*
X127409523Y-62142857D01*
X127409523Y-62238095D01*
X127361904Y-62380952D01*
X126790476Y-62952380D01*
X127409523Y-62952380D01*
X136932380Y-67861904D02*
X137741904Y-67861904D01*
X137837142Y-67814285D01*
X137884761Y-67766666D01*
X137932380Y-67671428D01*
X137932380Y-67480952D01*
X137884761Y-67385714D01*
X137837142Y-67338095D01*
X137741904Y-67290476D01*
X136932380Y-67290476D01*
X137932380Y-66290476D02*
X137932380Y-66861904D01*
X137932380Y-66576190D02*
X136932380Y-66576190D01*
X137075238Y-66671428D01*
X137170476Y-66766666D01*
X137218095Y-66861904D01*
X169404761Y-71533333D02*
X169452380Y-71390476D01*
X169452380Y-71152380D01*
X169404761Y-71057142D01*
X169357142Y-71009523D01*
X169261904Y-70961904D01*
X169166666Y-70961904D01*
X169071428Y-71009523D01*
X169023809Y-71057142D01*
X168976190Y-71152380D01*
X168928571Y-71342857D01*
X168880952Y-71438095D01*
X168833333Y-71485714D01*
X168738095Y-71533333D01*
X168642857Y-71533333D01*
X168547619Y-71485714D01*
X168500000Y-71438095D01*
X168452380Y-71342857D01*
X168452380Y-71104761D01*
X168500000Y-70961904D01*
X168452380Y-70628571D02*
X169452380Y-70390476D01*
X168738095Y-70200000D01*
X169452380Y-70009523D01*
X168452380Y-69771428D01*
X169452380Y-68866666D02*
X169452380Y-69438095D01*
X169452380Y-69152380D02*
X168452380Y-69152380D01*
X168595238Y-69247619D01*
X168690476Y-69342857D01*
X168738095Y-69438095D01*
X168104761Y-61752380D02*
X167771428Y-61276190D01*
X167533333Y-61752380D02*
X167533333Y-60752380D01*
X167914285Y-60752380D01*
X168009523Y-60800000D01*
X168057142Y-60847619D01*
X168104761Y-60942857D01*
X168104761Y-61085714D01*
X168057142Y-61180952D01*
X168009523Y-61228571D01*
X167914285Y-61276190D01*
X167533333Y-61276190D01*
X168390476Y-60752380D02*
X168723809Y-61752380D01*
X169057142Y-60752380D01*
X169914285Y-61752380D02*
X169342857Y-61752380D01*
X169628571Y-61752380D02*
X169628571Y-60752380D01*
X169533333Y-60895238D01*
X169438095Y-60990476D01*
X169342857Y-61038095D01*
X124852380Y-54042857D02*
X124376190Y-54376190D01*
X124852380Y-54614285D02*
X123852380Y-54614285D01*
X123852380Y-54233333D01*
X123900000Y-54138095D01*
X123947619Y-54090476D01*
X124042857Y-54042857D01*
X124185714Y-54042857D01*
X124280952Y-54090476D01*
X124328571Y-54138095D01*
X124376190Y-54233333D01*
X124376190Y-54614285D01*
X124852380Y-53090476D02*
X124852380Y-53661904D01*
X124852380Y-53376190D02*
X123852380Y-53376190D01*
X123995238Y-53471428D01*
X124090476Y-53566666D01*
X124138095Y-53661904D01*
X123852380Y-52471428D02*
X123852380Y-52376190D01*
X123900000Y-52280952D01*
X123947619Y-52233333D01*
X124042857Y-52185714D01*
X124233333Y-52138095D01*
X124471428Y-52138095D01*
X124661904Y-52185714D01*
X124757142Y-52233333D01*
X124804761Y-52280952D01*
X124852380Y-52376190D01*
X124852380Y-52471428D01*
X124804761Y-52566666D01*
X124757142Y-52614285D01*
X124661904Y-52661904D01*
X124471428Y-52709523D01*
X124233333Y-52709523D01*
X124042857Y-52661904D01*
X123947619Y-52614285D01*
X123900000Y-52566666D01*
X123852380Y-52471428D01*
X120152380Y-54066666D02*
X119676190Y-54400000D01*
X120152380Y-54638095D02*
X119152380Y-54638095D01*
X119152380Y-54257142D01*
X119200000Y-54161904D01*
X119247619Y-54114285D01*
X119342857Y-54066666D01*
X119485714Y-54066666D01*
X119580952Y-54114285D01*
X119628571Y-54161904D01*
X119676190Y-54257142D01*
X119676190Y-54638095D01*
X120152380Y-53590476D02*
X120152380Y-53400000D01*
X120104761Y-53304761D01*
X120057142Y-53257142D01*
X119914285Y-53161904D01*
X119723809Y-53114285D01*
X119342857Y-53114285D01*
X119247619Y-53161904D01*
X119200000Y-53209523D01*
X119152380Y-53304761D01*
X119152380Y-53495238D01*
X119200000Y-53590476D01*
X119247619Y-53638095D01*
X119342857Y-53685714D01*
X119580952Y-53685714D01*
X119676190Y-53638095D01*
X119723809Y-53590476D01*
X119771428Y-53495238D01*
X119771428Y-53304761D01*
X119723809Y-53209523D01*
X119676190Y-53161904D01*
X119580952Y-53114285D01*
X128452380Y-54166666D02*
X127976190Y-54500000D01*
X128452380Y-54738095D02*
X127452380Y-54738095D01*
X127452380Y-54357142D01*
X127500000Y-54261904D01*
X127547619Y-54214285D01*
X127642857Y-54166666D01*
X127785714Y-54166666D01*
X127880952Y-54214285D01*
X127928571Y-54261904D01*
X127976190Y-54357142D01*
X127976190Y-54738095D01*
X127880952Y-53595238D02*
X127833333Y-53690476D01*
X127785714Y-53738095D01*
X127690476Y-53785714D01*
X127642857Y-53785714D01*
X127547619Y-53738095D01*
X127500000Y-53690476D01*
X127452380Y-53595238D01*
X127452380Y-53404761D01*
X127500000Y-53309523D01*
X127547619Y-53261904D01*
X127642857Y-53214285D01*
X127690476Y-53214285D01*
X127785714Y-53261904D01*
X127833333Y-53309523D01*
X127880952Y-53404761D01*
X127880952Y-53595238D01*
X127928571Y-53690476D01*
X127976190Y-53738095D01*
X128071428Y-53785714D01*
X128261904Y-53785714D01*
X128357142Y-53738095D01*
X128404761Y-53690476D01*
X128452380Y-53595238D01*
X128452380Y-53404761D01*
X128404761Y-53309523D01*
X128357142Y-53261904D01*
X128261904Y-53214285D01*
X128071428Y-53214285D01*
X127976190Y-53261904D01*
X127928571Y-53309523D01*
X127880952Y-53404761D01*
X133852380Y-54066666D02*
X133376190Y-54400000D01*
X133852380Y-54638095D02*
X132852380Y-54638095D01*
X132852380Y-54257142D01*
X132900000Y-54161904D01*
X132947619Y-54114285D01*
X133042857Y-54066666D01*
X133185714Y-54066666D01*
X133280952Y-54114285D01*
X133328571Y-54161904D01*
X133376190Y-54257142D01*
X133376190Y-54638095D01*
X132852380Y-53733333D02*
X132852380Y-53066666D01*
X133852380Y-53495238D01*
X142033333Y-68852380D02*
X141700000Y-68376190D01*
X141461904Y-68852380D02*
X141461904Y-67852380D01*
X141842857Y-67852380D01*
X141938095Y-67900000D01*
X141985714Y-67947619D01*
X142033333Y-68042857D01*
X142033333Y-68185714D01*
X141985714Y-68280952D01*
X141938095Y-68328571D01*
X141842857Y-68376190D01*
X141461904Y-68376190D01*
X142890476Y-67852380D02*
X142700000Y-67852380D01*
X142604761Y-67900000D01*
X142557142Y-67947619D01*
X142461904Y-68090476D01*
X142414285Y-68280952D01*
X142414285Y-68661904D01*
X142461904Y-68757142D01*
X142509523Y-68804761D01*
X142604761Y-68852380D01*
X142795238Y-68852380D01*
X142890476Y-68804761D01*
X142938095Y-68757142D01*
X142985714Y-68661904D01*
X142985714Y-68423809D01*
X142938095Y-68328571D01*
X142890476Y-68280952D01*
X142795238Y-68233333D01*
X142604761Y-68233333D01*
X142509523Y-68280952D01*
X142461904Y-68328571D01*
X142414285Y-68423809D01*
X139052380Y-56666666D02*
X138576190Y-57000000D01*
X139052380Y-57238095D02*
X138052380Y-57238095D01*
X138052380Y-56857142D01*
X138100000Y-56761904D01*
X138147619Y-56714285D01*
X138242857Y-56666666D01*
X138385714Y-56666666D01*
X138480952Y-56714285D01*
X138528571Y-56761904D01*
X138576190Y-56857142D01*
X138576190Y-57238095D01*
X138052380Y-55761904D02*
X138052380Y-56238095D01*
X138528571Y-56285714D01*
X138480952Y-56238095D01*
X138433333Y-56142857D01*
X138433333Y-55904761D01*
X138480952Y-55809523D01*
X138528571Y-55761904D01*
X138623809Y-55714285D01*
X138861904Y-55714285D01*
X138957142Y-55761904D01*
X139004761Y-55809523D01*
X139052380Y-55904761D01*
X139052380Y-56142857D01*
X139004761Y-56238095D01*
X138957142Y-56285714D01*
X140752380Y-59266666D02*
X140276190Y-59600000D01*
X140752380Y-59838095D02*
X139752380Y-59838095D01*
X139752380Y-59457142D01*
X139800000Y-59361904D01*
X139847619Y-59314285D01*
X139942857Y-59266666D01*
X140085714Y-59266666D01*
X140180952Y-59314285D01*
X140228571Y-59361904D01*
X140276190Y-59457142D01*
X140276190Y-59838095D01*
X140085714Y-58409523D02*
X140752380Y-58409523D01*
X139704761Y-58647619D02*
X140419047Y-58885714D01*
X140419047Y-58266666D01*
X145833333Y-70252380D02*
X145500000Y-69776190D01*
X145261904Y-70252380D02*
X145261904Y-69252380D01*
X145642857Y-69252380D01*
X145738095Y-69300000D01*
X145785714Y-69347619D01*
X145833333Y-69442857D01*
X145833333Y-69585714D01*
X145785714Y-69680952D01*
X145738095Y-69728571D01*
X145642857Y-69776190D01*
X145261904Y-69776190D01*
X146166666Y-69252380D02*
X146785714Y-69252380D01*
X146452380Y-69633333D01*
X146595238Y-69633333D01*
X146690476Y-69680952D01*
X146738095Y-69728571D01*
X146785714Y-69823809D01*
X146785714Y-70061904D01*
X146738095Y-70157142D01*
X146690476Y-70204761D01*
X146595238Y-70252380D01*
X146309523Y-70252380D01*
X146214285Y-70204761D01*
X146166666Y-70157142D01*
X139852380Y-65966666D02*
X139376190Y-66300000D01*
X139852380Y-66538095D02*
X138852380Y-66538095D01*
X138852380Y-66157142D01*
X138900000Y-66061904D01*
X138947619Y-66014285D01*
X139042857Y-65966666D01*
X139185714Y-65966666D01*
X139280952Y-66014285D01*
X139328571Y-66061904D01*
X139376190Y-66157142D01*
X139376190Y-66538095D01*
X138947619Y-65585714D02*
X138900000Y-65538095D01*
X138852380Y-65442857D01*
X138852380Y-65204761D01*
X138900000Y-65109523D01*
X138947619Y-65061904D01*
X139042857Y-65014285D01*
X139138095Y-65014285D01*
X139280952Y-65061904D01*
X139852380Y-65633333D01*
X139852380Y-65014285D01*
X128833333Y-61452380D02*
X128500000Y-60976190D01*
X128261904Y-61452380D02*
X128261904Y-60452380D01*
X128642857Y-60452380D01*
X128738095Y-60500000D01*
X128785714Y-60547619D01*
X128833333Y-60642857D01*
X128833333Y-60785714D01*
X128785714Y-60880952D01*
X128738095Y-60928571D01*
X128642857Y-60976190D01*
X128261904Y-60976190D01*
X129785714Y-61452380D02*
X129214285Y-61452380D01*
X129500000Y-61452380D02*
X129500000Y-60452380D01*
X129404761Y-60595238D01*
X129309523Y-60690476D01*
X129214285Y-60738095D01*
X142952380Y-66066666D02*
X142952380Y-66542857D01*
X141952380Y-66542857D01*
X142952380Y-65209523D02*
X142952380Y-65780952D01*
X142952380Y-65495238D02*
X141952380Y-65495238D01*
X142095238Y-65590476D01*
X142190476Y-65685714D01*
X142238095Y-65780952D01*
X119766666Y-60752380D02*
X119766666Y-61466666D01*
X119719047Y-61609523D01*
X119623809Y-61704761D01*
X119480952Y-61752380D01*
X119385714Y-61752380D01*
X120242857Y-61752380D02*
X120242857Y-60752380D01*
X120623809Y-60752380D01*
X120719047Y-60800000D01*
X120766666Y-60847619D01*
X120814285Y-60942857D01*
X120814285Y-61085714D01*
X120766666Y-61180952D01*
X120719047Y-61228571D01*
X120623809Y-61276190D01*
X120242857Y-61276190D01*
X121766666Y-61752380D02*
X121195238Y-61752380D01*
X121480952Y-61752380D02*
X121480952Y-60752380D01*
X121385714Y-60895238D01*
X121290476Y-60990476D01*
X121195238Y-61038095D01*
X114966666Y-58352380D02*
X114966666Y-59066666D01*
X114919047Y-59209523D01*
X114823809Y-59304761D01*
X114680952Y-59352380D01*
X114585714Y-59352380D01*
X115871428Y-58685714D02*
X115871428Y-59352380D01*
X115633333Y-58304761D02*
X115395238Y-59019047D01*
X116014285Y-59019047D01*
X113055714Y-57552380D02*
X113055714Y-56552380D01*
X113531904Y-57552380D02*
X113531904Y-56552380D01*
X113865238Y-57266666D01*
X114198571Y-56552380D01*
X114198571Y-57552380D01*
X114674761Y-57552380D02*
X114674761Y-56552380D01*
X115055714Y-56552380D01*
X115150952Y-56600000D01*
X115198571Y-56647619D01*
X115246190Y-56742857D01*
X115246190Y-56885714D01*
X115198571Y-56980952D01*
X115150952Y-57028571D01*
X115055714Y-57076190D01*
X114674761Y-57076190D01*
X115436666Y-57647619D02*
X116198571Y-57647619D01*
X116436666Y-57552380D02*
X116436666Y-56552380D01*
X116912857Y-57552380D02*
X116912857Y-56552380D01*
X117484285Y-57552380D01*
X117484285Y-56552380D01*
X131866666Y-74852380D02*
X131866666Y-75566666D01*
X131819047Y-75709523D01*
X131723809Y-75804761D01*
X131580952Y-75852380D01*
X131485714Y-75852380D01*
X132247619Y-74852380D02*
X132866666Y-74852380D01*
X132533333Y-75233333D01*
X132676190Y-75233333D01*
X132771428Y-75280952D01*
X132819047Y-75328571D01*
X132866666Y-75423809D01*
X132866666Y-75661904D01*
X132819047Y-75757142D01*
X132771428Y-75804761D01*
X132676190Y-75852380D01*
X132390476Y-75852380D01*
X132295238Y-75804761D01*
X132247619Y-75757142D01*
X142266666Y-72852380D02*
X142266666Y-73566666D01*
X142219047Y-73709523D01*
X142123809Y-73804761D01*
X141980952Y-73852380D01*
X141885714Y-73852380D01*
X142695238Y-72947619D02*
X142742857Y-72900000D01*
X142838095Y-72852380D01*
X143076190Y-72852380D01*
X143171428Y-72900000D01*
X143219047Y-72947619D01*
X143266666Y-73042857D01*
X143266666Y-73138095D01*
X143219047Y-73280952D01*
X142647619Y-73852380D01*
X143266666Y-73852380D01*
X157666666Y-58352380D02*
X157666666Y-59066666D01*
X157619047Y-59209523D01*
X157523809Y-59304761D01*
X157380952Y-59352380D01*
X157285714Y-59352380D01*
X158666666Y-59352380D02*
X158095238Y-59352380D01*
X158380952Y-59352380D02*
X158380952Y-58352380D01*
X158285714Y-58495238D01*
X158190476Y-58590476D01*
X158095238Y-58638095D01*
X155784285Y-57704761D02*
X155927142Y-57752380D01*
X156165238Y-57752380D01*
X156260476Y-57704761D01*
X156308095Y-57657142D01*
X156355714Y-57561904D01*
X156355714Y-57466666D01*
X156308095Y-57371428D01*
X156260476Y-57323809D01*
X156165238Y-57276190D01*
X155974761Y-57228571D01*
X155879523Y-57180952D01*
X155831904Y-57133333D01*
X155784285Y-57038095D01*
X155784285Y-56942857D01*
X155831904Y-56847619D01*
X155879523Y-56800000D01*
X155974761Y-56752380D01*
X156212857Y-56752380D01*
X156355714Y-56800000D01*
X157212857Y-57085714D02*
X157212857Y-57752380D01*
X156784285Y-57085714D02*
X156784285Y-57609523D01*
X156831904Y-57704761D01*
X156927142Y-57752380D01*
X157070000Y-57752380D01*
X157165238Y-57704761D01*
X157212857Y-57657142D01*
X157689047Y-57085714D02*
X157689047Y-58085714D01*
X157689047Y-57133333D02*
X157784285Y-57085714D01*
X157974761Y-57085714D01*
X158070000Y-57133333D01*
X158117619Y-57180952D01*
X158165238Y-57276190D01*
X158165238Y-57561904D01*
X158117619Y-57657142D01*
X158070000Y-57704761D01*
X157974761Y-57752380D01*
X157784285Y-57752380D01*
X157689047Y-57704761D01*
X158593809Y-57085714D02*
X158593809Y-58085714D01*
X158593809Y-57133333D02*
X158689047Y-57085714D01*
X158879523Y-57085714D01*
X158974761Y-57133333D01*
X159022380Y-57180952D01*
X159070000Y-57276190D01*
X159070000Y-57561904D01*
X159022380Y-57657142D01*
X158974761Y-57704761D01*
X158879523Y-57752380D01*
X158689047Y-57752380D01*
X158593809Y-57704761D01*
X159641428Y-57752380D02*
X159546190Y-57704761D01*
X159498571Y-57609523D01*
X159498571Y-56752380D01*
X159927142Y-57085714D02*
X160165238Y-57752380D01*
X160403333Y-57085714D02*
X160165238Y-57752380D01*
X160070000Y-57990476D01*
X160022380Y-58038095D01*
X159927142Y-58085714D01*
X98238095Y-55552380D02*
X98238095Y-54552380D01*
X98238095Y-55028571D02*
X98809523Y-55028571D01*
X98809523Y-55552380D02*
X98809523Y-54552380D01*
X99714285Y-54885714D02*
X99714285Y-55552380D01*
X99476190Y-54504761D02*
X99238095Y-55219047D01*
X99857142Y-55219047D01*
X98938095Y-78652380D02*
X98938095Y-77652380D01*
X98938095Y-78128571D02*
X99509523Y-78128571D01*
X99509523Y-78652380D02*
X99509523Y-77652380D01*
X99890476Y-77652380D02*
X100509523Y-77652380D01*
X100176190Y-78033333D01*
X100319047Y-78033333D01*
X100414285Y-78080952D01*
X100461904Y-78128571D01*
X100509523Y-78223809D01*
X100509523Y-78461904D01*
X100461904Y-78557142D01*
X100414285Y-78604761D01*
X100319047Y-78652380D01*
X100033333Y-78652380D01*
X99938095Y-78604761D01*
X99890476Y-78557142D01*
X170538095Y-57652380D02*
X170538095Y-56652380D01*
X170538095Y-57128571D02*
X171109523Y-57128571D01*
X171109523Y-57652380D02*
X171109523Y-56652380D01*
X171538095Y-56747619D02*
X171585714Y-56700000D01*
X171680952Y-56652380D01*
X171919047Y-56652380D01*
X172014285Y-56700000D01*
X172061904Y-56747619D01*
X172109523Y-56842857D01*
X172109523Y-56938095D01*
X172061904Y-57080952D01*
X171490476Y-57652380D01*
X172109523Y-57652380D01*
X170838095Y-76652380D02*
X170838095Y-75652380D01*
X170838095Y-76128571D02*
X171409523Y-76128571D01*
X171409523Y-76652380D02*
X171409523Y-75652380D01*
X172409523Y-76652380D02*
X171838095Y-76652380D01*
X172123809Y-76652380D02*
X172123809Y-75652380D01*
X172028571Y-75795238D01*
X171933333Y-75890476D01*
X171838095Y-75938095D01*
X147652380Y-55638095D02*
X146652380Y-55638095D01*
X146652380Y-55400000D01*
X146700000Y-55257142D01*
X146795238Y-55161904D01*
X146890476Y-55114285D01*
X147080952Y-55066666D01*
X147223809Y-55066666D01*
X147414285Y-55114285D01*
X147509523Y-55161904D01*
X147604761Y-55257142D01*
X147652380Y-55400000D01*
X147652380Y-55638095D01*
X146652380Y-54209523D02*
X146652380Y-54400000D01*
X146700000Y-54495238D01*
X146747619Y-54542857D01*
X146890476Y-54638095D01*
X147080952Y-54685714D01*
X147461904Y-54685714D01*
X147557142Y-54638095D01*
X147604761Y-54590476D01*
X147652380Y-54495238D01*
X147652380Y-54304761D01*
X147604761Y-54209523D01*
X147557142Y-54161904D01*
X147461904Y-54114285D01*
X147223809Y-54114285D01*
X147128571Y-54161904D01*
X147080952Y-54209523D01*
X147033333Y-54304761D01*
X147033333Y-54495238D01*
X147080952Y-54590476D01*
X147128571Y-54638095D01*
X147223809Y-54685714D01*
X121652380Y-54638095D02*
X120652380Y-54638095D01*
X120652380Y-54400000D01*
X120700000Y-54257142D01*
X120795238Y-54161904D01*
X120890476Y-54114285D01*
X121080952Y-54066666D01*
X121223809Y-54066666D01*
X121414285Y-54114285D01*
X121509523Y-54161904D01*
X121604761Y-54257142D01*
X121652380Y-54400000D01*
X121652380Y-54638095D01*
X120652380Y-53161904D02*
X120652380Y-53638095D01*
X121128571Y-53685714D01*
X121080952Y-53638095D01*
X121033333Y-53542857D01*
X121033333Y-53304761D01*
X121080952Y-53209523D01*
X121128571Y-53161904D01*
X121223809Y-53114285D01*
X121461904Y-53114285D01*
X121557142Y-53161904D01*
X121604761Y-53209523D01*
X121652380Y-53304761D01*
X121652380Y-53542857D01*
X121604761Y-53638095D01*
X121557142Y-53685714D01*
X120061904Y-68422380D02*
X120061904Y-67422380D01*
X120300000Y-67422380D01*
X120442857Y-67470000D01*
X120538095Y-67565238D01*
X120585714Y-67660476D01*
X120633333Y-67850952D01*
X120633333Y-67993809D01*
X120585714Y-68184285D01*
X120538095Y-68279523D01*
X120442857Y-68374761D01*
X120300000Y-68422380D01*
X120061904Y-68422380D01*
X121490476Y-67755714D02*
X121490476Y-68422380D01*
X121252380Y-67374761D02*
X121014285Y-68089047D01*
X121633333Y-68089047D01*
X115661904Y-68352380D02*
X115661904Y-67352380D01*
X115900000Y-67352380D01*
X116042857Y-67400000D01*
X116138095Y-67495238D01*
X116185714Y-67590476D01*
X116233333Y-67780952D01*
X116233333Y-67923809D01*
X116185714Y-68114285D01*
X116138095Y-68209523D01*
X116042857Y-68304761D01*
X115900000Y-68352380D01*
X115661904Y-68352380D01*
X116566666Y-67352380D02*
X117185714Y-67352380D01*
X116852380Y-67733333D01*
X116995238Y-67733333D01*
X117090476Y-67780952D01*
X117138095Y-67828571D01*
X117185714Y-67923809D01*
X117185714Y-68161904D01*
X117138095Y-68257142D01*
X117090476Y-68304761D01*
X116995238Y-68352380D01*
X116709523Y-68352380D01*
X116614285Y-68304761D01*
X116566666Y-68257142D01*
X137452380Y-57238095D02*
X136452380Y-57238095D01*
X136452380Y-57000000D01*
X136500000Y-56857142D01*
X136595238Y-56761904D01*
X136690476Y-56714285D01*
X136880952Y-56666666D01*
X137023809Y-56666666D01*
X137214285Y-56714285D01*
X137309523Y-56761904D01*
X137404761Y-56857142D01*
X137452380Y-57000000D01*
X137452380Y-57238095D01*
X136547619Y-56285714D02*
X136500000Y-56238095D01*
X136452380Y-56142857D01*
X136452380Y-55904761D01*
X136500000Y-55809523D01*
X136547619Y-55761904D01*
X136642857Y-55714285D01*
X136738095Y-55714285D01*
X136880952Y-55761904D01*
X137452380Y-56333333D01*
X137452380Y-55714285D01*
X152061904Y-55722380D02*
X152061904Y-54722380D01*
X152300000Y-54722380D01*
X152442857Y-54770000D01*
X152538095Y-54865238D01*
X152585714Y-54960476D01*
X152633333Y-55150952D01*
X152633333Y-55293809D01*
X152585714Y-55484285D01*
X152538095Y-55579523D01*
X152442857Y-55674761D01*
X152300000Y-55722380D01*
X152061904Y-55722380D01*
X153585714Y-55722380D02*
X153014285Y-55722380D01*
X153300000Y-55722380D02*
X153300000Y-54722380D01*
X153204761Y-54865238D01*
X153109523Y-54960476D01*
X153014285Y-55008095D01*
X123157142Y-54042857D02*
X123204761Y-54090476D01*
X123252380Y-54233333D01*
X123252380Y-54328571D01*
X123204761Y-54471428D01*
X123109523Y-54566666D01*
X123014285Y-54614285D01*
X122823809Y-54661904D01*
X122680952Y-54661904D01*
X122490476Y-54614285D01*
X122395238Y-54566666D01*
X122300000Y-54471428D01*
X122252380Y-54328571D01*
X122252380Y-54233333D01*
X122300000Y-54090476D01*
X122347619Y-54042857D01*
X123252380Y-53090476D02*
X123252380Y-53661904D01*
X123252380Y-53376190D02*
X122252380Y-53376190D01*
X122395238Y-53471428D01*
X122490476Y-53566666D01*
X122538095Y-53661904D01*
X122252380Y-52757142D02*
X122252380Y-52138095D01*
X122633333Y-52471428D01*
X122633333Y-52328571D01*
X122680952Y-52233333D01*
X122728571Y-52185714D01*
X122823809Y-52138095D01*
X123061904Y-52138095D01*
X123157142Y-52185714D01*
X123204761Y-52233333D01*
X123252380Y-52328571D01*
X123252380Y-52614285D01*
X123204761Y-52709523D01*
X123157142Y-52757142D01*
X130157142Y-56757142D02*
X130109523Y-56804761D01*
X129966666Y-56852380D01*
X129871428Y-56852380D01*
X129728571Y-56804761D01*
X129633333Y-56709523D01*
X129585714Y-56614285D01*
X129538095Y-56423809D01*
X129538095Y-56280952D01*
X129585714Y-56090476D01*
X129633333Y-55995238D01*
X129728571Y-55900000D01*
X129871428Y-55852380D01*
X129966666Y-55852380D01*
X130109523Y-55900000D01*
X130157142Y-55947619D01*
X131109523Y-56852380D02*
X130538095Y-56852380D01*
X130823809Y-56852380D02*
X130823809Y-55852380D01*
X130728571Y-55995238D01*
X130633333Y-56090476D01*
X130538095Y-56138095D01*
X131490476Y-55947619D02*
X131538095Y-55900000D01*
X131633333Y-55852380D01*
X131871428Y-55852380D01*
X131966666Y-55900000D01*
X132014285Y-55947619D01*
X132061904Y-56042857D01*
X132061904Y-56138095D01*
X132014285Y-56280952D01*
X131442857Y-56852380D01*
X132061904Y-56852380D01*
X135757142Y-57142857D02*
X135804761Y-57190476D01*
X135852380Y-57333333D01*
X135852380Y-57428571D01*
X135804761Y-57571428D01*
X135709523Y-57666666D01*
X135614285Y-57714285D01*
X135423809Y-57761904D01*
X135280952Y-57761904D01*
X135090476Y-57714285D01*
X134995238Y-57666666D01*
X134900000Y-57571428D01*
X134852380Y-57428571D01*
X134852380Y-57333333D01*
X134900000Y-57190476D01*
X134947619Y-57142857D01*
X135852380Y-56190476D02*
X135852380Y-56761904D01*
X135852380Y-56476190D02*
X134852380Y-56476190D01*
X134995238Y-56571428D01*
X135090476Y-56666666D01*
X135138095Y-56761904D01*
X135852380Y-55238095D02*
X135852380Y-55809523D01*
X135852380Y-55523809D02*
X134852380Y-55523809D01*
X134995238Y-55619047D01*
X135090476Y-55714285D01*
X135138095Y-55809523D01*
X111357142Y-69642857D02*
X111404761Y-69690476D01*
X111452380Y-69833333D01*
X111452380Y-69928571D01*
X111404761Y-70071428D01*
X111309523Y-70166666D01*
X111214285Y-70214285D01*
X111023809Y-70261904D01*
X110880952Y-70261904D01*
X110690476Y-70214285D01*
X110595238Y-70166666D01*
X110500000Y-70071428D01*
X110452380Y-69928571D01*
X110452380Y-69833333D01*
X110500000Y-69690476D01*
X110547619Y-69642857D01*
X111452380Y-68690476D02*
X111452380Y-69261904D01*
X111452380Y-68976190D02*
X110452380Y-68976190D01*
X110595238Y-69071428D01*
X110690476Y-69166666D01*
X110738095Y-69261904D01*
X110452380Y-68071428D02*
X110452380Y-67976190D01*
X110500000Y-67880952D01*
X110547619Y-67833333D01*
X110642857Y-67785714D01*
X110833333Y-67738095D01*
X111071428Y-67738095D01*
X111261904Y-67785714D01*
X111357142Y-67833333D01*
X111404761Y-67880952D01*
X111452380Y-67976190D01*
X111452380Y-68071428D01*
X111404761Y-68166666D01*
X111357142Y-68214285D01*
X111261904Y-68261904D01*
X111071428Y-68309523D01*
X110833333Y-68309523D01*
X110642857Y-68261904D01*
X110547619Y-68214285D01*
X110500000Y-68166666D01*
X110452380Y-68071428D01*
X141357142Y-65966666D02*
X141404761Y-66014285D01*
X141452380Y-66157142D01*
X141452380Y-66252380D01*
X141404761Y-66395238D01*
X141309523Y-66490476D01*
X141214285Y-66538095D01*
X141023809Y-66585714D01*
X140880952Y-66585714D01*
X140690476Y-66538095D01*
X140595238Y-66490476D01*
X140500000Y-66395238D01*
X140452380Y-66252380D01*
X140452380Y-66157142D01*
X140500000Y-66014285D01*
X140547619Y-65966666D01*
X141452380Y-65490476D02*
X141452380Y-65300000D01*
X141404761Y-65204761D01*
X141357142Y-65157142D01*
X141214285Y-65061904D01*
X141023809Y-65014285D01*
X140642857Y-65014285D01*
X140547619Y-65061904D01*
X140500000Y-65109523D01*
X140452380Y-65204761D01*
X140452380Y-65395238D01*
X140500000Y-65490476D01*
X140547619Y-65538095D01*
X140642857Y-65585714D01*
X140880952Y-65585714D01*
X140976190Y-65538095D01*
X141023809Y-65490476D01*
X141071428Y-65395238D01*
X141071428Y-65204761D01*
X141023809Y-65109523D01*
X140976190Y-65061904D01*
X140880952Y-65014285D01*
X112357142Y-76966666D02*
X112404761Y-77014285D01*
X112452380Y-77157142D01*
X112452380Y-77252380D01*
X112404761Y-77395238D01*
X112309523Y-77490476D01*
X112214285Y-77538095D01*
X112023809Y-77585714D01*
X111880952Y-77585714D01*
X111690476Y-77538095D01*
X111595238Y-77490476D01*
X111500000Y-77395238D01*
X111452380Y-77252380D01*
X111452380Y-77157142D01*
X111500000Y-77014285D01*
X111547619Y-76966666D01*
X111880952Y-76395238D02*
X111833333Y-76490476D01*
X111785714Y-76538095D01*
X111690476Y-76585714D01*
X111642857Y-76585714D01*
X111547619Y-76538095D01*
X111500000Y-76490476D01*
X111452380Y-76395238D01*
X111452380Y-76204761D01*
X111500000Y-76109523D01*
X111547619Y-76061904D01*
X111642857Y-76014285D01*
X111690476Y-76014285D01*
X111785714Y-76061904D01*
X111833333Y-76109523D01*
X111880952Y-76204761D01*
X111880952Y-76395238D01*
X111928571Y-76490476D01*
X111976190Y-76538095D01*
X112071428Y-76585714D01*
X112261904Y-76585714D01*
X112357142Y-76538095D01*
X112404761Y-76490476D01*
X112452380Y-76395238D01*
X112452380Y-76204761D01*
X112404761Y-76109523D01*
X112357142Y-76061904D01*
X112261904Y-76014285D01*
X112071428Y-76014285D01*
X111976190Y-76061904D01*
X111928571Y-76109523D01*
X111880952Y-76204761D01*
X159957142Y-66266666D02*
X160004761Y-66314285D01*
X160052380Y-66457142D01*
X160052380Y-66552380D01*
X160004761Y-66695238D01*
X159909523Y-66790476D01*
X159814285Y-66838095D01*
X159623809Y-66885714D01*
X159480952Y-66885714D01*
X159290476Y-66838095D01*
X159195238Y-66790476D01*
X159100000Y-66695238D01*
X159052380Y-66552380D01*
X159052380Y-66457142D01*
X159100000Y-66314285D01*
X159147619Y-66266666D01*
X159052380Y-65933333D02*
X159052380Y-65266666D01*
X160052380Y-65695238D01*
X149157142Y-55066666D02*
X149204761Y-55114285D01*
X149252380Y-55257142D01*
X149252380Y-55352380D01*
X149204761Y-55495238D01*
X149109523Y-55590476D01*
X149014285Y-55638095D01*
X148823809Y-55685714D01*
X148680952Y-55685714D01*
X148490476Y-55638095D01*
X148395238Y-55590476D01*
X148300000Y-55495238D01*
X148252380Y-55352380D01*
X148252380Y-55257142D01*
X148300000Y-55114285D01*
X148347619Y-55066666D01*
X148252380Y-54161904D02*
X148252380Y-54638095D01*
X148728571Y-54685714D01*
X148680952Y-54638095D01*
X148633333Y-54542857D01*
X148633333Y-54304761D01*
X148680952Y-54209523D01*
X148728571Y-54161904D01*
X148823809Y-54114285D01*
X149061904Y-54114285D01*
X149157142Y-54161904D01*
X149204761Y-54209523D01*
X149252380Y-54304761D01*
X149252380Y-54542857D01*
X149204761Y-54638095D01*
X149157142Y-54685714D01*
X150757142Y-55066666D02*
X150804761Y-55114285D01*
X150852380Y-55257142D01*
X150852380Y-55352380D01*
X150804761Y-55495238D01*
X150709523Y-55590476D01*
X150614285Y-55638095D01*
X150423809Y-55685714D01*
X150280952Y-55685714D01*
X150090476Y-55638095D01*
X149995238Y-55590476D01*
X149900000Y-55495238D01*
X149852380Y-55352380D01*
X149852380Y-55257142D01*
X149900000Y-55114285D01*
X149947619Y-55066666D01*
X150185714Y-54209523D02*
X150852380Y-54209523D01*
X149804761Y-54447619D02*
X150519047Y-54685714D01*
X150519047Y-54066666D01*
X128633333Y-59757142D02*
X128585714Y-59804761D01*
X128442857Y-59852380D01*
X128347619Y-59852380D01*
X128204761Y-59804761D01*
X128109523Y-59709523D01*
X128061904Y-59614285D01*
X128014285Y-59423809D01*
X128014285Y-59280952D01*
X128061904Y-59090476D01*
X128109523Y-58995238D01*
X128204761Y-58900000D01*
X128347619Y-58852380D01*
X128442857Y-58852380D01*
X128585714Y-58900000D01*
X128633333Y-58947619D01*
X128966666Y-58852380D02*
X129585714Y-58852380D01*
X129252380Y-59233333D01*
X129395238Y-59233333D01*
X129490476Y-59280952D01*
X129538095Y-59328571D01*
X129585714Y-59423809D01*
X129585714Y-59661904D01*
X129538095Y-59757142D01*
X129490476Y-59804761D01*
X129395238Y-59852380D01*
X129109523Y-59852380D01*
X129014285Y-59804761D01*
X128966666Y-59757142D01*
X138157142Y-64466666D02*
X138204761Y-64514285D01*
X138252380Y-64657142D01*
X138252380Y-64752380D01*
X138204761Y-64895238D01*
X138109523Y-64990476D01*
X138014285Y-65038095D01*
X137823809Y-65085714D01*
X137680952Y-65085714D01*
X137490476Y-65038095D01*
X137395238Y-64990476D01*
X137300000Y-64895238D01*
X137252380Y-64752380D01*
X137252380Y-64657142D01*
X137300000Y-64514285D01*
X137347619Y-64466666D01*
X137347619Y-64085714D02*
X137300000Y-64038095D01*
X137252380Y-63942857D01*
X137252380Y-63704761D01*
X137300000Y-63609523D01*
X137347619Y-63561904D01*
X137442857Y-63514285D01*
X137538095Y-63514285D01*
X137680952Y-63561904D01*
X138252380Y-64133333D01*
X138252380Y-63514285D01*
X125033333Y-70557142D02*
X124985714Y-70604761D01*
X124842857Y-70652380D01*
X124747619Y-70652380D01*
X124604761Y-70604761D01*
X124509523Y-70509523D01*
X124461904Y-70414285D01*
X124414285Y-70223809D01*
X124414285Y-70080952D01*
X124461904Y-69890476D01*
X124509523Y-69795238D01*
X124604761Y-69700000D01*
X124747619Y-69652380D01*
X124842857Y-69652380D01*
X124985714Y-69700000D01*
X125033333Y-69747619D01*
X125985714Y-70652380D02*
X125414285Y-70652380D01*
X125700000Y-70652380D02*
X125700000Y-69652380D01*
X125604761Y-69795238D01*
X125509523Y-69890476D01*
X125414285Y-69938095D01*
X104314285Y-59628571D02*
X104457142Y-59676190D01*
X104504761Y-59723809D01*
X104552380Y-59819047D01*
X104552380Y-59961904D01*
X104504761Y-60057142D01*
X104457142Y-60104761D01*
X104361904Y-60152380D01*
X103980952Y-60152380D01*
X103980952Y-59152380D01*
X104314285Y-59152380D01*
X104409523Y-59200000D01*
X104457142Y-59247619D01*
X104504761Y-59342857D01*
X104504761Y-59438095D01*
X104457142Y-59533333D01*
X104409523Y-59580952D01*
X104314285Y-59628571D01*
X103980952Y-59628571D01*
X104838095Y-59152380D02*
X105409523Y-59152380D01*
X105123809Y-60152380D02*
X105123809Y-59152380D01*
X106266666Y-60152380D02*
X105695238Y-60152380D01*
X105980952Y-60152380D02*
X105980952Y-59152380D01*
X105885714Y-59295238D01*
X105790476Y-59390476D01*
X105695238Y-59438095D01*
M02*
