M48
; DRILL file {KiCad (5.1.0)-1} date 12.04.2021 00:50:49
; FORMAT={-:-/ absolute / metric / decimal}
; #@! TF.CreationDate,2021-04-12T00:50:49+02:00
; #@! TF.GenerationSoftware,Kicad,Pcbnew,(5.1.0)-1
; #@! TF.FileFunction,Plated,1,2,PTH
FMAT,2
METRIC
T1C0.400
T2C0.762
T3C0.800
T4C1.000
T5C1.100
%
G90
G05
T1
X111.1Y-74.3
X111.8Y-76.0
X122.9Y-59.5
X123.2Y-69.4
X123.2Y-72.6
X124.6Y-70.0
X124.7Y-59.6
X125.8Y-55.8
X128.0Y-72.8
X128.8Y-53.8
X129.2Y-60.4
X129.4Y-59.0
X133.3Y-53.8
X133.6Y-73.0
X135.0Y-73.0
X137.1Y-61.1
X138.6Y-58.6
X139.4Y-61.2
X139.57Y-70.975
X141.0Y-53.8
X141.0Y-61.3
X144.5Y-64.9
X145.7Y-68.9
X146.0Y-64.7
X147.19Y-59.375
X148.7Y-65.285
X151.22Y-70.44
X152.0Y-58.3
X155.31Y-70.44
X162.2Y-51.6
X162.2Y-52.5
X162.2Y-53.5
X162.2Y-54.5
T2
X108.085Y-55.235
X108.085Y-57.775
X108.085Y-60.315
X108.085Y-62.855
X108.085Y-65.395
X108.085Y-67.935
X108.085Y-70.475
X108.085Y-73.015
X108.085Y-75.555
X108.085Y-78.095
X163.485Y-59.045
X163.485Y-61.585
X163.485Y-64.125
X163.485Y-69.205
X163.485Y-71.745
X163.485Y-74.285
T3
X174.36Y-59.01
X174.36Y-64.09
X176.9Y-61.55
T4
X126.58Y-78.0
X129.12Y-78.0
X131.66Y-78.0
X134.2Y-78.0
T5
X114.0Y-52.7
X116.54Y-52.7
X156.8Y-52.7
X159.34Y-52.7
T0
M30
