G04 #@! TF.GenerationSoftware,KiCad,Pcbnew,(5.1.0)-1*
G04 #@! TF.CreationDate,2021-04-12T00:50:47+02:00*
G04 #@! TF.ProjectId,Drehzahlmesser,44726568-7a61-4686-9c6d-65737365722e,rev?*
G04 #@! TF.SameCoordinates,Original*
G04 #@! TF.FileFunction,Soldermask,Bot*
G04 #@! TF.FilePolarity,Negative*
%FSLAX46Y46*%
G04 Gerber Fmt 4.6, Leading zero omitted, Abs format (unit mm)*
G04 Created by KiCad (PCBNEW (5.1.0)-1) date 2021-04-12 00:50:47*
%MOMM*%
%LPD*%
G04 APERTURE LIST*
%ADD10C,0.100000*%
G04 APERTURE END LIST*
D10*
G36*
X174825331Y-78468211D02*
G01*
X175153092Y-78603974D01*
X175448070Y-78801072D01*
X175698928Y-79051930D01*
X175896026Y-79346908D01*
X176031789Y-79674669D01*
X176101000Y-80022616D01*
X176101000Y-80377384D01*
X176031789Y-80725331D01*
X175896026Y-81053092D01*
X175698928Y-81348070D01*
X175448070Y-81598928D01*
X175153092Y-81796026D01*
X174825331Y-81931789D01*
X174477384Y-82001000D01*
X174122616Y-82001000D01*
X173774669Y-81931789D01*
X173446908Y-81796026D01*
X173151930Y-81598928D01*
X172901072Y-81348070D01*
X172703974Y-81053092D01*
X172568211Y-80725331D01*
X172499000Y-80377384D01*
X172499000Y-80022616D01*
X172568211Y-79674669D01*
X172703974Y-79346908D01*
X172901072Y-79051930D01*
X173151930Y-78801072D01*
X173446908Y-78603974D01*
X173774669Y-78468211D01*
X174122616Y-78399000D01*
X174477384Y-78399000D01*
X174825331Y-78468211D01*
X174825331Y-78468211D01*
G37*
G36*
X94825331Y-78468211D02*
G01*
X95153092Y-78603974D01*
X95448070Y-78801072D01*
X95698928Y-79051930D01*
X95896026Y-79346908D01*
X96031789Y-79674669D01*
X96101000Y-80022616D01*
X96101000Y-80377384D01*
X96031789Y-80725331D01*
X95896026Y-81053092D01*
X95698928Y-81348070D01*
X95448070Y-81598928D01*
X95153092Y-81796026D01*
X94825331Y-81931789D01*
X94477384Y-82001000D01*
X94122616Y-82001000D01*
X93774669Y-81931789D01*
X93446908Y-81796026D01*
X93151930Y-81598928D01*
X92901072Y-81348070D01*
X92703974Y-81053092D01*
X92568211Y-80725331D01*
X92499000Y-80377384D01*
X92499000Y-80022616D01*
X92568211Y-79674669D01*
X92703974Y-79346908D01*
X92901072Y-79051930D01*
X93151930Y-78801072D01*
X93446908Y-78603974D01*
X93774669Y-78468211D01*
X94122616Y-78399000D01*
X94477384Y-78399000D01*
X94825331Y-78468211D01*
X94825331Y-78468211D01*
G37*
G36*
X144960721Y-77870174D02*
G01*
X145060995Y-77911709D01*
X145060996Y-77911710D01*
X145151242Y-77972010D01*
X145227990Y-78048758D01*
X145227991Y-78048760D01*
X145288291Y-78139005D01*
X145329826Y-78239279D01*
X145351000Y-78345730D01*
X145351000Y-78454270D01*
X145329826Y-78560721D01*
X145288291Y-78660995D01*
X145288290Y-78660996D01*
X145227990Y-78751242D01*
X145151242Y-78827990D01*
X145138591Y-78836443D01*
X145060995Y-78888291D01*
X144960721Y-78929826D01*
X144854270Y-78951000D01*
X144745730Y-78951000D01*
X144639279Y-78929826D01*
X144539005Y-78888291D01*
X144461409Y-78836443D01*
X144448758Y-78827990D01*
X144372010Y-78751242D01*
X144311710Y-78660996D01*
X144311709Y-78660995D01*
X144270174Y-78560721D01*
X144249000Y-78454270D01*
X144249000Y-78345730D01*
X144270174Y-78239279D01*
X144311709Y-78139005D01*
X144372009Y-78048760D01*
X144372010Y-78048758D01*
X144448758Y-77972010D01*
X144539004Y-77911710D01*
X144539005Y-77911709D01*
X144639279Y-77870174D01*
X144745730Y-77849000D01*
X144854270Y-77849000D01*
X144960721Y-77870174D01*
X144960721Y-77870174D01*
G37*
G36*
X140560721Y-77870174D02*
G01*
X140660995Y-77911709D01*
X140660996Y-77911710D01*
X140751242Y-77972010D01*
X140827990Y-78048758D01*
X140827991Y-78048760D01*
X140888291Y-78139005D01*
X140929826Y-78239279D01*
X140951000Y-78345730D01*
X140951000Y-78454270D01*
X140929826Y-78560721D01*
X140888291Y-78660995D01*
X140888290Y-78660996D01*
X140827990Y-78751242D01*
X140751242Y-78827990D01*
X140738591Y-78836443D01*
X140660995Y-78888291D01*
X140560721Y-78929826D01*
X140454270Y-78951000D01*
X140345730Y-78951000D01*
X140239279Y-78929826D01*
X140139005Y-78888291D01*
X140061409Y-78836443D01*
X140048758Y-78827990D01*
X139972010Y-78751242D01*
X139911710Y-78660996D01*
X139911709Y-78660995D01*
X139870174Y-78560721D01*
X139849000Y-78454270D01*
X139849000Y-78345730D01*
X139870174Y-78239279D01*
X139911709Y-78139005D01*
X139972009Y-78048760D01*
X139972010Y-78048758D01*
X140048758Y-77972010D01*
X140139004Y-77911710D01*
X140139005Y-77911709D01*
X140239279Y-77870174D01*
X140345730Y-77849000D01*
X140454270Y-77849000D01*
X140560721Y-77870174D01*
X140560721Y-77870174D01*
G37*
G36*
X108322142Y-77313242D02*
G01*
X108470101Y-77374529D01*
X108603255Y-77463499D01*
X108716501Y-77576745D01*
X108805471Y-77709899D01*
X108866758Y-77857858D01*
X108898000Y-78014925D01*
X108898000Y-78175075D01*
X108866758Y-78332142D01*
X108805471Y-78480101D01*
X108716501Y-78613255D01*
X108603255Y-78726501D01*
X108470101Y-78815471D01*
X108322142Y-78876758D01*
X108165075Y-78908000D01*
X108004925Y-78908000D01*
X107847858Y-78876758D01*
X107699899Y-78815471D01*
X107566745Y-78726501D01*
X107453499Y-78613255D01*
X107364529Y-78480101D01*
X107303242Y-78332142D01*
X107272000Y-78175075D01*
X107272000Y-78014925D01*
X107303242Y-77857858D01*
X107364529Y-77709899D01*
X107453499Y-77576745D01*
X107566745Y-77463499D01*
X107699899Y-77374529D01*
X107847858Y-77313242D01*
X108004925Y-77282000D01*
X108165075Y-77282000D01*
X108322142Y-77313242D01*
X108322142Y-77313242D01*
G37*
G36*
X135101000Y-78901000D02*
G01*
X133299000Y-78901000D01*
X133299000Y-77099000D01*
X135101000Y-77099000D01*
X135101000Y-78901000D01*
X135101000Y-78901000D01*
G37*
G36*
X131770442Y-77105518D02*
G01*
X131836627Y-77112037D01*
X132006466Y-77163557D01*
X132162991Y-77247222D01*
X132198729Y-77276552D01*
X132300186Y-77359814D01*
X132383448Y-77461271D01*
X132412778Y-77497009D01*
X132496443Y-77653534D01*
X132547963Y-77823373D01*
X132565359Y-78000000D01*
X132547963Y-78176627D01*
X132496443Y-78346466D01*
X132412778Y-78502991D01*
X132383448Y-78538729D01*
X132300186Y-78640186D01*
X132198729Y-78723448D01*
X132162991Y-78752778D01*
X132162989Y-78752779D01*
X132022279Y-78827991D01*
X132006466Y-78836443D01*
X131836627Y-78887963D01*
X131770442Y-78894482D01*
X131704260Y-78901000D01*
X131615740Y-78901000D01*
X131549558Y-78894482D01*
X131483373Y-78887963D01*
X131313534Y-78836443D01*
X131297722Y-78827991D01*
X131157011Y-78752779D01*
X131157009Y-78752778D01*
X131121271Y-78723448D01*
X131019814Y-78640186D01*
X130936552Y-78538729D01*
X130907222Y-78502991D01*
X130823557Y-78346466D01*
X130772037Y-78176627D01*
X130754641Y-78000000D01*
X130772037Y-77823373D01*
X130823557Y-77653534D01*
X130907222Y-77497009D01*
X130936552Y-77461271D01*
X131019814Y-77359814D01*
X131121271Y-77276552D01*
X131157009Y-77247222D01*
X131313534Y-77163557D01*
X131483373Y-77112037D01*
X131549558Y-77105518D01*
X131615740Y-77099000D01*
X131704260Y-77099000D01*
X131770442Y-77105518D01*
X131770442Y-77105518D01*
G37*
G36*
X129230442Y-77105518D02*
G01*
X129296627Y-77112037D01*
X129466466Y-77163557D01*
X129622991Y-77247222D01*
X129658729Y-77276552D01*
X129760186Y-77359814D01*
X129843448Y-77461271D01*
X129872778Y-77497009D01*
X129956443Y-77653534D01*
X130007963Y-77823373D01*
X130025359Y-78000000D01*
X130007963Y-78176627D01*
X129956443Y-78346466D01*
X129872778Y-78502991D01*
X129843448Y-78538729D01*
X129760186Y-78640186D01*
X129658729Y-78723448D01*
X129622991Y-78752778D01*
X129622989Y-78752779D01*
X129482279Y-78827991D01*
X129466466Y-78836443D01*
X129296627Y-78887963D01*
X129230442Y-78894482D01*
X129164260Y-78901000D01*
X129075740Y-78901000D01*
X129009558Y-78894482D01*
X128943373Y-78887963D01*
X128773534Y-78836443D01*
X128757722Y-78827991D01*
X128617011Y-78752779D01*
X128617009Y-78752778D01*
X128581271Y-78723448D01*
X128479814Y-78640186D01*
X128396552Y-78538729D01*
X128367222Y-78502991D01*
X128283557Y-78346466D01*
X128232037Y-78176627D01*
X128214641Y-78000000D01*
X128232037Y-77823373D01*
X128283557Y-77653534D01*
X128367222Y-77497009D01*
X128396552Y-77461271D01*
X128479814Y-77359814D01*
X128581271Y-77276552D01*
X128617009Y-77247222D01*
X128773534Y-77163557D01*
X128943373Y-77112037D01*
X129009558Y-77105518D01*
X129075740Y-77099000D01*
X129164260Y-77099000D01*
X129230442Y-77105518D01*
X129230442Y-77105518D01*
G37*
G36*
X126690442Y-77105518D02*
G01*
X126756627Y-77112037D01*
X126926466Y-77163557D01*
X127082991Y-77247222D01*
X127118729Y-77276552D01*
X127220186Y-77359814D01*
X127303448Y-77461271D01*
X127332778Y-77497009D01*
X127416443Y-77653534D01*
X127467963Y-77823373D01*
X127485359Y-78000000D01*
X127467963Y-78176627D01*
X127416443Y-78346466D01*
X127332778Y-78502991D01*
X127303448Y-78538729D01*
X127220186Y-78640186D01*
X127118729Y-78723448D01*
X127082991Y-78752778D01*
X127082989Y-78752779D01*
X126942279Y-78827991D01*
X126926466Y-78836443D01*
X126756627Y-78887963D01*
X126690442Y-78894482D01*
X126624260Y-78901000D01*
X126535740Y-78901000D01*
X126469558Y-78894482D01*
X126403373Y-78887963D01*
X126233534Y-78836443D01*
X126217722Y-78827991D01*
X126077011Y-78752779D01*
X126077009Y-78752778D01*
X126041271Y-78723448D01*
X125939814Y-78640186D01*
X125856552Y-78538729D01*
X125827222Y-78502991D01*
X125743557Y-78346466D01*
X125692037Y-78176627D01*
X125674641Y-78000000D01*
X125692037Y-77823373D01*
X125743557Y-77653534D01*
X125827222Y-77497009D01*
X125856552Y-77461271D01*
X125939814Y-77359814D01*
X126041271Y-77276552D01*
X126077009Y-77247222D01*
X126233534Y-77163557D01*
X126403373Y-77112037D01*
X126469558Y-77105518D01*
X126535740Y-77099000D01*
X126624260Y-77099000D01*
X126690442Y-77105518D01*
X126690442Y-77105518D01*
G37*
G36*
X108322142Y-74773242D02*
G01*
X108470101Y-74834529D01*
X108603255Y-74923499D01*
X108716501Y-75036745D01*
X108805471Y-75169899D01*
X108866758Y-75317858D01*
X108898000Y-75474925D01*
X108898000Y-75635075D01*
X108866758Y-75792142D01*
X108805471Y-75940101D01*
X108716501Y-76073255D01*
X108603255Y-76186501D01*
X108470101Y-76275471D01*
X108322142Y-76336758D01*
X108165075Y-76368000D01*
X108004925Y-76368000D01*
X107847858Y-76336758D01*
X107699899Y-76275471D01*
X107566745Y-76186501D01*
X107453499Y-76073255D01*
X107364529Y-75940101D01*
X107303242Y-75792142D01*
X107272000Y-75635075D01*
X107272000Y-75474925D01*
X107303242Y-75317858D01*
X107364529Y-75169899D01*
X107453499Y-75036745D01*
X107566745Y-74923499D01*
X107699899Y-74834529D01*
X107847858Y-74773242D01*
X108004925Y-74742000D01*
X108165075Y-74742000D01*
X108322142Y-74773242D01*
X108322142Y-74773242D01*
G37*
G36*
X163722142Y-73503242D02*
G01*
X163870101Y-73564529D01*
X164003255Y-73653499D01*
X164116501Y-73766745D01*
X164205471Y-73899899D01*
X164266758Y-74047858D01*
X164298000Y-74204925D01*
X164298000Y-74365075D01*
X164266758Y-74522142D01*
X164205471Y-74670101D01*
X164116501Y-74803255D01*
X164003255Y-74916501D01*
X163870101Y-75005471D01*
X163722142Y-75066758D01*
X163565075Y-75098000D01*
X163404925Y-75098000D01*
X163247858Y-75066758D01*
X163099899Y-75005471D01*
X162966745Y-74916501D01*
X162853499Y-74803255D01*
X162764529Y-74670101D01*
X162703242Y-74522142D01*
X162672000Y-74365075D01*
X162672000Y-74204925D01*
X162703242Y-74047858D01*
X162764529Y-73899899D01*
X162853499Y-73766745D01*
X162966745Y-73653499D01*
X163099899Y-73564529D01*
X163247858Y-73503242D01*
X163404925Y-73472000D01*
X163565075Y-73472000D01*
X163722142Y-73503242D01*
X163722142Y-73503242D01*
G37*
G36*
X108322142Y-72233242D02*
G01*
X108470101Y-72294529D01*
X108603255Y-72383499D01*
X108716501Y-72496745D01*
X108805471Y-72629899D01*
X108866758Y-72777858D01*
X108898000Y-72934925D01*
X108898000Y-73095075D01*
X108866758Y-73252142D01*
X108805471Y-73400101D01*
X108716501Y-73533255D01*
X108603255Y-73646501D01*
X108470101Y-73735471D01*
X108322142Y-73796758D01*
X108165075Y-73828000D01*
X108004925Y-73828000D01*
X107847858Y-73796758D01*
X107699899Y-73735471D01*
X107566745Y-73646501D01*
X107453499Y-73533255D01*
X107364529Y-73400101D01*
X107303242Y-73252142D01*
X107272000Y-73095075D01*
X107272000Y-72934925D01*
X107303242Y-72777858D01*
X107364529Y-72629899D01*
X107453499Y-72496745D01*
X107566745Y-72383499D01*
X107699899Y-72294529D01*
X107847858Y-72233242D01*
X108004925Y-72202000D01*
X108165075Y-72202000D01*
X108322142Y-72233242D01*
X108322142Y-72233242D01*
G37*
G36*
X163722142Y-70963242D02*
G01*
X163870101Y-71024529D01*
X164003255Y-71113499D01*
X164116501Y-71226745D01*
X164205471Y-71359899D01*
X164266758Y-71507858D01*
X164298000Y-71664925D01*
X164298000Y-71825075D01*
X164266758Y-71982142D01*
X164205471Y-72130101D01*
X164116501Y-72263255D01*
X164003255Y-72376501D01*
X163870101Y-72465471D01*
X163722142Y-72526758D01*
X163565075Y-72558000D01*
X163404925Y-72558000D01*
X163247858Y-72526758D01*
X163099899Y-72465471D01*
X162966745Y-72376501D01*
X162853499Y-72263255D01*
X162764529Y-72130101D01*
X162703242Y-71982142D01*
X162672000Y-71825075D01*
X162672000Y-71664925D01*
X162703242Y-71507858D01*
X162764529Y-71359899D01*
X162853499Y-71226745D01*
X162966745Y-71113499D01*
X163099899Y-71024529D01*
X163247858Y-70963242D01*
X163404925Y-70932000D01*
X163565075Y-70932000D01*
X163722142Y-70963242D01*
X163722142Y-70963242D01*
G37*
G36*
X108322142Y-69693242D02*
G01*
X108470101Y-69754529D01*
X108603255Y-69843499D01*
X108716501Y-69956745D01*
X108805471Y-70089899D01*
X108866758Y-70237858D01*
X108898000Y-70394925D01*
X108898000Y-70555075D01*
X108866758Y-70712142D01*
X108805471Y-70860101D01*
X108716501Y-70993255D01*
X108603255Y-71106501D01*
X108470101Y-71195471D01*
X108322142Y-71256758D01*
X108165075Y-71288000D01*
X108004925Y-71288000D01*
X107847858Y-71256758D01*
X107699899Y-71195471D01*
X107566745Y-71106501D01*
X107453499Y-70993255D01*
X107364529Y-70860101D01*
X107303242Y-70712142D01*
X107272000Y-70555075D01*
X107272000Y-70394925D01*
X107303242Y-70237858D01*
X107364529Y-70089899D01*
X107453499Y-69956745D01*
X107566745Y-69843499D01*
X107699899Y-69754529D01*
X107847858Y-69693242D01*
X108004925Y-69662000D01*
X108165075Y-69662000D01*
X108322142Y-69693242D01*
X108322142Y-69693242D01*
G37*
G36*
X163722142Y-68423242D02*
G01*
X163870101Y-68484529D01*
X164003255Y-68573499D01*
X164116501Y-68686745D01*
X164205471Y-68819899D01*
X164266758Y-68967858D01*
X164298000Y-69124925D01*
X164298000Y-69285075D01*
X164266758Y-69442142D01*
X164205471Y-69590101D01*
X164116501Y-69723255D01*
X164003255Y-69836501D01*
X163870101Y-69925471D01*
X163722142Y-69986758D01*
X163565075Y-70018000D01*
X163404925Y-70018000D01*
X163247858Y-69986758D01*
X163099899Y-69925471D01*
X162966745Y-69836501D01*
X162853499Y-69723255D01*
X162764529Y-69590101D01*
X162703242Y-69442142D01*
X162672000Y-69285075D01*
X162672000Y-69124925D01*
X162703242Y-68967858D01*
X162764529Y-68819899D01*
X162853499Y-68686745D01*
X162966745Y-68573499D01*
X163099899Y-68484529D01*
X163247858Y-68423242D01*
X163404925Y-68392000D01*
X163565075Y-68392000D01*
X163722142Y-68423242D01*
X163722142Y-68423242D01*
G37*
G36*
X108322142Y-67153242D02*
G01*
X108470101Y-67214529D01*
X108603255Y-67303499D01*
X108716501Y-67416745D01*
X108805471Y-67549899D01*
X108866758Y-67697858D01*
X108898000Y-67854925D01*
X108898000Y-68015075D01*
X108866758Y-68172142D01*
X108805471Y-68320101D01*
X108716501Y-68453255D01*
X108603255Y-68566501D01*
X108470101Y-68655471D01*
X108322142Y-68716758D01*
X108165075Y-68748000D01*
X108004925Y-68748000D01*
X107847858Y-68716758D01*
X107699899Y-68655471D01*
X107566745Y-68566501D01*
X107453499Y-68453255D01*
X107364529Y-68320101D01*
X107303242Y-68172142D01*
X107272000Y-68015075D01*
X107272000Y-67854925D01*
X107303242Y-67697858D01*
X107364529Y-67549899D01*
X107453499Y-67416745D01*
X107566745Y-67303499D01*
X107699899Y-67214529D01*
X107847858Y-67153242D01*
X108004925Y-67122000D01*
X108165075Y-67122000D01*
X108322142Y-67153242D01*
X108322142Y-67153242D01*
G37*
G36*
X108322142Y-64613242D02*
G01*
X108470101Y-64674529D01*
X108603255Y-64763499D01*
X108716501Y-64876745D01*
X108805471Y-65009899D01*
X108866758Y-65157858D01*
X108898000Y-65314925D01*
X108898000Y-65475075D01*
X108866758Y-65632142D01*
X108805471Y-65780101D01*
X108716501Y-65913255D01*
X108603255Y-66026501D01*
X108470101Y-66115471D01*
X108322142Y-66176758D01*
X108165075Y-66208000D01*
X108004925Y-66208000D01*
X107847858Y-66176758D01*
X107699899Y-66115471D01*
X107566745Y-66026501D01*
X107453499Y-65913255D01*
X107364529Y-65780101D01*
X107303242Y-65632142D01*
X107272000Y-65475075D01*
X107272000Y-65314925D01*
X107303242Y-65157858D01*
X107364529Y-65009899D01*
X107453499Y-64876745D01*
X107566745Y-64763499D01*
X107699899Y-64674529D01*
X107847858Y-64613242D01*
X108004925Y-64582000D01*
X108165075Y-64582000D01*
X108322142Y-64613242D01*
X108322142Y-64613242D01*
G37*
G36*
X163722142Y-63343242D02*
G01*
X163870101Y-63404529D01*
X164003255Y-63493499D01*
X164116501Y-63606745D01*
X164205471Y-63739899D01*
X164266758Y-63887858D01*
X164298000Y-64044925D01*
X164298000Y-64205075D01*
X164266758Y-64362142D01*
X164205471Y-64510101D01*
X164116501Y-64643255D01*
X164003255Y-64756501D01*
X163870101Y-64845471D01*
X163722142Y-64906758D01*
X163565075Y-64938000D01*
X163404925Y-64938000D01*
X163247858Y-64906758D01*
X163099899Y-64845471D01*
X162966745Y-64756501D01*
X162853499Y-64643255D01*
X162764529Y-64510101D01*
X162703242Y-64362142D01*
X162672000Y-64205075D01*
X162672000Y-64044925D01*
X162703242Y-63887858D01*
X162764529Y-63739899D01*
X162853499Y-63606745D01*
X162966745Y-63493499D01*
X163099899Y-63404529D01*
X163247858Y-63343242D01*
X163404925Y-63312000D01*
X163565075Y-63312000D01*
X163722142Y-63343242D01*
X163722142Y-63343242D01*
G37*
G36*
X174485589Y-63328876D02*
G01*
X174584893Y-63348629D01*
X174725206Y-63406748D01*
X174851484Y-63491125D01*
X174958875Y-63598516D01*
X175043252Y-63724794D01*
X175101371Y-63865107D01*
X175131000Y-64014063D01*
X175131000Y-64165937D01*
X175101371Y-64314893D01*
X175043252Y-64455206D01*
X174958875Y-64581484D01*
X174851484Y-64688875D01*
X174725206Y-64773252D01*
X174584893Y-64831371D01*
X174485589Y-64851124D01*
X174435938Y-64861000D01*
X174284062Y-64861000D01*
X174234411Y-64851124D01*
X174135107Y-64831371D01*
X173994794Y-64773252D01*
X173868516Y-64688875D01*
X173761125Y-64581484D01*
X173676748Y-64455206D01*
X173618629Y-64314893D01*
X173589000Y-64165937D01*
X173589000Y-64014063D01*
X173618629Y-63865107D01*
X173676748Y-63724794D01*
X173761125Y-63598516D01*
X173868516Y-63491125D01*
X173994794Y-63406748D01*
X174135107Y-63348629D01*
X174234411Y-63328876D01*
X174284062Y-63319000D01*
X174435938Y-63319000D01*
X174485589Y-63328876D01*
X174485589Y-63328876D01*
G37*
G36*
X108322142Y-62073242D02*
G01*
X108470101Y-62134529D01*
X108603255Y-62223499D01*
X108716501Y-62336745D01*
X108805471Y-62469899D01*
X108866758Y-62617858D01*
X108898000Y-62774925D01*
X108898000Y-62935075D01*
X108866758Y-63092142D01*
X108805471Y-63240101D01*
X108716501Y-63373255D01*
X108603255Y-63486501D01*
X108470101Y-63575471D01*
X108322142Y-63636758D01*
X108165075Y-63668000D01*
X108004925Y-63668000D01*
X107847858Y-63636758D01*
X107699899Y-63575471D01*
X107566745Y-63486501D01*
X107453499Y-63373255D01*
X107364529Y-63240101D01*
X107303242Y-63092142D01*
X107272000Y-62935075D01*
X107272000Y-62774925D01*
X107303242Y-62617858D01*
X107364529Y-62469899D01*
X107453499Y-62336745D01*
X107566745Y-62223499D01*
X107699899Y-62134529D01*
X107847858Y-62073242D01*
X108004925Y-62042000D01*
X108165075Y-62042000D01*
X108322142Y-62073242D01*
X108322142Y-62073242D01*
G37*
G36*
X163722142Y-60803242D02*
G01*
X163870101Y-60864529D01*
X164003255Y-60953499D01*
X164116501Y-61066745D01*
X164205471Y-61199899D01*
X164266758Y-61347858D01*
X164298000Y-61504925D01*
X164298000Y-61665075D01*
X164266758Y-61822142D01*
X164205471Y-61970101D01*
X164116501Y-62103255D01*
X164003255Y-62216501D01*
X163870101Y-62305471D01*
X163722142Y-62366758D01*
X163565075Y-62398000D01*
X163404925Y-62398000D01*
X163247858Y-62366758D01*
X163099899Y-62305471D01*
X162966745Y-62216501D01*
X162853499Y-62103255D01*
X162764529Y-61970101D01*
X162703242Y-61822142D01*
X162672000Y-61665075D01*
X162672000Y-61504925D01*
X162703242Y-61347858D01*
X162764529Y-61199899D01*
X162853499Y-61066745D01*
X162966745Y-60953499D01*
X163099899Y-60864529D01*
X163247858Y-60803242D01*
X163404925Y-60772000D01*
X163565075Y-60772000D01*
X163722142Y-60803242D01*
X163722142Y-60803242D01*
G37*
G36*
X177025589Y-60788876D02*
G01*
X177124893Y-60808629D01*
X177265206Y-60866748D01*
X177391484Y-60951125D01*
X177498875Y-61058516D01*
X177583252Y-61184794D01*
X177641371Y-61325107D01*
X177671000Y-61474063D01*
X177671000Y-61625937D01*
X177641371Y-61774893D01*
X177583252Y-61915206D01*
X177498875Y-62041484D01*
X177391484Y-62148875D01*
X177265206Y-62233252D01*
X177124893Y-62291371D01*
X177025589Y-62311124D01*
X176975938Y-62321000D01*
X176824062Y-62321000D01*
X176774411Y-62311124D01*
X176675107Y-62291371D01*
X176534794Y-62233252D01*
X176408516Y-62148875D01*
X176301125Y-62041484D01*
X176216748Y-61915206D01*
X176158629Y-61774893D01*
X176129000Y-61625937D01*
X176129000Y-61474063D01*
X176158629Y-61325107D01*
X176216748Y-61184794D01*
X176301125Y-61058516D01*
X176408516Y-60951125D01*
X176534794Y-60866748D01*
X176675107Y-60808629D01*
X176774411Y-60788876D01*
X176824062Y-60779000D01*
X176975938Y-60779000D01*
X177025589Y-60788876D01*
X177025589Y-60788876D01*
G37*
G36*
X108322142Y-59533242D02*
G01*
X108470101Y-59594529D01*
X108603255Y-59683499D01*
X108716501Y-59796745D01*
X108805471Y-59929899D01*
X108866758Y-60077858D01*
X108898000Y-60234925D01*
X108898000Y-60395075D01*
X108866758Y-60552142D01*
X108805471Y-60700101D01*
X108716501Y-60833255D01*
X108603255Y-60946501D01*
X108470101Y-61035471D01*
X108322142Y-61096758D01*
X108165075Y-61128000D01*
X108004925Y-61128000D01*
X107847858Y-61096758D01*
X107699899Y-61035471D01*
X107566745Y-60946501D01*
X107453499Y-60833255D01*
X107364529Y-60700101D01*
X107303242Y-60552142D01*
X107272000Y-60395075D01*
X107272000Y-60234925D01*
X107303242Y-60077858D01*
X107364529Y-59929899D01*
X107453499Y-59796745D01*
X107566745Y-59683499D01*
X107699899Y-59594529D01*
X107847858Y-59533242D01*
X108004925Y-59502000D01*
X108165075Y-59502000D01*
X108322142Y-59533242D01*
X108322142Y-59533242D01*
G37*
G36*
X163722142Y-58263242D02*
G01*
X163870101Y-58324529D01*
X164003255Y-58413499D01*
X164116501Y-58526745D01*
X164205471Y-58659899D01*
X164266758Y-58807858D01*
X164298000Y-58964925D01*
X164298000Y-59125075D01*
X164266758Y-59282142D01*
X164205471Y-59430101D01*
X164116501Y-59563255D01*
X164003255Y-59676501D01*
X163870101Y-59765471D01*
X163722142Y-59826758D01*
X163565075Y-59858000D01*
X163404925Y-59858000D01*
X163247858Y-59826758D01*
X163099899Y-59765471D01*
X162966745Y-59676501D01*
X162853499Y-59563255D01*
X162764529Y-59430101D01*
X162703242Y-59282142D01*
X162672000Y-59125075D01*
X162672000Y-58964925D01*
X162703242Y-58807858D01*
X162764529Y-58659899D01*
X162853499Y-58526745D01*
X162966745Y-58413499D01*
X163099899Y-58324529D01*
X163247858Y-58263242D01*
X163404925Y-58232000D01*
X163565075Y-58232000D01*
X163722142Y-58263242D01*
X163722142Y-58263242D01*
G37*
G36*
X174485589Y-58248876D02*
G01*
X174584893Y-58268629D01*
X174725206Y-58326748D01*
X174851484Y-58411125D01*
X174958875Y-58518516D01*
X175043252Y-58644794D01*
X175101371Y-58785107D01*
X175131000Y-58934063D01*
X175131000Y-59085937D01*
X175101371Y-59234893D01*
X175043252Y-59375206D01*
X174958875Y-59501484D01*
X174851484Y-59608875D01*
X174725206Y-59693252D01*
X174584893Y-59751371D01*
X174485589Y-59771124D01*
X174435938Y-59781000D01*
X174284062Y-59781000D01*
X174234411Y-59771124D01*
X174135107Y-59751371D01*
X173994794Y-59693252D01*
X173868516Y-59608875D01*
X173761125Y-59501484D01*
X173676748Y-59375206D01*
X173618629Y-59234893D01*
X173589000Y-59085937D01*
X173589000Y-58934063D01*
X173618629Y-58785107D01*
X173676748Y-58644794D01*
X173761125Y-58518516D01*
X173868516Y-58411125D01*
X173994794Y-58326748D01*
X174135107Y-58268629D01*
X174234411Y-58248876D01*
X174284062Y-58239000D01*
X174435938Y-58239000D01*
X174485589Y-58248876D01*
X174485589Y-58248876D01*
G37*
G36*
X108322142Y-56993242D02*
G01*
X108470101Y-57054529D01*
X108603255Y-57143499D01*
X108716501Y-57256745D01*
X108805471Y-57389899D01*
X108866758Y-57537858D01*
X108898000Y-57694925D01*
X108898000Y-57855075D01*
X108866758Y-58012142D01*
X108805471Y-58160101D01*
X108716501Y-58293255D01*
X108603255Y-58406501D01*
X108470101Y-58495471D01*
X108322142Y-58556758D01*
X108165075Y-58588000D01*
X108004925Y-58588000D01*
X107847858Y-58556758D01*
X107699899Y-58495471D01*
X107566745Y-58406501D01*
X107453499Y-58293255D01*
X107364529Y-58160101D01*
X107303242Y-58012142D01*
X107272000Y-57855075D01*
X107272000Y-57694925D01*
X107303242Y-57537858D01*
X107364529Y-57389899D01*
X107453499Y-57256745D01*
X107566745Y-57143499D01*
X107699899Y-57054529D01*
X107847858Y-56993242D01*
X108004925Y-56962000D01*
X108165075Y-56962000D01*
X108322142Y-56993242D01*
X108322142Y-56993242D01*
G37*
G36*
X108322142Y-54453242D02*
G01*
X108470101Y-54514529D01*
X108603255Y-54603499D01*
X108716501Y-54716745D01*
X108805471Y-54849899D01*
X108866758Y-54997858D01*
X108898000Y-55154925D01*
X108898000Y-55315075D01*
X108866758Y-55472142D01*
X108805471Y-55620101D01*
X108716501Y-55753255D01*
X108603255Y-55866501D01*
X108470101Y-55955471D01*
X108322142Y-56016758D01*
X108165075Y-56048000D01*
X108004925Y-56048000D01*
X107847858Y-56016758D01*
X107699899Y-55955471D01*
X107566745Y-55866501D01*
X107453499Y-55753255D01*
X107364529Y-55620101D01*
X107303242Y-55472142D01*
X107272000Y-55315075D01*
X107272000Y-55154925D01*
X107303242Y-54997858D01*
X107364529Y-54849899D01*
X107453499Y-54716745D01*
X107566745Y-54603499D01*
X107699899Y-54514529D01*
X107847858Y-54453242D01*
X108004925Y-54422000D01*
X108165075Y-54422000D01*
X108322142Y-54453242D01*
X108322142Y-54453242D01*
G37*
G36*
X174825331Y-51468211D02*
G01*
X175153092Y-51603974D01*
X175448070Y-51801072D01*
X175698928Y-52051930D01*
X175896026Y-52346908D01*
X176031789Y-52674669D01*
X176101000Y-53022616D01*
X176101000Y-53377384D01*
X176031789Y-53725331D01*
X175896026Y-54053092D01*
X175698928Y-54348070D01*
X175448070Y-54598928D01*
X175153092Y-54796026D01*
X174825331Y-54931789D01*
X174477384Y-55001000D01*
X174122616Y-55001000D01*
X173774669Y-54931789D01*
X173446908Y-54796026D01*
X173151930Y-54598928D01*
X172901072Y-54348070D01*
X172703974Y-54053092D01*
X172568211Y-53725331D01*
X172499000Y-53377384D01*
X172499000Y-53022616D01*
X172568211Y-52674669D01*
X172703974Y-52346908D01*
X172901072Y-52051930D01*
X173151930Y-51801072D01*
X173446908Y-51603974D01*
X173774669Y-51468211D01*
X174122616Y-51399000D01*
X174477384Y-51399000D01*
X174825331Y-51468211D01*
X174825331Y-51468211D01*
G37*
G36*
X94825331Y-51468211D02*
G01*
X95153092Y-51603974D01*
X95448070Y-51801072D01*
X95698928Y-52051930D01*
X95896026Y-52346908D01*
X96031789Y-52674669D01*
X96101000Y-53022616D01*
X96101000Y-53377384D01*
X96031789Y-53725331D01*
X95896026Y-54053092D01*
X95698928Y-54348070D01*
X95448070Y-54598928D01*
X95153092Y-54796026D01*
X94825331Y-54931789D01*
X94477384Y-55001000D01*
X94122616Y-55001000D01*
X93774669Y-54931789D01*
X93446908Y-54796026D01*
X93151930Y-54598928D01*
X92901072Y-54348070D01*
X92703974Y-54053092D01*
X92568211Y-53725331D01*
X92499000Y-53377384D01*
X92499000Y-53022616D01*
X92568211Y-52674669D01*
X92703974Y-52346908D01*
X92901072Y-52051930D01*
X93151930Y-51801072D01*
X93446908Y-51603974D01*
X93774669Y-51468211D01*
X94122616Y-51399000D01*
X94477384Y-51399000D01*
X94825331Y-51468211D01*
X94825331Y-51468211D01*
G37*
G36*
X114224549Y-51571116D02*
G01*
X114335734Y-51593232D01*
X114545203Y-51679997D01*
X114733720Y-51805960D01*
X114894040Y-51966280D01*
X115020003Y-52154797D01*
X115099578Y-52346907D01*
X115106768Y-52364267D01*
X115141404Y-52538393D01*
X115148517Y-52561842D01*
X115160068Y-52583453D01*
X115175613Y-52602395D01*
X115194555Y-52617940D01*
X115216166Y-52629491D01*
X115239615Y-52636604D01*
X115264001Y-52639006D01*
X115288387Y-52636604D01*
X115311836Y-52629491D01*
X115333447Y-52617940D01*
X115352389Y-52602395D01*
X115367934Y-52583453D01*
X115379485Y-52561842D01*
X115386598Y-52538393D01*
X115389000Y-52514007D01*
X115389000Y-51549000D01*
X117691000Y-51549000D01*
X117691000Y-53851000D01*
X115389000Y-53851000D01*
X115389000Y-52885993D01*
X115386598Y-52861607D01*
X115379485Y-52838158D01*
X115367934Y-52816547D01*
X115352389Y-52797605D01*
X115333447Y-52782060D01*
X115311836Y-52770509D01*
X115288387Y-52763396D01*
X115264001Y-52760994D01*
X115239615Y-52763396D01*
X115216166Y-52770509D01*
X115194555Y-52782060D01*
X115175613Y-52797605D01*
X115160068Y-52816547D01*
X115148517Y-52838158D01*
X115141404Y-52861607D01*
X115106768Y-53035734D01*
X115020003Y-53245203D01*
X114894040Y-53433720D01*
X114733720Y-53594040D01*
X114545203Y-53720003D01*
X114335734Y-53806768D01*
X114224549Y-53828884D01*
X114113365Y-53851000D01*
X113886635Y-53851000D01*
X113775451Y-53828884D01*
X113664266Y-53806768D01*
X113454797Y-53720003D01*
X113266280Y-53594040D01*
X113105960Y-53433720D01*
X112979997Y-53245203D01*
X112893232Y-53035734D01*
X112849000Y-52813364D01*
X112849000Y-52586636D01*
X112893232Y-52364266D01*
X112979997Y-52154797D01*
X113105960Y-51966280D01*
X113266280Y-51805960D01*
X113454797Y-51679997D01*
X113664266Y-51593232D01*
X113775451Y-51571116D01*
X113886635Y-51549000D01*
X114113365Y-51549000D01*
X114224549Y-51571116D01*
X114224549Y-51571116D01*
G37*
G36*
X157024549Y-51571116D02*
G01*
X157135734Y-51593232D01*
X157345203Y-51679997D01*
X157533720Y-51805960D01*
X157694040Y-51966280D01*
X157820003Y-52154797D01*
X157899578Y-52346907D01*
X157906768Y-52364267D01*
X157941404Y-52538393D01*
X157948517Y-52561842D01*
X157960068Y-52583453D01*
X157975613Y-52602395D01*
X157994555Y-52617940D01*
X158016166Y-52629491D01*
X158039615Y-52636604D01*
X158064001Y-52639006D01*
X158088387Y-52636604D01*
X158111836Y-52629491D01*
X158133447Y-52617940D01*
X158152389Y-52602395D01*
X158167934Y-52583453D01*
X158179485Y-52561842D01*
X158186598Y-52538393D01*
X158189000Y-52514007D01*
X158189000Y-51549000D01*
X160491000Y-51549000D01*
X160491000Y-53851000D01*
X158189000Y-53851000D01*
X158189000Y-52885993D01*
X158186598Y-52861607D01*
X158179485Y-52838158D01*
X158167934Y-52816547D01*
X158152389Y-52797605D01*
X158133447Y-52782060D01*
X158111836Y-52770509D01*
X158088387Y-52763396D01*
X158064001Y-52760994D01*
X158039615Y-52763396D01*
X158016166Y-52770509D01*
X157994555Y-52782060D01*
X157975613Y-52797605D01*
X157960068Y-52816547D01*
X157948517Y-52838158D01*
X157941404Y-52861607D01*
X157906768Y-53035734D01*
X157820003Y-53245203D01*
X157694040Y-53433720D01*
X157533720Y-53594040D01*
X157345203Y-53720003D01*
X157135734Y-53806768D01*
X157024549Y-53828884D01*
X156913365Y-53851000D01*
X156686635Y-53851000D01*
X156575451Y-53828884D01*
X156464266Y-53806768D01*
X156254797Y-53720003D01*
X156066280Y-53594040D01*
X155905960Y-53433720D01*
X155779997Y-53245203D01*
X155693232Y-53035734D01*
X155649000Y-52813364D01*
X155649000Y-52586636D01*
X155693232Y-52364266D01*
X155779997Y-52154797D01*
X155905960Y-51966280D01*
X156066280Y-51805960D01*
X156254797Y-51679997D01*
X156464266Y-51593232D01*
X156575451Y-51571116D01*
X156686635Y-51549000D01*
X156913365Y-51549000D01*
X157024549Y-51571116D01*
X157024549Y-51571116D01*
G37*
G36*
X159476601Y-49574397D02*
G01*
X159515305Y-49582096D01*
X159547340Y-49595365D01*
X159624680Y-49627400D01*
X159723115Y-49693173D01*
X159806827Y-49776885D01*
X159872600Y-49875320D01*
X159917904Y-49984696D01*
X159941000Y-50100805D01*
X159941000Y-50219195D01*
X159917904Y-50335304D01*
X159872600Y-50444680D01*
X159806827Y-50543115D01*
X159723115Y-50626827D01*
X159624680Y-50692600D01*
X159547340Y-50724635D01*
X159515305Y-50737904D01*
X159476601Y-50745603D01*
X159399195Y-50761000D01*
X159280805Y-50761000D01*
X159203399Y-50745603D01*
X159164695Y-50737904D01*
X159132660Y-50724635D01*
X159055320Y-50692600D01*
X158956885Y-50626827D01*
X158873173Y-50543115D01*
X158807400Y-50444680D01*
X158762096Y-50335304D01*
X158739000Y-50219195D01*
X158739000Y-50100805D01*
X158762096Y-49984696D01*
X158807400Y-49875320D01*
X158873173Y-49776885D01*
X158956885Y-49693173D01*
X159055320Y-49627400D01*
X159132660Y-49595365D01*
X159164695Y-49582096D01*
X159203399Y-49574397D01*
X159280805Y-49559000D01*
X159399195Y-49559000D01*
X159476601Y-49574397D01*
X159476601Y-49574397D01*
G37*
G36*
X156936601Y-49574397D02*
G01*
X156975305Y-49582096D01*
X157007340Y-49595365D01*
X157084680Y-49627400D01*
X157183115Y-49693173D01*
X157266827Y-49776885D01*
X157332600Y-49875320D01*
X157377904Y-49984696D01*
X157401000Y-50100805D01*
X157401000Y-50219195D01*
X157377904Y-50335304D01*
X157332600Y-50444680D01*
X157266827Y-50543115D01*
X157183115Y-50626827D01*
X157084680Y-50692600D01*
X157007340Y-50724635D01*
X156975305Y-50737904D01*
X156936601Y-50745603D01*
X156859195Y-50761000D01*
X156740805Y-50761000D01*
X156663399Y-50745603D01*
X156624695Y-50737904D01*
X156592660Y-50724635D01*
X156515320Y-50692600D01*
X156416885Y-50626827D01*
X156333173Y-50543115D01*
X156267400Y-50444680D01*
X156222096Y-50335304D01*
X156199000Y-50219195D01*
X156199000Y-50100805D01*
X156222096Y-49984696D01*
X156267400Y-49875320D01*
X156333173Y-49776885D01*
X156416885Y-49693173D01*
X156515320Y-49627400D01*
X156592660Y-49595365D01*
X156624695Y-49582096D01*
X156663399Y-49574397D01*
X156740805Y-49559000D01*
X156859195Y-49559000D01*
X156936601Y-49574397D01*
X156936601Y-49574397D01*
G37*
G36*
X116676601Y-49574397D02*
G01*
X116715305Y-49582096D01*
X116747340Y-49595365D01*
X116824680Y-49627400D01*
X116923115Y-49693173D01*
X117006827Y-49776885D01*
X117072600Y-49875320D01*
X117117904Y-49984696D01*
X117141000Y-50100805D01*
X117141000Y-50219195D01*
X117117904Y-50335304D01*
X117072600Y-50444680D01*
X117006827Y-50543115D01*
X116923115Y-50626827D01*
X116824680Y-50692600D01*
X116747340Y-50724635D01*
X116715305Y-50737904D01*
X116676601Y-50745603D01*
X116599195Y-50761000D01*
X116480805Y-50761000D01*
X116403399Y-50745603D01*
X116364695Y-50737904D01*
X116332660Y-50724635D01*
X116255320Y-50692600D01*
X116156885Y-50626827D01*
X116073173Y-50543115D01*
X116007400Y-50444680D01*
X115962096Y-50335304D01*
X115939000Y-50219195D01*
X115939000Y-50100805D01*
X115962096Y-49984696D01*
X116007400Y-49875320D01*
X116073173Y-49776885D01*
X116156885Y-49693173D01*
X116255320Y-49627400D01*
X116332660Y-49595365D01*
X116364695Y-49582096D01*
X116403399Y-49574397D01*
X116480805Y-49559000D01*
X116599195Y-49559000D01*
X116676601Y-49574397D01*
X116676601Y-49574397D01*
G37*
G36*
X114136601Y-49574397D02*
G01*
X114175305Y-49582096D01*
X114207340Y-49595365D01*
X114284680Y-49627400D01*
X114383115Y-49693173D01*
X114466827Y-49776885D01*
X114532600Y-49875320D01*
X114577904Y-49984696D01*
X114601000Y-50100805D01*
X114601000Y-50219195D01*
X114577904Y-50335304D01*
X114532600Y-50444680D01*
X114466827Y-50543115D01*
X114383115Y-50626827D01*
X114284680Y-50692600D01*
X114207340Y-50724635D01*
X114175305Y-50737904D01*
X114136601Y-50745603D01*
X114059195Y-50761000D01*
X113940805Y-50761000D01*
X113863399Y-50745603D01*
X113824695Y-50737904D01*
X113792660Y-50724635D01*
X113715320Y-50692600D01*
X113616885Y-50626827D01*
X113533173Y-50543115D01*
X113467400Y-50444680D01*
X113422096Y-50335304D01*
X113399000Y-50219195D01*
X113399000Y-50100805D01*
X113422096Y-49984696D01*
X113467400Y-49875320D01*
X113533173Y-49776885D01*
X113616885Y-49693173D01*
X113715320Y-49627400D01*
X113792660Y-49595365D01*
X113824695Y-49582096D01*
X113863399Y-49574397D01*
X113940805Y-49559000D01*
X114059195Y-49559000D01*
X114136601Y-49574397D01*
X114136601Y-49574397D01*
G37*
M02*
