G04 #@! TF.GenerationSoftware,KiCad,Pcbnew,(5.1.0)-1*
G04 #@! TF.CreationDate,2021-04-12T00:50:47+02:00*
G04 #@! TF.ProjectId,Drehzahlmesser,44726568-7a61-4686-9c6d-65737365722e,rev?*
G04 #@! TF.SameCoordinates,Original*
G04 #@! TF.FileFunction,Paste,Top*
G04 #@! TF.FilePolarity,Positive*
%FSLAX46Y46*%
G04 Gerber Fmt 4.6, Leading zero omitted, Abs format (unit mm)*
G04 Created by KiCad (PCBNEW (5.1.0)-1) date 2021-04-12 00:50:47*
%MOMM*%
%LPD*%
G04 APERTURE LIST*
%ADD10C,0.100000*%
%ADD11C,0.875000*%
%ADD12R,1.800000X1.000000*%
%ADD13R,1.060000X0.650000*%
%ADD14R,1.550000X0.600000*%
%ADD15R,0.900000X0.800000*%
%ADD16C,0.500000*%
%ADD17R,1.300000X1.550000*%
%ADD18R,2.000000X1.700000*%
%ADD19R,0.500000X2.000000*%
%ADD20C,1.900000*%
%ADD21R,3.300000X3.500000*%
G04 APERTURE END LIST*
D10*
G36*
X124777691Y-74451053D02*
G01*
X124798926Y-74454203D01*
X124819750Y-74459419D01*
X124839962Y-74466651D01*
X124859368Y-74475830D01*
X124877781Y-74486866D01*
X124895024Y-74499654D01*
X124910930Y-74514070D01*
X124925346Y-74529976D01*
X124938134Y-74547219D01*
X124949170Y-74565632D01*
X124958349Y-74585038D01*
X124965581Y-74605250D01*
X124970797Y-74626074D01*
X124973947Y-74647309D01*
X124975000Y-74668750D01*
X124975000Y-75106250D01*
X124973947Y-75127691D01*
X124970797Y-75148926D01*
X124965581Y-75169750D01*
X124958349Y-75189962D01*
X124949170Y-75209368D01*
X124938134Y-75227781D01*
X124925346Y-75245024D01*
X124910930Y-75260930D01*
X124895024Y-75275346D01*
X124877781Y-75288134D01*
X124859368Y-75299170D01*
X124839962Y-75308349D01*
X124819750Y-75315581D01*
X124798926Y-75320797D01*
X124777691Y-75323947D01*
X124756250Y-75325000D01*
X124243750Y-75325000D01*
X124222309Y-75323947D01*
X124201074Y-75320797D01*
X124180250Y-75315581D01*
X124160038Y-75308349D01*
X124140632Y-75299170D01*
X124122219Y-75288134D01*
X124104976Y-75275346D01*
X124089070Y-75260930D01*
X124074654Y-75245024D01*
X124061866Y-75227781D01*
X124050830Y-75209368D01*
X124041651Y-75189962D01*
X124034419Y-75169750D01*
X124029203Y-75148926D01*
X124026053Y-75127691D01*
X124025000Y-75106250D01*
X124025000Y-74668750D01*
X124026053Y-74647309D01*
X124029203Y-74626074D01*
X124034419Y-74605250D01*
X124041651Y-74585038D01*
X124050830Y-74565632D01*
X124061866Y-74547219D01*
X124074654Y-74529976D01*
X124089070Y-74514070D01*
X124104976Y-74499654D01*
X124122219Y-74486866D01*
X124140632Y-74475830D01*
X124160038Y-74466651D01*
X124180250Y-74459419D01*
X124201074Y-74454203D01*
X124222309Y-74451053D01*
X124243750Y-74450000D01*
X124756250Y-74450000D01*
X124777691Y-74451053D01*
X124777691Y-74451053D01*
G37*
D11*
X124500000Y-74887500D03*
D10*
G36*
X124777691Y-72876053D02*
G01*
X124798926Y-72879203D01*
X124819750Y-72884419D01*
X124839962Y-72891651D01*
X124859368Y-72900830D01*
X124877781Y-72911866D01*
X124895024Y-72924654D01*
X124910930Y-72939070D01*
X124925346Y-72954976D01*
X124938134Y-72972219D01*
X124949170Y-72990632D01*
X124958349Y-73010038D01*
X124965581Y-73030250D01*
X124970797Y-73051074D01*
X124973947Y-73072309D01*
X124975000Y-73093750D01*
X124975000Y-73531250D01*
X124973947Y-73552691D01*
X124970797Y-73573926D01*
X124965581Y-73594750D01*
X124958349Y-73614962D01*
X124949170Y-73634368D01*
X124938134Y-73652781D01*
X124925346Y-73670024D01*
X124910930Y-73685930D01*
X124895024Y-73700346D01*
X124877781Y-73713134D01*
X124859368Y-73724170D01*
X124839962Y-73733349D01*
X124819750Y-73740581D01*
X124798926Y-73745797D01*
X124777691Y-73748947D01*
X124756250Y-73750000D01*
X124243750Y-73750000D01*
X124222309Y-73748947D01*
X124201074Y-73745797D01*
X124180250Y-73740581D01*
X124160038Y-73733349D01*
X124140632Y-73724170D01*
X124122219Y-73713134D01*
X124104976Y-73700346D01*
X124089070Y-73685930D01*
X124074654Y-73670024D01*
X124061866Y-73652781D01*
X124050830Y-73634368D01*
X124041651Y-73614962D01*
X124034419Y-73594750D01*
X124029203Y-73573926D01*
X124026053Y-73552691D01*
X124025000Y-73531250D01*
X124025000Y-73093750D01*
X124026053Y-73072309D01*
X124029203Y-73051074D01*
X124034419Y-73030250D01*
X124041651Y-73010038D01*
X124050830Y-72990632D01*
X124061866Y-72972219D01*
X124074654Y-72954976D01*
X124089070Y-72939070D01*
X124104976Y-72924654D01*
X124122219Y-72911866D01*
X124140632Y-72900830D01*
X124160038Y-72891651D01*
X124180250Y-72884419D01*
X124201074Y-72879203D01*
X124222309Y-72876053D01*
X124243750Y-72875000D01*
X124756250Y-72875000D01*
X124777691Y-72876053D01*
X124777691Y-72876053D01*
G37*
D11*
X124500000Y-73312500D03*
D10*
G36*
X126877691Y-72876053D02*
G01*
X126898926Y-72879203D01*
X126919750Y-72884419D01*
X126939962Y-72891651D01*
X126959368Y-72900830D01*
X126977781Y-72911866D01*
X126995024Y-72924654D01*
X127010930Y-72939070D01*
X127025346Y-72954976D01*
X127038134Y-72972219D01*
X127049170Y-72990632D01*
X127058349Y-73010038D01*
X127065581Y-73030250D01*
X127070797Y-73051074D01*
X127073947Y-73072309D01*
X127075000Y-73093750D01*
X127075000Y-73531250D01*
X127073947Y-73552691D01*
X127070797Y-73573926D01*
X127065581Y-73594750D01*
X127058349Y-73614962D01*
X127049170Y-73634368D01*
X127038134Y-73652781D01*
X127025346Y-73670024D01*
X127010930Y-73685930D01*
X126995024Y-73700346D01*
X126977781Y-73713134D01*
X126959368Y-73724170D01*
X126939962Y-73733349D01*
X126919750Y-73740581D01*
X126898926Y-73745797D01*
X126877691Y-73748947D01*
X126856250Y-73750000D01*
X126343750Y-73750000D01*
X126322309Y-73748947D01*
X126301074Y-73745797D01*
X126280250Y-73740581D01*
X126260038Y-73733349D01*
X126240632Y-73724170D01*
X126222219Y-73713134D01*
X126204976Y-73700346D01*
X126189070Y-73685930D01*
X126174654Y-73670024D01*
X126161866Y-73652781D01*
X126150830Y-73634368D01*
X126141651Y-73614962D01*
X126134419Y-73594750D01*
X126129203Y-73573926D01*
X126126053Y-73552691D01*
X126125000Y-73531250D01*
X126125000Y-73093750D01*
X126126053Y-73072309D01*
X126129203Y-73051074D01*
X126134419Y-73030250D01*
X126141651Y-73010038D01*
X126150830Y-72990632D01*
X126161866Y-72972219D01*
X126174654Y-72954976D01*
X126189070Y-72939070D01*
X126204976Y-72924654D01*
X126222219Y-72911866D01*
X126240632Y-72900830D01*
X126260038Y-72891651D01*
X126280250Y-72884419D01*
X126301074Y-72879203D01*
X126322309Y-72876053D01*
X126343750Y-72875000D01*
X126856250Y-72875000D01*
X126877691Y-72876053D01*
X126877691Y-72876053D01*
G37*
D11*
X126600000Y-73312500D03*
D10*
G36*
X126877691Y-74451053D02*
G01*
X126898926Y-74454203D01*
X126919750Y-74459419D01*
X126939962Y-74466651D01*
X126959368Y-74475830D01*
X126977781Y-74486866D01*
X126995024Y-74499654D01*
X127010930Y-74514070D01*
X127025346Y-74529976D01*
X127038134Y-74547219D01*
X127049170Y-74565632D01*
X127058349Y-74585038D01*
X127065581Y-74605250D01*
X127070797Y-74626074D01*
X127073947Y-74647309D01*
X127075000Y-74668750D01*
X127075000Y-75106250D01*
X127073947Y-75127691D01*
X127070797Y-75148926D01*
X127065581Y-75169750D01*
X127058349Y-75189962D01*
X127049170Y-75209368D01*
X127038134Y-75227781D01*
X127025346Y-75245024D01*
X127010930Y-75260930D01*
X126995024Y-75275346D01*
X126977781Y-75288134D01*
X126959368Y-75299170D01*
X126939962Y-75308349D01*
X126919750Y-75315581D01*
X126898926Y-75320797D01*
X126877691Y-75323947D01*
X126856250Y-75325000D01*
X126343750Y-75325000D01*
X126322309Y-75323947D01*
X126301074Y-75320797D01*
X126280250Y-75315581D01*
X126260038Y-75308349D01*
X126240632Y-75299170D01*
X126222219Y-75288134D01*
X126204976Y-75275346D01*
X126189070Y-75260930D01*
X126174654Y-75245024D01*
X126161866Y-75227781D01*
X126150830Y-75209368D01*
X126141651Y-75189962D01*
X126134419Y-75169750D01*
X126129203Y-75148926D01*
X126126053Y-75127691D01*
X126125000Y-75106250D01*
X126125000Y-74668750D01*
X126126053Y-74647309D01*
X126129203Y-74626074D01*
X126134419Y-74605250D01*
X126141651Y-74585038D01*
X126150830Y-74565632D01*
X126161866Y-74547219D01*
X126174654Y-74529976D01*
X126189070Y-74514070D01*
X126204976Y-74499654D01*
X126222219Y-74486866D01*
X126240632Y-74475830D01*
X126260038Y-74466651D01*
X126280250Y-74459419D01*
X126301074Y-74454203D01*
X126322309Y-74451053D01*
X126343750Y-74450000D01*
X126856250Y-74450000D01*
X126877691Y-74451053D01*
X126877691Y-74451053D01*
G37*
D11*
X126600000Y-74887500D03*
D10*
G36*
X139727691Y-53326053D02*
G01*
X139748926Y-53329203D01*
X139769750Y-53334419D01*
X139789962Y-53341651D01*
X139809368Y-53350830D01*
X139827781Y-53361866D01*
X139845024Y-53374654D01*
X139860930Y-53389070D01*
X139875346Y-53404976D01*
X139888134Y-53422219D01*
X139899170Y-53440632D01*
X139908349Y-53460038D01*
X139915581Y-53480250D01*
X139920797Y-53501074D01*
X139923947Y-53522309D01*
X139925000Y-53543750D01*
X139925000Y-54056250D01*
X139923947Y-54077691D01*
X139920797Y-54098926D01*
X139915581Y-54119750D01*
X139908349Y-54139962D01*
X139899170Y-54159368D01*
X139888134Y-54177781D01*
X139875346Y-54195024D01*
X139860930Y-54210930D01*
X139845024Y-54225346D01*
X139827781Y-54238134D01*
X139809368Y-54249170D01*
X139789962Y-54258349D01*
X139769750Y-54265581D01*
X139748926Y-54270797D01*
X139727691Y-54273947D01*
X139706250Y-54275000D01*
X139268750Y-54275000D01*
X139247309Y-54273947D01*
X139226074Y-54270797D01*
X139205250Y-54265581D01*
X139185038Y-54258349D01*
X139165632Y-54249170D01*
X139147219Y-54238134D01*
X139129976Y-54225346D01*
X139114070Y-54210930D01*
X139099654Y-54195024D01*
X139086866Y-54177781D01*
X139075830Y-54159368D01*
X139066651Y-54139962D01*
X139059419Y-54119750D01*
X139054203Y-54098926D01*
X139051053Y-54077691D01*
X139050000Y-54056250D01*
X139050000Y-53543750D01*
X139051053Y-53522309D01*
X139054203Y-53501074D01*
X139059419Y-53480250D01*
X139066651Y-53460038D01*
X139075830Y-53440632D01*
X139086866Y-53422219D01*
X139099654Y-53404976D01*
X139114070Y-53389070D01*
X139129976Y-53374654D01*
X139147219Y-53361866D01*
X139165632Y-53350830D01*
X139185038Y-53341651D01*
X139205250Y-53334419D01*
X139226074Y-53329203D01*
X139247309Y-53326053D01*
X139268750Y-53325000D01*
X139706250Y-53325000D01*
X139727691Y-53326053D01*
X139727691Y-53326053D01*
G37*
D11*
X139487500Y-53800000D03*
D10*
G36*
X138152691Y-53326053D02*
G01*
X138173926Y-53329203D01*
X138194750Y-53334419D01*
X138214962Y-53341651D01*
X138234368Y-53350830D01*
X138252781Y-53361866D01*
X138270024Y-53374654D01*
X138285930Y-53389070D01*
X138300346Y-53404976D01*
X138313134Y-53422219D01*
X138324170Y-53440632D01*
X138333349Y-53460038D01*
X138340581Y-53480250D01*
X138345797Y-53501074D01*
X138348947Y-53522309D01*
X138350000Y-53543750D01*
X138350000Y-54056250D01*
X138348947Y-54077691D01*
X138345797Y-54098926D01*
X138340581Y-54119750D01*
X138333349Y-54139962D01*
X138324170Y-54159368D01*
X138313134Y-54177781D01*
X138300346Y-54195024D01*
X138285930Y-54210930D01*
X138270024Y-54225346D01*
X138252781Y-54238134D01*
X138234368Y-54249170D01*
X138214962Y-54258349D01*
X138194750Y-54265581D01*
X138173926Y-54270797D01*
X138152691Y-54273947D01*
X138131250Y-54275000D01*
X137693750Y-54275000D01*
X137672309Y-54273947D01*
X137651074Y-54270797D01*
X137630250Y-54265581D01*
X137610038Y-54258349D01*
X137590632Y-54249170D01*
X137572219Y-54238134D01*
X137554976Y-54225346D01*
X137539070Y-54210930D01*
X137524654Y-54195024D01*
X137511866Y-54177781D01*
X137500830Y-54159368D01*
X137491651Y-54139962D01*
X137484419Y-54119750D01*
X137479203Y-54098926D01*
X137476053Y-54077691D01*
X137475000Y-54056250D01*
X137475000Y-53543750D01*
X137476053Y-53522309D01*
X137479203Y-53501074D01*
X137484419Y-53480250D01*
X137491651Y-53460038D01*
X137500830Y-53440632D01*
X137511866Y-53422219D01*
X137524654Y-53404976D01*
X137539070Y-53389070D01*
X137554976Y-53374654D01*
X137572219Y-53361866D01*
X137590632Y-53350830D01*
X137610038Y-53341651D01*
X137630250Y-53334419D01*
X137651074Y-53329203D01*
X137672309Y-53326053D01*
X137693750Y-53325000D01*
X138131250Y-53325000D01*
X138152691Y-53326053D01*
X138152691Y-53326053D01*
G37*
D11*
X137912500Y-53800000D03*
D10*
G36*
X136627691Y-53326053D02*
G01*
X136648926Y-53329203D01*
X136669750Y-53334419D01*
X136689962Y-53341651D01*
X136709368Y-53350830D01*
X136727781Y-53361866D01*
X136745024Y-53374654D01*
X136760930Y-53389070D01*
X136775346Y-53404976D01*
X136788134Y-53422219D01*
X136799170Y-53440632D01*
X136808349Y-53460038D01*
X136815581Y-53480250D01*
X136820797Y-53501074D01*
X136823947Y-53522309D01*
X136825000Y-53543750D01*
X136825000Y-54056250D01*
X136823947Y-54077691D01*
X136820797Y-54098926D01*
X136815581Y-54119750D01*
X136808349Y-54139962D01*
X136799170Y-54159368D01*
X136788134Y-54177781D01*
X136775346Y-54195024D01*
X136760930Y-54210930D01*
X136745024Y-54225346D01*
X136727781Y-54238134D01*
X136709368Y-54249170D01*
X136689962Y-54258349D01*
X136669750Y-54265581D01*
X136648926Y-54270797D01*
X136627691Y-54273947D01*
X136606250Y-54275000D01*
X136168750Y-54275000D01*
X136147309Y-54273947D01*
X136126074Y-54270797D01*
X136105250Y-54265581D01*
X136085038Y-54258349D01*
X136065632Y-54249170D01*
X136047219Y-54238134D01*
X136029976Y-54225346D01*
X136014070Y-54210930D01*
X135999654Y-54195024D01*
X135986866Y-54177781D01*
X135975830Y-54159368D01*
X135966651Y-54139962D01*
X135959419Y-54119750D01*
X135954203Y-54098926D01*
X135951053Y-54077691D01*
X135950000Y-54056250D01*
X135950000Y-53543750D01*
X135951053Y-53522309D01*
X135954203Y-53501074D01*
X135959419Y-53480250D01*
X135966651Y-53460038D01*
X135975830Y-53440632D01*
X135986866Y-53422219D01*
X135999654Y-53404976D01*
X136014070Y-53389070D01*
X136029976Y-53374654D01*
X136047219Y-53361866D01*
X136065632Y-53350830D01*
X136085038Y-53341651D01*
X136105250Y-53334419D01*
X136126074Y-53329203D01*
X136147309Y-53326053D01*
X136168750Y-53325000D01*
X136606250Y-53325000D01*
X136627691Y-53326053D01*
X136627691Y-53326053D01*
G37*
D11*
X136387500Y-53800000D03*
D10*
G36*
X135052691Y-53326053D02*
G01*
X135073926Y-53329203D01*
X135094750Y-53334419D01*
X135114962Y-53341651D01*
X135134368Y-53350830D01*
X135152781Y-53361866D01*
X135170024Y-53374654D01*
X135185930Y-53389070D01*
X135200346Y-53404976D01*
X135213134Y-53422219D01*
X135224170Y-53440632D01*
X135233349Y-53460038D01*
X135240581Y-53480250D01*
X135245797Y-53501074D01*
X135248947Y-53522309D01*
X135250000Y-53543750D01*
X135250000Y-54056250D01*
X135248947Y-54077691D01*
X135245797Y-54098926D01*
X135240581Y-54119750D01*
X135233349Y-54139962D01*
X135224170Y-54159368D01*
X135213134Y-54177781D01*
X135200346Y-54195024D01*
X135185930Y-54210930D01*
X135170024Y-54225346D01*
X135152781Y-54238134D01*
X135134368Y-54249170D01*
X135114962Y-54258349D01*
X135094750Y-54265581D01*
X135073926Y-54270797D01*
X135052691Y-54273947D01*
X135031250Y-54275000D01*
X134593750Y-54275000D01*
X134572309Y-54273947D01*
X134551074Y-54270797D01*
X134530250Y-54265581D01*
X134510038Y-54258349D01*
X134490632Y-54249170D01*
X134472219Y-54238134D01*
X134454976Y-54225346D01*
X134439070Y-54210930D01*
X134424654Y-54195024D01*
X134411866Y-54177781D01*
X134400830Y-54159368D01*
X134391651Y-54139962D01*
X134384419Y-54119750D01*
X134379203Y-54098926D01*
X134376053Y-54077691D01*
X134375000Y-54056250D01*
X134375000Y-53543750D01*
X134376053Y-53522309D01*
X134379203Y-53501074D01*
X134384419Y-53480250D01*
X134391651Y-53460038D01*
X134400830Y-53440632D01*
X134411866Y-53422219D01*
X134424654Y-53404976D01*
X134439070Y-53389070D01*
X134454976Y-53374654D01*
X134472219Y-53361866D01*
X134490632Y-53350830D01*
X134510038Y-53341651D01*
X134530250Y-53334419D01*
X134551074Y-53329203D01*
X134572309Y-53326053D01*
X134593750Y-53325000D01*
X135031250Y-53325000D01*
X135052691Y-53326053D01*
X135052691Y-53326053D01*
G37*
D11*
X134812500Y-53800000D03*
D10*
G36*
X135827691Y-60526053D02*
G01*
X135848926Y-60529203D01*
X135869750Y-60534419D01*
X135889962Y-60541651D01*
X135909368Y-60550830D01*
X135927781Y-60561866D01*
X135945024Y-60574654D01*
X135960930Y-60589070D01*
X135975346Y-60604976D01*
X135988134Y-60622219D01*
X135999170Y-60640632D01*
X136008349Y-60660038D01*
X136015581Y-60680250D01*
X136020797Y-60701074D01*
X136023947Y-60722309D01*
X136025000Y-60743750D01*
X136025000Y-61256250D01*
X136023947Y-61277691D01*
X136020797Y-61298926D01*
X136015581Y-61319750D01*
X136008349Y-61339962D01*
X135999170Y-61359368D01*
X135988134Y-61377781D01*
X135975346Y-61395024D01*
X135960930Y-61410930D01*
X135945024Y-61425346D01*
X135927781Y-61438134D01*
X135909368Y-61449170D01*
X135889962Y-61458349D01*
X135869750Y-61465581D01*
X135848926Y-61470797D01*
X135827691Y-61473947D01*
X135806250Y-61475000D01*
X135368750Y-61475000D01*
X135347309Y-61473947D01*
X135326074Y-61470797D01*
X135305250Y-61465581D01*
X135285038Y-61458349D01*
X135265632Y-61449170D01*
X135247219Y-61438134D01*
X135229976Y-61425346D01*
X135214070Y-61410930D01*
X135199654Y-61395024D01*
X135186866Y-61377781D01*
X135175830Y-61359368D01*
X135166651Y-61339962D01*
X135159419Y-61319750D01*
X135154203Y-61298926D01*
X135151053Y-61277691D01*
X135150000Y-61256250D01*
X135150000Y-60743750D01*
X135151053Y-60722309D01*
X135154203Y-60701074D01*
X135159419Y-60680250D01*
X135166651Y-60660038D01*
X135175830Y-60640632D01*
X135186866Y-60622219D01*
X135199654Y-60604976D01*
X135214070Y-60589070D01*
X135229976Y-60574654D01*
X135247219Y-60561866D01*
X135265632Y-60550830D01*
X135285038Y-60541651D01*
X135305250Y-60534419D01*
X135326074Y-60529203D01*
X135347309Y-60526053D01*
X135368750Y-60525000D01*
X135806250Y-60525000D01*
X135827691Y-60526053D01*
X135827691Y-60526053D01*
G37*
D11*
X135587500Y-61000000D03*
D10*
G36*
X134252691Y-60526053D02*
G01*
X134273926Y-60529203D01*
X134294750Y-60534419D01*
X134314962Y-60541651D01*
X134334368Y-60550830D01*
X134352781Y-60561866D01*
X134370024Y-60574654D01*
X134385930Y-60589070D01*
X134400346Y-60604976D01*
X134413134Y-60622219D01*
X134424170Y-60640632D01*
X134433349Y-60660038D01*
X134440581Y-60680250D01*
X134445797Y-60701074D01*
X134448947Y-60722309D01*
X134450000Y-60743750D01*
X134450000Y-61256250D01*
X134448947Y-61277691D01*
X134445797Y-61298926D01*
X134440581Y-61319750D01*
X134433349Y-61339962D01*
X134424170Y-61359368D01*
X134413134Y-61377781D01*
X134400346Y-61395024D01*
X134385930Y-61410930D01*
X134370024Y-61425346D01*
X134352781Y-61438134D01*
X134334368Y-61449170D01*
X134314962Y-61458349D01*
X134294750Y-61465581D01*
X134273926Y-61470797D01*
X134252691Y-61473947D01*
X134231250Y-61475000D01*
X133793750Y-61475000D01*
X133772309Y-61473947D01*
X133751074Y-61470797D01*
X133730250Y-61465581D01*
X133710038Y-61458349D01*
X133690632Y-61449170D01*
X133672219Y-61438134D01*
X133654976Y-61425346D01*
X133639070Y-61410930D01*
X133624654Y-61395024D01*
X133611866Y-61377781D01*
X133600830Y-61359368D01*
X133591651Y-61339962D01*
X133584419Y-61319750D01*
X133579203Y-61298926D01*
X133576053Y-61277691D01*
X133575000Y-61256250D01*
X133575000Y-60743750D01*
X133576053Y-60722309D01*
X133579203Y-60701074D01*
X133584419Y-60680250D01*
X133591651Y-60660038D01*
X133600830Y-60640632D01*
X133611866Y-60622219D01*
X133624654Y-60604976D01*
X133639070Y-60589070D01*
X133654976Y-60574654D01*
X133672219Y-60561866D01*
X133690632Y-60550830D01*
X133710038Y-60541651D01*
X133730250Y-60534419D01*
X133751074Y-60529203D01*
X133772309Y-60526053D01*
X133793750Y-60525000D01*
X134231250Y-60525000D01*
X134252691Y-60526053D01*
X134252691Y-60526053D01*
G37*
D11*
X134012500Y-61000000D03*
D10*
G36*
X134252691Y-58926053D02*
G01*
X134273926Y-58929203D01*
X134294750Y-58934419D01*
X134314962Y-58941651D01*
X134334368Y-58950830D01*
X134352781Y-58961866D01*
X134370024Y-58974654D01*
X134385930Y-58989070D01*
X134400346Y-59004976D01*
X134413134Y-59022219D01*
X134424170Y-59040632D01*
X134433349Y-59060038D01*
X134440581Y-59080250D01*
X134445797Y-59101074D01*
X134448947Y-59122309D01*
X134450000Y-59143750D01*
X134450000Y-59656250D01*
X134448947Y-59677691D01*
X134445797Y-59698926D01*
X134440581Y-59719750D01*
X134433349Y-59739962D01*
X134424170Y-59759368D01*
X134413134Y-59777781D01*
X134400346Y-59795024D01*
X134385930Y-59810930D01*
X134370024Y-59825346D01*
X134352781Y-59838134D01*
X134334368Y-59849170D01*
X134314962Y-59858349D01*
X134294750Y-59865581D01*
X134273926Y-59870797D01*
X134252691Y-59873947D01*
X134231250Y-59875000D01*
X133793750Y-59875000D01*
X133772309Y-59873947D01*
X133751074Y-59870797D01*
X133730250Y-59865581D01*
X133710038Y-59858349D01*
X133690632Y-59849170D01*
X133672219Y-59838134D01*
X133654976Y-59825346D01*
X133639070Y-59810930D01*
X133624654Y-59795024D01*
X133611866Y-59777781D01*
X133600830Y-59759368D01*
X133591651Y-59739962D01*
X133584419Y-59719750D01*
X133579203Y-59698926D01*
X133576053Y-59677691D01*
X133575000Y-59656250D01*
X133575000Y-59143750D01*
X133576053Y-59122309D01*
X133579203Y-59101074D01*
X133584419Y-59080250D01*
X133591651Y-59060038D01*
X133600830Y-59040632D01*
X133611866Y-59022219D01*
X133624654Y-59004976D01*
X133639070Y-58989070D01*
X133654976Y-58974654D01*
X133672219Y-58961866D01*
X133690632Y-58950830D01*
X133710038Y-58941651D01*
X133730250Y-58934419D01*
X133751074Y-58929203D01*
X133772309Y-58926053D01*
X133793750Y-58925000D01*
X134231250Y-58925000D01*
X134252691Y-58926053D01*
X134252691Y-58926053D01*
G37*
D11*
X134012500Y-59400000D03*
D10*
G36*
X135827691Y-58926053D02*
G01*
X135848926Y-58929203D01*
X135869750Y-58934419D01*
X135889962Y-58941651D01*
X135909368Y-58950830D01*
X135927781Y-58961866D01*
X135945024Y-58974654D01*
X135960930Y-58989070D01*
X135975346Y-59004976D01*
X135988134Y-59022219D01*
X135999170Y-59040632D01*
X136008349Y-59060038D01*
X136015581Y-59080250D01*
X136020797Y-59101074D01*
X136023947Y-59122309D01*
X136025000Y-59143750D01*
X136025000Y-59656250D01*
X136023947Y-59677691D01*
X136020797Y-59698926D01*
X136015581Y-59719750D01*
X136008349Y-59739962D01*
X135999170Y-59759368D01*
X135988134Y-59777781D01*
X135975346Y-59795024D01*
X135960930Y-59810930D01*
X135945024Y-59825346D01*
X135927781Y-59838134D01*
X135909368Y-59849170D01*
X135889962Y-59858349D01*
X135869750Y-59865581D01*
X135848926Y-59870797D01*
X135827691Y-59873947D01*
X135806250Y-59875000D01*
X135368750Y-59875000D01*
X135347309Y-59873947D01*
X135326074Y-59870797D01*
X135305250Y-59865581D01*
X135285038Y-59858349D01*
X135265632Y-59849170D01*
X135247219Y-59838134D01*
X135229976Y-59825346D01*
X135214070Y-59810930D01*
X135199654Y-59795024D01*
X135186866Y-59777781D01*
X135175830Y-59759368D01*
X135166651Y-59739962D01*
X135159419Y-59719750D01*
X135154203Y-59698926D01*
X135151053Y-59677691D01*
X135150000Y-59656250D01*
X135150000Y-59143750D01*
X135151053Y-59122309D01*
X135154203Y-59101074D01*
X135159419Y-59080250D01*
X135166651Y-59060038D01*
X135175830Y-59040632D01*
X135186866Y-59022219D01*
X135199654Y-59004976D01*
X135214070Y-58989070D01*
X135229976Y-58974654D01*
X135247219Y-58961866D01*
X135265632Y-58950830D01*
X135285038Y-58941651D01*
X135305250Y-58934419D01*
X135326074Y-58929203D01*
X135347309Y-58926053D01*
X135368750Y-58925000D01*
X135806250Y-58925000D01*
X135827691Y-58926053D01*
X135827691Y-58926053D01*
G37*
D11*
X135587500Y-59400000D03*
D10*
G36*
X142077691Y-55276053D02*
G01*
X142098926Y-55279203D01*
X142119750Y-55284419D01*
X142139962Y-55291651D01*
X142159368Y-55300830D01*
X142177781Y-55311866D01*
X142195024Y-55324654D01*
X142210930Y-55339070D01*
X142225346Y-55354976D01*
X142238134Y-55372219D01*
X142249170Y-55390632D01*
X142258349Y-55410038D01*
X142265581Y-55430250D01*
X142270797Y-55451074D01*
X142273947Y-55472309D01*
X142275000Y-55493750D01*
X142275000Y-55931250D01*
X142273947Y-55952691D01*
X142270797Y-55973926D01*
X142265581Y-55994750D01*
X142258349Y-56014962D01*
X142249170Y-56034368D01*
X142238134Y-56052781D01*
X142225346Y-56070024D01*
X142210930Y-56085930D01*
X142195024Y-56100346D01*
X142177781Y-56113134D01*
X142159368Y-56124170D01*
X142139962Y-56133349D01*
X142119750Y-56140581D01*
X142098926Y-56145797D01*
X142077691Y-56148947D01*
X142056250Y-56150000D01*
X141543750Y-56150000D01*
X141522309Y-56148947D01*
X141501074Y-56145797D01*
X141480250Y-56140581D01*
X141460038Y-56133349D01*
X141440632Y-56124170D01*
X141422219Y-56113134D01*
X141404976Y-56100346D01*
X141389070Y-56085930D01*
X141374654Y-56070024D01*
X141361866Y-56052781D01*
X141350830Y-56034368D01*
X141341651Y-56014962D01*
X141334419Y-55994750D01*
X141329203Y-55973926D01*
X141326053Y-55952691D01*
X141325000Y-55931250D01*
X141325000Y-55493750D01*
X141326053Y-55472309D01*
X141329203Y-55451074D01*
X141334419Y-55430250D01*
X141341651Y-55410038D01*
X141350830Y-55390632D01*
X141361866Y-55372219D01*
X141374654Y-55354976D01*
X141389070Y-55339070D01*
X141404976Y-55324654D01*
X141422219Y-55311866D01*
X141440632Y-55300830D01*
X141460038Y-55291651D01*
X141480250Y-55284419D01*
X141501074Y-55279203D01*
X141522309Y-55276053D01*
X141543750Y-55275000D01*
X142056250Y-55275000D01*
X142077691Y-55276053D01*
X142077691Y-55276053D01*
G37*
D11*
X141800000Y-55712500D03*
D10*
G36*
X142077691Y-56851053D02*
G01*
X142098926Y-56854203D01*
X142119750Y-56859419D01*
X142139962Y-56866651D01*
X142159368Y-56875830D01*
X142177781Y-56886866D01*
X142195024Y-56899654D01*
X142210930Y-56914070D01*
X142225346Y-56929976D01*
X142238134Y-56947219D01*
X142249170Y-56965632D01*
X142258349Y-56985038D01*
X142265581Y-57005250D01*
X142270797Y-57026074D01*
X142273947Y-57047309D01*
X142275000Y-57068750D01*
X142275000Y-57506250D01*
X142273947Y-57527691D01*
X142270797Y-57548926D01*
X142265581Y-57569750D01*
X142258349Y-57589962D01*
X142249170Y-57609368D01*
X142238134Y-57627781D01*
X142225346Y-57645024D01*
X142210930Y-57660930D01*
X142195024Y-57675346D01*
X142177781Y-57688134D01*
X142159368Y-57699170D01*
X142139962Y-57708349D01*
X142119750Y-57715581D01*
X142098926Y-57720797D01*
X142077691Y-57723947D01*
X142056250Y-57725000D01*
X141543750Y-57725000D01*
X141522309Y-57723947D01*
X141501074Y-57720797D01*
X141480250Y-57715581D01*
X141460038Y-57708349D01*
X141440632Y-57699170D01*
X141422219Y-57688134D01*
X141404976Y-57675346D01*
X141389070Y-57660930D01*
X141374654Y-57645024D01*
X141361866Y-57627781D01*
X141350830Y-57609368D01*
X141341651Y-57589962D01*
X141334419Y-57569750D01*
X141329203Y-57548926D01*
X141326053Y-57527691D01*
X141325000Y-57506250D01*
X141325000Y-57068750D01*
X141326053Y-57047309D01*
X141329203Y-57026074D01*
X141334419Y-57005250D01*
X141341651Y-56985038D01*
X141350830Y-56965632D01*
X141361866Y-56947219D01*
X141374654Y-56929976D01*
X141389070Y-56914070D01*
X141404976Y-56899654D01*
X141422219Y-56886866D01*
X141440632Y-56875830D01*
X141460038Y-56866651D01*
X141480250Y-56859419D01*
X141501074Y-56854203D01*
X141522309Y-56851053D01*
X141543750Y-56850000D01*
X142056250Y-56850000D01*
X142077691Y-56851053D01*
X142077691Y-56851053D01*
G37*
D11*
X141800000Y-57287500D03*
D12*
X113200000Y-73450000D03*
X113200000Y-70950000D03*
D13*
X131900000Y-55550000D03*
X131900000Y-57450000D03*
X129700000Y-57450000D03*
X129700000Y-56500000D03*
X129700000Y-55550000D03*
D14*
X121300000Y-71095000D03*
X121300000Y-72365000D03*
X121300000Y-73635000D03*
X121300000Y-74905000D03*
X115900000Y-74905000D03*
X115900000Y-73635000D03*
X115900000Y-72365000D03*
X115900000Y-71095000D03*
D15*
X146600000Y-62300000D03*
X144600000Y-63250000D03*
X144600000Y-61350000D03*
D10*
G36*
X136412252Y-64050602D02*
G01*
X136424386Y-64052402D01*
X136436286Y-64055382D01*
X136447835Y-64059515D01*
X136458925Y-64064760D01*
X136469446Y-64071066D01*
X136479299Y-64078374D01*
X136488388Y-64086612D01*
X136496626Y-64095701D01*
X136503934Y-64105554D01*
X136510240Y-64116075D01*
X136515485Y-64127165D01*
X136519618Y-64138714D01*
X136522598Y-64150614D01*
X136524398Y-64162748D01*
X136525000Y-64175000D01*
X136525000Y-64425000D01*
X136524398Y-64437252D01*
X136522598Y-64449386D01*
X136519618Y-64461286D01*
X136515485Y-64472835D01*
X136510240Y-64483925D01*
X136503934Y-64494446D01*
X136496626Y-64504299D01*
X136488388Y-64513388D01*
X136479299Y-64521626D01*
X136469446Y-64528934D01*
X136458925Y-64535240D01*
X136447835Y-64540485D01*
X136436286Y-64544618D01*
X136424386Y-64547598D01*
X136412252Y-64549398D01*
X136400000Y-64550000D01*
X135150000Y-64550000D01*
X135137748Y-64549398D01*
X135125614Y-64547598D01*
X135113714Y-64544618D01*
X135102165Y-64540485D01*
X135091075Y-64535240D01*
X135080554Y-64528934D01*
X135070701Y-64521626D01*
X135061612Y-64513388D01*
X135053374Y-64504299D01*
X135046066Y-64494446D01*
X135039760Y-64483925D01*
X135034515Y-64472835D01*
X135030382Y-64461286D01*
X135027402Y-64449386D01*
X135025602Y-64437252D01*
X135025000Y-64425000D01*
X135025000Y-64175000D01*
X135025602Y-64162748D01*
X135027402Y-64150614D01*
X135030382Y-64138714D01*
X135034515Y-64127165D01*
X135039760Y-64116075D01*
X135046066Y-64105554D01*
X135053374Y-64095701D01*
X135061612Y-64086612D01*
X135070701Y-64078374D01*
X135080554Y-64071066D01*
X135091075Y-64064760D01*
X135102165Y-64059515D01*
X135113714Y-64055382D01*
X135125614Y-64052402D01*
X135137748Y-64050602D01*
X135150000Y-64050000D01*
X136400000Y-64050000D01*
X136412252Y-64050602D01*
X136412252Y-64050602D01*
G37*
D16*
X135775000Y-64300000D03*
D10*
G36*
X136412252Y-64850602D02*
G01*
X136424386Y-64852402D01*
X136436286Y-64855382D01*
X136447835Y-64859515D01*
X136458925Y-64864760D01*
X136469446Y-64871066D01*
X136479299Y-64878374D01*
X136488388Y-64886612D01*
X136496626Y-64895701D01*
X136503934Y-64905554D01*
X136510240Y-64916075D01*
X136515485Y-64927165D01*
X136519618Y-64938714D01*
X136522598Y-64950614D01*
X136524398Y-64962748D01*
X136525000Y-64975000D01*
X136525000Y-65225000D01*
X136524398Y-65237252D01*
X136522598Y-65249386D01*
X136519618Y-65261286D01*
X136515485Y-65272835D01*
X136510240Y-65283925D01*
X136503934Y-65294446D01*
X136496626Y-65304299D01*
X136488388Y-65313388D01*
X136479299Y-65321626D01*
X136469446Y-65328934D01*
X136458925Y-65335240D01*
X136447835Y-65340485D01*
X136436286Y-65344618D01*
X136424386Y-65347598D01*
X136412252Y-65349398D01*
X136400000Y-65350000D01*
X135150000Y-65350000D01*
X135137748Y-65349398D01*
X135125614Y-65347598D01*
X135113714Y-65344618D01*
X135102165Y-65340485D01*
X135091075Y-65335240D01*
X135080554Y-65328934D01*
X135070701Y-65321626D01*
X135061612Y-65313388D01*
X135053374Y-65304299D01*
X135046066Y-65294446D01*
X135039760Y-65283925D01*
X135034515Y-65272835D01*
X135030382Y-65261286D01*
X135027402Y-65249386D01*
X135025602Y-65237252D01*
X135025000Y-65225000D01*
X135025000Y-64975000D01*
X135025602Y-64962748D01*
X135027402Y-64950614D01*
X135030382Y-64938714D01*
X135034515Y-64927165D01*
X135039760Y-64916075D01*
X135046066Y-64905554D01*
X135053374Y-64895701D01*
X135061612Y-64886612D01*
X135070701Y-64878374D01*
X135080554Y-64871066D01*
X135091075Y-64864760D01*
X135102165Y-64859515D01*
X135113714Y-64855382D01*
X135125614Y-64852402D01*
X135137748Y-64850602D01*
X135150000Y-64850000D01*
X136400000Y-64850000D01*
X136412252Y-64850602D01*
X136412252Y-64850602D01*
G37*
D16*
X135775000Y-65100000D03*
D10*
G36*
X136412252Y-65650602D02*
G01*
X136424386Y-65652402D01*
X136436286Y-65655382D01*
X136447835Y-65659515D01*
X136458925Y-65664760D01*
X136469446Y-65671066D01*
X136479299Y-65678374D01*
X136488388Y-65686612D01*
X136496626Y-65695701D01*
X136503934Y-65705554D01*
X136510240Y-65716075D01*
X136515485Y-65727165D01*
X136519618Y-65738714D01*
X136522598Y-65750614D01*
X136524398Y-65762748D01*
X136525000Y-65775000D01*
X136525000Y-66025000D01*
X136524398Y-66037252D01*
X136522598Y-66049386D01*
X136519618Y-66061286D01*
X136515485Y-66072835D01*
X136510240Y-66083925D01*
X136503934Y-66094446D01*
X136496626Y-66104299D01*
X136488388Y-66113388D01*
X136479299Y-66121626D01*
X136469446Y-66128934D01*
X136458925Y-66135240D01*
X136447835Y-66140485D01*
X136436286Y-66144618D01*
X136424386Y-66147598D01*
X136412252Y-66149398D01*
X136400000Y-66150000D01*
X135150000Y-66150000D01*
X135137748Y-66149398D01*
X135125614Y-66147598D01*
X135113714Y-66144618D01*
X135102165Y-66140485D01*
X135091075Y-66135240D01*
X135080554Y-66128934D01*
X135070701Y-66121626D01*
X135061612Y-66113388D01*
X135053374Y-66104299D01*
X135046066Y-66094446D01*
X135039760Y-66083925D01*
X135034515Y-66072835D01*
X135030382Y-66061286D01*
X135027402Y-66049386D01*
X135025602Y-66037252D01*
X135025000Y-66025000D01*
X135025000Y-65775000D01*
X135025602Y-65762748D01*
X135027402Y-65750614D01*
X135030382Y-65738714D01*
X135034515Y-65727165D01*
X135039760Y-65716075D01*
X135046066Y-65705554D01*
X135053374Y-65695701D01*
X135061612Y-65686612D01*
X135070701Y-65678374D01*
X135080554Y-65671066D01*
X135091075Y-65664760D01*
X135102165Y-65659515D01*
X135113714Y-65655382D01*
X135125614Y-65652402D01*
X135137748Y-65650602D01*
X135150000Y-65650000D01*
X136400000Y-65650000D01*
X136412252Y-65650602D01*
X136412252Y-65650602D01*
G37*
D16*
X135775000Y-65900000D03*
D10*
G36*
X136412252Y-66450602D02*
G01*
X136424386Y-66452402D01*
X136436286Y-66455382D01*
X136447835Y-66459515D01*
X136458925Y-66464760D01*
X136469446Y-66471066D01*
X136479299Y-66478374D01*
X136488388Y-66486612D01*
X136496626Y-66495701D01*
X136503934Y-66505554D01*
X136510240Y-66516075D01*
X136515485Y-66527165D01*
X136519618Y-66538714D01*
X136522598Y-66550614D01*
X136524398Y-66562748D01*
X136525000Y-66575000D01*
X136525000Y-66825000D01*
X136524398Y-66837252D01*
X136522598Y-66849386D01*
X136519618Y-66861286D01*
X136515485Y-66872835D01*
X136510240Y-66883925D01*
X136503934Y-66894446D01*
X136496626Y-66904299D01*
X136488388Y-66913388D01*
X136479299Y-66921626D01*
X136469446Y-66928934D01*
X136458925Y-66935240D01*
X136447835Y-66940485D01*
X136436286Y-66944618D01*
X136424386Y-66947598D01*
X136412252Y-66949398D01*
X136400000Y-66950000D01*
X135150000Y-66950000D01*
X135137748Y-66949398D01*
X135125614Y-66947598D01*
X135113714Y-66944618D01*
X135102165Y-66940485D01*
X135091075Y-66935240D01*
X135080554Y-66928934D01*
X135070701Y-66921626D01*
X135061612Y-66913388D01*
X135053374Y-66904299D01*
X135046066Y-66894446D01*
X135039760Y-66883925D01*
X135034515Y-66872835D01*
X135030382Y-66861286D01*
X135027402Y-66849386D01*
X135025602Y-66837252D01*
X135025000Y-66825000D01*
X135025000Y-66575000D01*
X135025602Y-66562748D01*
X135027402Y-66550614D01*
X135030382Y-66538714D01*
X135034515Y-66527165D01*
X135039760Y-66516075D01*
X135046066Y-66505554D01*
X135053374Y-66495701D01*
X135061612Y-66486612D01*
X135070701Y-66478374D01*
X135080554Y-66471066D01*
X135091075Y-66464760D01*
X135102165Y-66459515D01*
X135113714Y-66455382D01*
X135125614Y-66452402D01*
X135137748Y-66450602D01*
X135150000Y-66450000D01*
X136400000Y-66450000D01*
X136412252Y-66450602D01*
X136412252Y-66450602D01*
G37*
D16*
X135775000Y-66700000D03*
D10*
G36*
X136412252Y-67250602D02*
G01*
X136424386Y-67252402D01*
X136436286Y-67255382D01*
X136447835Y-67259515D01*
X136458925Y-67264760D01*
X136469446Y-67271066D01*
X136479299Y-67278374D01*
X136488388Y-67286612D01*
X136496626Y-67295701D01*
X136503934Y-67305554D01*
X136510240Y-67316075D01*
X136515485Y-67327165D01*
X136519618Y-67338714D01*
X136522598Y-67350614D01*
X136524398Y-67362748D01*
X136525000Y-67375000D01*
X136525000Y-67625000D01*
X136524398Y-67637252D01*
X136522598Y-67649386D01*
X136519618Y-67661286D01*
X136515485Y-67672835D01*
X136510240Y-67683925D01*
X136503934Y-67694446D01*
X136496626Y-67704299D01*
X136488388Y-67713388D01*
X136479299Y-67721626D01*
X136469446Y-67728934D01*
X136458925Y-67735240D01*
X136447835Y-67740485D01*
X136436286Y-67744618D01*
X136424386Y-67747598D01*
X136412252Y-67749398D01*
X136400000Y-67750000D01*
X135150000Y-67750000D01*
X135137748Y-67749398D01*
X135125614Y-67747598D01*
X135113714Y-67744618D01*
X135102165Y-67740485D01*
X135091075Y-67735240D01*
X135080554Y-67728934D01*
X135070701Y-67721626D01*
X135061612Y-67713388D01*
X135053374Y-67704299D01*
X135046066Y-67694446D01*
X135039760Y-67683925D01*
X135034515Y-67672835D01*
X135030382Y-67661286D01*
X135027402Y-67649386D01*
X135025602Y-67637252D01*
X135025000Y-67625000D01*
X135025000Y-67375000D01*
X135025602Y-67362748D01*
X135027402Y-67350614D01*
X135030382Y-67338714D01*
X135034515Y-67327165D01*
X135039760Y-67316075D01*
X135046066Y-67305554D01*
X135053374Y-67295701D01*
X135061612Y-67286612D01*
X135070701Y-67278374D01*
X135080554Y-67271066D01*
X135091075Y-67264760D01*
X135102165Y-67259515D01*
X135113714Y-67255382D01*
X135125614Y-67252402D01*
X135137748Y-67250602D01*
X135150000Y-67250000D01*
X136400000Y-67250000D01*
X136412252Y-67250602D01*
X136412252Y-67250602D01*
G37*
D16*
X135775000Y-67500000D03*
D10*
G36*
X136412252Y-68050602D02*
G01*
X136424386Y-68052402D01*
X136436286Y-68055382D01*
X136447835Y-68059515D01*
X136458925Y-68064760D01*
X136469446Y-68071066D01*
X136479299Y-68078374D01*
X136488388Y-68086612D01*
X136496626Y-68095701D01*
X136503934Y-68105554D01*
X136510240Y-68116075D01*
X136515485Y-68127165D01*
X136519618Y-68138714D01*
X136522598Y-68150614D01*
X136524398Y-68162748D01*
X136525000Y-68175000D01*
X136525000Y-68425000D01*
X136524398Y-68437252D01*
X136522598Y-68449386D01*
X136519618Y-68461286D01*
X136515485Y-68472835D01*
X136510240Y-68483925D01*
X136503934Y-68494446D01*
X136496626Y-68504299D01*
X136488388Y-68513388D01*
X136479299Y-68521626D01*
X136469446Y-68528934D01*
X136458925Y-68535240D01*
X136447835Y-68540485D01*
X136436286Y-68544618D01*
X136424386Y-68547598D01*
X136412252Y-68549398D01*
X136400000Y-68550000D01*
X135150000Y-68550000D01*
X135137748Y-68549398D01*
X135125614Y-68547598D01*
X135113714Y-68544618D01*
X135102165Y-68540485D01*
X135091075Y-68535240D01*
X135080554Y-68528934D01*
X135070701Y-68521626D01*
X135061612Y-68513388D01*
X135053374Y-68504299D01*
X135046066Y-68494446D01*
X135039760Y-68483925D01*
X135034515Y-68472835D01*
X135030382Y-68461286D01*
X135027402Y-68449386D01*
X135025602Y-68437252D01*
X135025000Y-68425000D01*
X135025000Y-68175000D01*
X135025602Y-68162748D01*
X135027402Y-68150614D01*
X135030382Y-68138714D01*
X135034515Y-68127165D01*
X135039760Y-68116075D01*
X135046066Y-68105554D01*
X135053374Y-68095701D01*
X135061612Y-68086612D01*
X135070701Y-68078374D01*
X135080554Y-68071066D01*
X135091075Y-68064760D01*
X135102165Y-68059515D01*
X135113714Y-68055382D01*
X135125614Y-68052402D01*
X135137748Y-68050602D01*
X135150000Y-68050000D01*
X136400000Y-68050000D01*
X136412252Y-68050602D01*
X136412252Y-68050602D01*
G37*
D16*
X135775000Y-68300000D03*
D10*
G36*
X136412252Y-68850602D02*
G01*
X136424386Y-68852402D01*
X136436286Y-68855382D01*
X136447835Y-68859515D01*
X136458925Y-68864760D01*
X136469446Y-68871066D01*
X136479299Y-68878374D01*
X136488388Y-68886612D01*
X136496626Y-68895701D01*
X136503934Y-68905554D01*
X136510240Y-68916075D01*
X136515485Y-68927165D01*
X136519618Y-68938714D01*
X136522598Y-68950614D01*
X136524398Y-68962748D01*
X136525000Y-68975000D01*
X136525000Y-69225000D01*
X136524398Y-69237252D01*
X136522598Y-69249386D01*
X136519618Y-69261286D01*
X136515485Y-69272835D01*
X136510240Y-69283925D01*
X136503934Y-69294446D01*
X136496626Y-69304299D01*
X136488388Y-69313388D01*
X136479299Y-69321626D01*
X136469446Y-69328934D01*
X136458925Y-69335240D01*
X136447835Y-69340485D01*
X136436286Y-69344618D01*
X136424386Y-69347598D01*
X136412252Y-69349398D01*
X136400000Y-69350000D01*
X135150000Y-69350000D01*
X135137748Y-69349398D01*
X135125614Y-69347598D01*
X135113714Y-69344618D01*
X135102165Y-69340485D01*
X135091075Y-69335240D01*
X135080554Y-69328934D01*
X135070701Y-69321626D01*
X135061612Y-69313388D01*
X135053374Y-69304299D01*
X135046066Y-69294446D01*
X135039760Y-69283925D01*
X135034515Y-69272835D01*
X135030382Y-69261286D01*
X135027402Y-69249386D01*
X135025602Y-69237252D01*
X135025000Y-69225000D01*
X135025000Y-68975000D01*
X135025602Y-68962748D01*
X135027402Y-68950614D01*
X135030382Y-68938714D01*
X135034515Y-68927165D01*
X135039760Y-68916075D01*
X135046066Y-68905554D01*
X135053374Y-68895701D01*
X135061612Y-68886612D01*
X135070701Y-68878374D01*
X135080554Y-68871066D01*
X135091075Y-68864760D01*
X135102165Y-68859515D01*
X135113714Y-68855382D01*
X135125614Y-68852402D01*
X135137748Y-68850602D01*
X135150000Y-68850000D01*
X136400000Y-68850000D01*
X136412252Y-68850602D01*
X136412252Y-68850602D01*
G37*
D16*
X135775000Y-69100000D03*
D10*
G36*
X136412252Y-69650602D02*
G01*
X136424386Y-69652402D01*
X136436286Y-69655382D01*
X136447835Y-69659515D01*
X136458925Y-69664760D01*
X136469446Y-69671066D01*
X136479299Y-69678374D01*
X136488388Y-69686612D01*
X136496626Y-69695701D01*
X136503934Y-69705554D01*
X136510240Y-69716075D01*
X136515485Y-69727165D01*
X136519618Y-69738714D01*
X136522598Y-69750614D01*
X136524398Y-69762748D01*
X136525000Y-69775000D01*
X136525000Y-70025000D01*
X136524398Y-70037252D01*
X136522598Y-70049386D01*
X136519618Y-70061286D01*
X136515485Y-70072835D01*
X136510240Y-70083925D01*
X136503934Y-70094446D01*
X136496626Y-70104299D01*
X136488388Y-70113388D01*
X136479299Y-70121626D01*
X136469446Y-70128934D01*
X136458925Y-70135240D01*
X136447835Y-70140485D01*
X136436286Y-70144618D01*
X136424386Y-70147598D01*
X136412252Y-70149398D01*
X136400000Y-70150000D01*
X135150000Y-70150000D01*
X135137748Y-70149398D01*
X135125614Y-70147598D01*
X135113714Y-70144618D01*
X135102165Y-70140485D01*
X135091075Y-70135240D01*
X135080554Y-70128934D01*
X135070701Y-70121626D01*
X135061612Y-70113388D01*
X135053374Y-70104299D01*
X135046066Y-70094446D01*
X135039760Y-70083925D01*
X135034515Y-70072835D01*
X135030382Y-70061286D01*
X135027402Y-70049386D01*
X135025602Y-70037252D01*
X135025000Y-70025000D01*
X135025000Y-69775000D01*
X135025602Y-69762748D01*
X135027402Y-69750614D01*
X135030382Y-69738714D01*
X135034515Y-69727165D01*
X135039760Y-69716075D01*
X135046066Y-69705554D01*
X135053374Y-69695701D01*
X135061612Y-69686612D01*
X135070701Y-69678374D01*
X135080554Y-69671066D01*
X135091075Y-69664760D01*
X135102165Y-69659515D01*
X135113714Y-69655382D01*
X135125614Y-69652402D01*
X135137748Y-69650602D01*
X135150000Y-69650000D01*
X136400000Y-69650000D01*
X136412252Y-69650602D01*
X136412252Y-69650602D01*
G37*
D16*
X135775000Y-69900000D03*
D10*
G36*
X134537252Y-70525602D02*
G01*
X134549386Y-70527402D01*
X134561286Y-70530382D01*
X134572835Y-70534515D01*
X134583925Y-70539760D01*
X134594446Y-70546066D01*
X134604299Y-70553374D01*
X134613388Y-70561612D01*
X134621626Y-70570701D01*
X134628934Y-70580554D01*
X134635240Y-70591075D01*
X134640485Y-70602165D01*
X134644618Y-70613714D01*
X134647598Y-70625614D01*
X134649398Y-70637748D01*
X134650000Y-70650000D01*
X134650000Y-71900000D01*
X134649398Y-71912252D01*
X134647598Y-71924386D01*
X134644618Y-71936286D01*
X134640485Y-71947835D01*
X134635240Y-71958925D01*
X134628934Y-71969446D01*
X134621626Y-71979299D01*
X134613388Y-71988388D01*
X134604299Y-71996626D01*
X134594446Y-72003934D01*
X134583925Y-72010240D01*
X134572835Y-72015485D01*
X134561286Y-72019618D01*
X134549386Y-72022598D01*
X134537252Y-72024398D01*
X134525000Y-72025000D01*
X134275000Y-72025000D01*
X134262748Y-72024398D01*
X134250614Y-72022598D01*
X134238714Y-72019618D01*
X134227165Y-72015485D01*
X134216075Y-72010240D01*
X134205554Y-72003934D01*
X134195701Y-71996626D01*
X134186612Y-71988388D01*
X134178374Y-71979299D01*
X134171066Y-71969446D01*
X134164760Y-71958925D01*
X134159515Y-71947835D01*
X134155382Y-71936286D01*
X134152402Y-71924386D01*
X134150602Y-71912252D01*
X134150000Y-71900000D01*
X134150000Y-70650000D01*
X134150602Y-70637748D01*
X134152402Y-70625614D01*
X134155382Y-70613714D01*
X134159515Y-70602165D01*
X134164760Y-70591075D01*
X134171066Y-70580554D01*
X134178374Y-70570701D01*
X134186612Y-70561612D01*
X134195701Y-70553374D01*
X134205554Y-70546066D01*
X134216075Y-70539760D01*
X134227165Y-70534515D01*
X134238714Y-70530382D01*
X134250614Y-70527402D01*
X134262748Y-70525602D01*
X134275000Y-70525000D01*
X134525000Y-70525000D01*
X134537252Y-70525602D01*
X134537252Y-70525602D01*
G37*
D16*
X134400000Y-71275000D03*
D10*
G36*
X133737252Y-70525602D02*
G01*
X133749386Y-70527402D01*
X133761286Y-70530382D01*
X133772835Y-70534515D01*
X133783925Y-70539760D01*
X133794446Y-70546066D01*
X133804299Y-70553374D01*
X133813388Y-70561612D01*
X133821626Y-70570701D01*
X133828934Y-70580554D01*
X133835240Y-70591075D01*
X133840485Y-70602165D01*
X133844618Y-70613714D01*
X133847598Y-70625614D01*
X133849398Y-70637748D01*
X133850000Y-70650000D01*
X133850000Y-71900000D01*
X133849398Y-71912252D01*
X133847598Y-71924386D01*
X133844618Y-71936286D01*
X133840485Y-71947835D01*
X133835240Y-71958925D01*
X133828934Y-71969446D01*
X133821626Y-71979299D01*
X133813388Y-71988388D01*
X133804299Y-71996626D01*
X133794446Y-72003934D01*
X133783925Y-72010240D01*
X133772835Y-72015485D01*
X133761286Y-72019618D01*
X133749386Y-72022598D01*
X133737252Y-72024398D01*
X133725000Y-72025000D01*
X133475000Y-72025000D01*
X133462748Y-72024398D01*
X133450614Y-72022598D01*
X133438714Y-72019618D01*
X133427165Y-72015485D01*
X133416075Y-72010240D01*
X133405554Y-72003934D01*
X133395701Y-71996626D01*
X133386612Y-71988388D01*
X133378374Y-71979299D01*
X133371066Y-71969446D01*
X133364760Y-71958925D01*
X133359515Y-71947835D01*
X133355382Y-71936286D01*
X133352402Y-71924386D01*
X133350602Y-71912252D01*
X133350000Y-71900000D01*
X133350000Y-70650000D01*
X133350602Y-70637748D01*
X133352402Y-70625614D01*
X133355382Y-70613714D01*
X133359515Y-70602165D01*
X133364760Y-70591075D01*
X133371066Y-70580554D01*
X133378374Y-70570701D01*
X133386612Y-70561612D01*
X133395701Y-70553374D01*
X133405554Y-70546066D01*
X133416075Y-70539760D01*
X133427165Y-70534515D01*
X133438714Y-70530382D01*
X133450614Y-70527402D01*
X133462748Y-70525602D01*
X133475000Y-70525000D01*
X133725000Y-70525000D01*
X133737252Y-70525602D01*
X133737252Y-70525602D01*
G37*
D16*
X133600000Y-71275000D03*
D10*
G36*
X132937252Y-70525602D02*
G01*
X132949386Y-70527402D01*
X132961286Y-70530382D01*
X132972835Y-70534515D01*
X132983925Y-70539760D01*
X132994446Y-70546066D01*
X133004299Y-70553374D01*
X133013388Y-70561612D01*
X133021626Y-70570701D01*
X133028934Y-70580554D01*
X133035240Y-70591075D01*
X133040485Y-70602165D01*
X133044618Y-70613714D01*
X133047598Y-70625614D01*
X133049398Y-70637748D01*
X133050000Y-70650000D01*
X133050000Y-71900000D01*
X133049398Y-71912252D01*
X133047598Y-71924386D01*
X133044618Y-71936286D01*
X133040485Y-71947835D01*
X133035240Y-71958925D01*
X133028934Y-71969446D01*
X133021626Y-71979299D01*
X133013388Y-71988388D01*
X133004299Y-71996626D01*
X132994446Y-72003934D01*
X132983925Y-72010240D01*
X132972835Y-72015485D01*
X132961286Y-72019618D01*
X132949386Y-72022598D01*
X132937252Y-72024398D01*
X132925000Y-72025000D01*
X132675000Y-72025000D01*
X132662748Y-72024398D01*
X132650614Y-72022598D01*
X132638714Y-72019618D01*
X132627165Y-72015485D01*
X132616075Y-72010240D01*
X132605554Y-72003934D01*
X132595701Y-71996626D01*
X132586612Y-71988388D01*
X132578374Y-71979299D01*
X132571066Y-71969446D01*
X132564760Y-71958925D01*
X132559515Y-71947835D01*
X132555382Y-71936286D01*
X132552402Y-71924386D01*
X132550602Y-71912252D01*
X132550000Y-71900000D01*
X132550000Y-70650000D01*
X132550602Y-70637748D01*
X132552402Y-70625614D01*
X132555382Y-70613714D01*
X132559515Y-70602165D01*
X132564760Y-70591075D01*
X132571066Y-70580554D01*
X132578374Y-70570701D01*
X132586612Y-70561612D01*
X132595701Y-70553374D01*
X132605554Y-70546066D01*
X132616075Y-70539760D01*
X132627165Y-70534515D01*
X132638714Y-70530382D01*
X132650614Y-70527402D01*
X132662748Y-70525602D01*
X132675000Y-70525000D01*
X132925000Y-70525000D01*
X132937252Y-70525602D01*
X132937252Y-70525602D01*
G37*
D16*
X132800000Y-71275000D03*
D10*
G36*
X132137252Y-70525602D02*
G01*
X132149386Y-70527402D01*
X132161286Y-70530382D01*
X132172835Y-70534515D01*
X132183925Y-70539760D01*
X132194446Y-70546066D01*
X132204299Y-70553374D01*
X132213388Y-70561612D01*
X132221626Y-70570701D01*
X132228934Y-70580554D01*
X132235240Y-70591075D01*
X132240485Y-70602165D01*
X132244618Y-70613714D01*
X132247598Y-70625614D01*
X132249398Y-70637748D01*
X132250000Y-70650000D01*
X132250000Y-71900000D01*
X132249398Y-71912252D01*
X132247598Y-71924386D01*
X132244618Y-71936286D01*
X132240485Y-71947835D01*
X132235240Y-71958925D01*
X132228934Y-71969446D01*
X132221626Y-71979299D01*
X132213388Y-71988388D01*
X132204299Y-71996626D01*
X132194446Y-72003934D01*
X132183925Y-72010240D01*
X132172835Y-72015485D01*
X132161286Y-72019618D01*
X132149386Y-72022598D01*
X132137252Y-72024398D01*
X132125000Y-72025000D01*
X131875000Y-72025000D01*
X131862748Y-72024398D01*
X131850614Y-72022598D01*
X131838714Y-72019618D01*
X131827165Y-72015485D01*
X131816075Y-72010240D01*
X131805554Y-72003934D01*
X131795701Y-71996626D01*
X131786612Y-71988388D01*
X131778374Y-71979299D01*
X131771066Y-71969446D01*
X131764760Y-71958925D01*
X131759515Y-71947835D01*
X131755382Y-71936286D01*
X131752402Y-71924386D01*
X131750602Y-71912252D01*
X131750000Y-71900000D01*
X131750000Y-70650000D01*
X131750602Y-70637748D01*
X131752402Y-70625614D01*
X131755382Y-70613714D01*
X131759515Y-70602165D01*
X131764760Y-70591075D01*
X131771066Y-70580554D01*
X131778374Y-70570701D01*
X131786612Y-70561612D01*
X131795701Y-70553374D01*
X131805554Y-70546066D01*
X131816075Y-70539760D01*
X131827165Y-70534515D01*
X131838714Y-70530382D01*
X131850614Y-70527402D01*
X131862748Y-70525602D01*
X131875000Y-70525000D01*
X132125000Y-70525000D01*
X132137252Y-70525602D01*
X132137252Y-70525602D01*
G37*
D16*
X132000000Y-71275000D03*
D10*
G36*
X131337252Y-70525602D02*
G01*
X131349386Y-70527402D01*
X131361286Y-70530382D01*
X131372835Y-70534515D01*
X131383925Y-70539760D01*
X131394446Y-70546066D01*
X131404299Y-70553374D01*
X131413388Y-70561612D01*
X131421626Y-70570701D01*
X131428934Y-70580554D01*
X131435240Y-70591075D01*
X131440485Y-70602165D01*
X131444618Y-70613714D01*
X131447598Y-70625614D01*
X131449398Y-70637748D01*
X131450000Y-70650000D01*
X131450000Y-71900000D01*
X131449398Y-71912252D01*
X131447598Y-71924386D01*
X131444618Y-71936286D01*
X131440485Y-71947835D01*
X131435240Y-71958925D01*
X131428934Y-71969446D01*
X131421626Y-71979299D01*
X131413388Y-71988388D01*
X131404299Y-71996626D01*
X131394446Y-72003934D01*
X131383925Y-72010240D01*
X131372835Y-72015485D01*
X131361286Y-72019618D01*
X131349386Y-72022598D01*
X131337252Y-72024398D01*
X131325000Y-72025000D01*
X131075000Y-72025000D01*
X131062748Y-72024398D01*
X131050614Y-72022598D01*
X131038714Y-72019618D01*
X131027165Y-72015485D01*
X131016075Y-72010240D01*
X131005554Y-72003934D01*
X130995701Y-71996626D01*
X130986612Y-71988388D01*
X130978374Y-71979299D01*
X130971066Y-71969446D01*
X130964760Y-71958925D01*
X130959515Y-71947835D01*
X130955382Y-71936286D01*
X130952402Y-71924386D01*
X130950602Y-71912252D01*
X130950000Y-71900000D01*
X130950000Y-70650000D01*
X130950602Y-70637748D01*
X130952402Y-70625614D01*
X130955382Y-70613714D01*
X130959515Y-70602165D01*
X130964760Y-70591075D01*
X130971066Y-70580554D01*
X130978374Y-70570701D01*
X130986612Y-70561612D01*
X130995701Y-70553374D01*
X131005554Y-70546066D01*
X131016075Y-70539760D01*
X131027165Y-70534515D01*
X131038714Y-70530382D01*
X131050614Y-70527402D01*
X131062748Y-70525602D01*
X131075000Y-70525000D01*
X131325000Y-70525000D01*
X131337252Y-70525602D01*
X131337252Y-70525602D01*
G37*
D16*
X131200000Y-71275000D03*
D10*
G36*
X130537252Y-70525602D02*
G01*
X130549386Y-70527402D01*
X130561286Y-70530382D01*
X130572835Y-70534515D01*
X130583925Y-70539760D01*
X130594446Y-70546066D01*
X130604299Y-70553374D01*
X130613388Y-70561612D01*
X130621626Y-70570701D01*
X130628934Y-70580554D01*
X130635240Y-70591075D01*
X130640485Y-70602165D01*
X130644618Y-70613714D01*
X130647598Y-70625614D01*
X130649398Y-70637748D01*
X130650000Y-70650000D01*
X130650000Y-71900000D01*
X130649398Y-71912252D01*
X130647598Y-71924386D01*
X130644618Y-71936286D01*
X130640485Y-71947835D01*
X130635240Y-71958925D01*
X130628934Y-71969446D01*
X130621626Y-71979299D01*
X130613388Y-71988388D01*
X130604299Y-71996626D01*
X130594446Y-72003934D01*
X130583925Y-72010240D01*
X130572835Y-72015485D01*
X130561286Y-72019618D01*
X130549386Y-72022598D01*
X130537252Y-72024398D01*
X130525000Y-72025000D01*
X130275000Y-72025000D01*
X130262748Y-72024398D01*
X130250614Y-72022598D01*
X130238714Y-72019618D01*
X130227165Y-72015485D01*
X130216075Y-72010240D01*
X130205554Y-72003934D01*
X130195701Y-71996626D01*
X130186612Y-71988388D01*
X130178374Y-71979299D01*
X130171066Y-71969446D01*
X130164760Y-71958925D01*
X130159515Y-71947835D01*
X130155382Y-71936286D01*
X130152402Y-71924386D01*
X130150602Y-71912252D01*
X130150000Y-71900000D01*
X130150000Y-70650000D01*
X130150602Y-70637748D01*
X130152402Y-70625614D01*
X130155382Y-70613714D01*
X130159515Y-70602165D01*
X130164760Y-70591075D01*
X130171066Y-70580554D01*
X130178374Y-70570701D01*
X130186612Y-70561612D01*
X130195701Y-70553374D01*
X130205554Y-70546066D01*
X130216075Y-70539760D01*
X130227165Y-70534515D01*
X130238714Y-70530382D01*
X130250614Y-70527402D01*
X130262748Y-70525602D01*
X130275000Y-70525000D01*
X130525000Y-70525000D01*
X130537252Y-70525602D01*
X130537252Y-70525602D01*
G37*
D16*
X130400000Y-71275000D03*
D10*
G36*
X129737252Y-70525602D02*
G01*
X129749386Y-70527402D01*
X129761286Y-70530382D01*
X129772835Y-70534515D01*
X129783925Y-70539760D01*
X129794446Y-70546066D01*
X129804299Y-70553374D01*
X129813388Y-70561612D01*
X129821626Y-70570701D01*
X129828934Y-70580554D01*
X129835240Y-70591075D01*
X129840485Y-70602165D01*
X129844618Y-70613714D01*
X129847598Y-70625614D01*
X129849398Y-70637748D01*
X129850000Y-70650000D01*
X129850000Y-71900000D01*
X129849398Y-71912252D01*
X129847598Y-71924386D01*
X129844618Y-71936286D01*
X129840485Y-71947835D01*
X129835240Y-71958925D01*
X129828934Y-71969446D01*
X129821626Y-71979299D01*
X129813388Y-71988388D01*
X129804299Y-71996626D01*
X129794446Y-72003934D01*
X129783925Y-72010240D01*
X129772835Y-72015485D01*
X129761286Y-72019618D01*
X129749386Y-72022598D01*
X129737252Y-72024398D01*
X129725000Y-72025000D01*
X129475000Y-72025000D01*
X129462748Y-72024398D01*
X129450614Y-72022598D01*
X129438714Y-72019618D01*
X129427165Y-72015485D01*
X129416075Y-72010240D01*
X129405554Y-72003934D01*
X129395701Y-71996626D01*
X129386612Y-71988388D01*
X129378374Y-71979299D01*
X129371066Y-71969446D01*
X129364760Y-71958925D01*
X129359515Y-71947835D01*
X129355382Y-71936286D01*
X129352402Y-71924386D01*
X129350602Y-71912252D01*
X129350000Y-71900000D01*
X129350000Y-70650000D01*
X129350602Y-70637748D01*
X129352402Y-70625614D01*
X129355382Y-70613714D01*
X129359515Y-70602165D01*
X129364760Y-70591075D01*
X129371066Y-70580554D01*
X129378374Y-70570701D01*
X129386612Y-70561612D01*
X129395701Y-70553374D01*
X129405554Y-70546066D01*
X129416075Y-70539760D01*
X129427165Y-70534515D01*
X129438714Y-70530382D01*
X129450614Y-70527402D01*
X129462748Y-70525602D01*
X129475000Y-70525000D01*
X129725000Y-70525000D01*
X129737252Y-70525602D01*
X129737252Y-70525602D01*
G37*
D16*
X129600000Y-71275000D03*
D10*
G36*
X128937252Y-70525602D02*
G01*
X128949386Y-70527402D01*
X128961286Y-70530382D01*
X128972835Y-70534515D01*
X128983925Y-70539760D01*
X128994446Y-70546066D01*
X129004299Y-70553374D01*
X129013388Y-70561612D01*
X129021626Y-70570701D01*
X129028934Y-70580554D01*
X129035240Y-70591075D01*
X129040485Y-70602165D01*
X129044618Y-70613714D01*
X129047598Y-70625614D01*
X129049398Y-70637748D01*
X129050000Y-70650000D01*
X129050000Y-71900000D01*
X129049398Y-71912252D01*
X129047598Y-71924386D01*
X129044618Y-71936286D01*
X129040485Y-71947835D01*
X129035240Y-71958925D01*
X129028934Y-71969446D01*
X129021626Y-71979299D01*
X129013388Y-71988388D01*
X129004299Y-71996626D01*
X128994446Y-72003934D01*
X128983925Y-72010240D01*
X128972835Y-72015485D01*
X128961286Y-72019618D01*
X128949386Y-72022598D01*
X128937252Y-72024398D01*
X128925000Y-72025000D01*
X128675000Y-72025000D01*
X128662748Y-72024398D01*
X128650614Y-72022598D01*
X128638714Y-72019618D01*
X128627165Y-72015485D01*
X128616075Y-72010240D01*
X128605554Y-72003934D01*
X128595701Y-71996626D01*
X128586612Y-71988388D01*
X128578374Y-71979299D01*
X128571066Y-71969446D01*
X128564760Y-71958925D01*
X128559515Y-71947835D01*
X128555382Y-71936286D01*
X128552402Y-71924386D01*
X128550602Y-71912252D01*
X128550000Y-71900000D01*
X128550000Y-70650000D01*
X128550602Y-70637748D01*
X128552402Y-70625614D01*
X128555382Y-70613714D01*
X128559515Y-70602165D01*
X128564760Y-70591075D01*
X128571066Y-70580554D01*
X128578374Y-70570701D01*
X128586612Y-70561612D01*
X128595701Y-70553374D01*
X128605554Y-70546066D01*
X128616075Y-70539760D01*
X128627165Y-70534515D01*
X128638714Y-70530382D01*
X128650614Y-70527402D01*
X128662748Y-70525602D01*
X128675000Y-70525000D01*
X128925000Y-70525000D01*
X128937252Y-70525602D01*
X128937252Y-70525602D01*
G37*
D16*
X128800000Y-71275000D03*
D10*
G36*
X128062252Y-69650602D02*
G01*
X128074386Y-69652402D01*
X128086286Y-69655382D01*
X128097835Y-69659515D01*
X128108925Y-69664760D01*
X128119446Y-69671066D01*
X128129299Y-69678374D01*
X128138388Y-69686612D01*
X128146626Y-69695701D01*
X128153934Y-69705554D01*
X128160240Y-69716075D01*
X128165485Y-69727165D01*
X128169618Y-69738714D01*
X128172598Y-69750614D01*
X128174398Y-69762748D01*
X128175000Y-69775000D01*
X128175000Y-70025000D01*
X128174398Y-70037252D01*
X128172598Y-70049386D01*
X128169618Y-70061286D01*
X128165485Y-70072835D01*
X128160240Y-70083925D01*
X128153934Y-70094446D01*
X128146626Y-70104299D01*
X128138388Y-70113388D01*
X128129299Y-70121626D01*
X128119446Y-70128934D01*
X128108925Y-70135240D01*
X128097835Y-70140485D01*
X128086286Y-70144618D01*
X128074386Y-70147598D01*
X128062252Y-70149398D01*
X128050000Y-70150000D01*
X126800000Y-70150000D01*
X126787748Y-70149398D01*
X126775614Y-70147598D01*
X126763714Y-70144618D01*
X126752165Y-70140485D01*
X126741075Y-70135240D01*
X126730554Y-70128934D01*
X126720701Y-70121626D01*
X126711612Y-70113388D01*
X126703374Y-70104299D01*
X126696066Y-70094446D01*
X126689760Y-70083925D01*
X126684515Y-70072835D01*
X126680382Y-70061286D01*
X126677402Y-70049386D01*
X126675602Y-70037252D01*
X126675000Y-70025000D01*
X126675000Y-69775000D01*
X126675602Y-69762748D01*
X126677402Y-69750614D01*
X126680382Y-69738714D01*
X126684515Y-69727165D01*
X126689760Y-69716075D01*
X126696066Y-69705554D01*
X126703374Y-69695701D01*
X126711612Y-69686612D01*
X126720701Y-69678374D01*
X126730554Y-69671066D01*
X126741075Y-69664760D01*
X126752165Y-69659515D01*
X126763714Y-69655382D01*
X126775614Y-69652402D01*
X126787748Y-69650602D01*
X126800000Y-69650000D01*
X128050000Y-69650000D01*
X128062252Y-69650602D01*
X128062252Y-69650602D01*
G37*
D16*
X127425000Y-69900000D03*
D10*
G36*
X128062252Y-68850602D02*
G01*
X128074386Y-68852402D01*
X128086286Y-68855382D01*
X128097835Y-68859515D01*
X128108925Y-68864760D01*
X128119446Y-68871066D01*
X128129299Y-68878374D01*
X128138388Y-68886612D01*
X128146626Y-68895701D01*
X128153934Y-68905554D01*
X128160240Y-68916075D01*
X128165485Y-68927165D01*
X128169618Y-68938714D01*
X128172598Y-68950614D01*
X128174398Y-68962748D01*
X128175000Y-68975000D01*
X128175000Y-69225000D01*
X128174398Y-69237252D01*
X128172598Y-69249386D01*
X128169618Y-69261286D01*
X128165485Y-69272835D01*
X128160240Y-69283925D01*
X128153934Y-69294446D01*
X128146626Y-69304299D01*
X128138388Y-69313388D01*
X128129299Y-69321626D01*
X128119446Y-69328934D01*
X128108925Y-69335240D01*
X128097835Y-69340485D01*
X128086286Y-69344618D01*
X128074386Y-69347598D01*
X128062252Y-69349398D01*
X128050000Y-69350000D01*
X126800000Y-69350000D01*
X126787748Y-69349398D01*
X126775614Y-69347598D01*
X126763714Y-69344618D01*
X126752165Y-69340485D01*
X126741075Y-69335240D01*
X126730554Y-69328934D01*
X126720701Y-69321626D01*
X126711612Y-69313388D01*
X126703374Y-69304299D01*
X126696066Y-69294446D01*
X126689760Y-69283925D01*
X126684515Y-69272835D01*
X126680382Y-69261286D01*
X126677402Y-69249386D01*
X126675602Y-69237252D01*
X126675000Y-69225000D01*
X126675000Y-68975000D01*
X126675602Y-68962748D01*
X126677402Y-68950614D01*
X126680382Y-68938714D01*
X126684515Y-68927165D01*
X126689760Y-68916075D01*
X126696066Y-68905554D01*
X126703374Y-68895701D01*
X126711612Y-68886612D01*
X126720701Y-68878374D01*
X126730554Y-68871066D01*
X126741075Y-68864760D01*
X126752165Y-68859515D01*
X126763714Y-68855382D01*
X126775614Y-68852402D01*
X126787748Y-68850602D01*
X126800000Y-68850000D01*
X128050000Y-68850000D01*
X128062252Y-68850602D01*
X128062252Y-68850602D01*
G37*
D16*
X127425000Y-69100000D03*
D10*
G36*
X128062252Y-68050602D02*
G01*
X128074386Y-68052402D01*
X128086286Y-68055382D01*
X128097835Y-68059515D01*
X128108925Y-68064760D01*
X128119446Y-68071066D01*
X128129299Y-68078374D01*
X128138388Y-68086612D01*
X128146626Y-68095701D01*
X128153934Y-68105554D01*
X128160240Y-68116075D01*
X128165485Y-68127165D01*
X128169618Y-68138714D01*
X128172598Y-68150614D01*
X128174398Y-68162748D01*
X128175000Y-68175000D01*
X128175000Y-68425000D01*
X128174398Y-68437252D01*
X128172598Y-68449386D01*
X128169618Y-68461286D01*
X128165485Y-68472835D01*
X128160240Y-68483925D01*
X128153934Y-68494446D01*
X128146626Y-68504299D01*
X128138388Y-68513388D01*
X128129299Y-68521626D01*
X128119446Y-68528934D01*
X128108925Y-68535240D01*
X128097835Y-68540485D01*
X128086286Y-68544618D01*
X128074386Y-68547598D01*
X128062252Y-68549398D01*
X128050000Y-68550000D01*
X126800000Y-68550000D01*
X126787748Y-68549398D01*
X126775614Y-68547598D01*
X126763714Y-68544618D01*
X126752165Y-68540485D01*
X126741075Y-68535240D01*
X126730554Y-68528934D01*
X126720701Y-68521626D01*
X126711612Y-68513388D01*
X126703374Y-68504299D01*
X126696066Y-68494446D01*
X126689760Y-68483925D01*
X126684515Y-68472835D01*
X126680382Y-68461286D01*
X126677402Y-68449386D01*
X126675602Y-68437252D01*
X126675000Y-68425000D01*
X126675000Y-68175000D01*
X126675602Y-68162748D01*
X126677402Y-68150614D01*
X126680382Y-68138714D01*
X126684515Y-68127165D01*
X126689760Y-68116075D01*
X126696066Y-68105554D01*
X126703374Y-68095701D01*
X126711612Y-68086612D01*
X126720701Y-68078374D01*
X126730554Y-68071066D01*
X126741075Y-68064760D01*
X126752165Y-68059515D01*
X126763714Y-68055382D01*
X126775614Y-68052402D01*
X126787748Y-68050602D01*
X126800000Y-68050000D01*
X128050000Y-68050000D01*
X128062252Y-68050602D01*
X128062252Y-68050602D01*
G37*
D16*
X127425000Y-68300000D03*
D10*
G36*
X128062252Y-67250602D02*
G01*
X128074386Y-67252402D01*
X128086286Y-67255382D01*
X128097835Y-67259515D01*
X128108925Y-67264760D01*
X128119446Y-67271066D01*
X128129299Y-67278374D01*
X128138388Y-67286612D01*
X128146626Y-67295701D01*
X128153934Y-67305554D01*
X128160240Y-67316075D01*
X128165485Y-67327165D01*
X128169618Y-67338714D01*
X128172598Y-67350614D01*
X128174398Y-67362748D01*
X128175000Y-67375000D01*
X128175000Y-67625000D01*
X128174398Y-67637252D01*
X128172598Y-67649386D01*
X128169618Y-67661286D01*
X128165485Y-67672835D01*
X128160240Y-67683925D01*
X128153934Y-67694446D01*
X128146626Y-67704299D01*
X128138388Y-67713388D01*
X128129299Y-67721626D01*
X128119446Y-67728934D01*
X128108925Y-67735240D01*
X128097835Y-67740485D01*
X128086286Y-67744618D01*
X128074386Y-67747598D01*
X128062252Y-67749398D01*
X128050000Y-67750000D01*
X126800000Y-67750000D01*
X126787748Y-67749398D01*
X126775614Y-67747598D01*
X126763714Y-67744618D01*
X126752165Y-67740485D01*
X126741075Y-67735240D01*
X126730554Y-67728934D01*
X126720701Y-67721626D01*
X126711612Y-67713388D01*
X126703374Y-67704299D01*
X126696066Y-67694446D01*
X126689760Y-67683925D01*
X126684515Y-67672835D01*
X126680382Y-67661286D01*
X126677402Y-67649386D01*
X126675602Y-67637252D01*
X126675000Y-67625000D01*
X126675000Y-67375000D01*
X126675602Y-67362748D01*
X126677402Y-67350614D01*
X126680382Y-67338714D01*
X126684515Y-67327165D01*
X126689760Y-67316075D01*
X126696066Y-67305554D01*
X126703374Y-67295701D01*
X126711612Y-67286612D01*
X126720701Y-67278374D01*
X126730554Y-67271066D01*
X126741075Y-67264760D01*
X126752165Y-67259515D01*
X126763714Y-67255382D01*
X126775614Y-67252402D01*
X126787748Y-67250602D01*
X126800000Y-67250000D01*
X128050000Y-67250000D01*
X128062252Y-67250602D01*
X128062252Y-67250602D01*
G37*
D16*
X127425000Y-67500000D03*
D10*
G36*
X128062252Y-66450602D02*
G01*
X128074386Y-66452402D01*
X128086286Y-66455382D01*
X128097835Y-66459515D01*
X128108925Y-66464760D01*
X128119446Y-66471066D01*
X128129299Y-66478374D01*
X128138388Y-66486612D01*
X128146626Y-66495701D01*
X128153934Y-66505554D01*
X128160240Y-66516075D01*
X128165485Y-66527165D01*
X128169618Y-66538714D01*
X128172598Y-66550614D01*
X128174398Y-66562748D01*
X128175000Y-66575000D01*
X128175000Y-66825000D01*
X128174398Y-66837252D01*
X128172598Y-66849386D01*
X128169618Y-66861286D01*
X128165485Y-66872835D01*
X128160240Y-66883925D01*
X128153934Y-66894446D01*
X128146626Y-66904299D01*
X128138388Y-66913388D01*
X128129299Y-66921626D01*
X128119446Y-66928934D01*
X128108925Y-66935240D01*
X128097835Y-66940485D01*
X128086286Y-66944618D01*
X128074386Y-66947598D01*
X128062252Y-66949398D01*
X128050000Y-66950000D01*
X126800000Y-66950000D01*
X126787748Y-66949398D01*
X126775614Y-66947598D01*
X126763714Y-66944618D01*
X126752165Y-66940485D01*
X126741075Y-66935240D01*
X126730554Y-66928934D01*
X126720701Y-66921626D01*
X126711612Y-66913388D01*
X126703374Y-66904299D01*
X126696066Y-66894446D01*
X126689760Y-66883925D01*
X126684515Y-66872835D01*
X126680382Y-66861286D01*
X126677402Y-66849386D01*
X126675602Y-66837252D01*
X126675000Y-66825000D01*
X126675000Y-66575000D01*
X126675602Y-66562748D01*
X126677402Y-66550614D01*
X126680382Y-66538714D01*
X126684515Y-66527165D01*
X126689760Y-66516075D01*
X126696066Y-66505554D01*
X126703374Y-66495701D01*
X126711612Y-66486612D01*
X126720701Y-66478374D01*
X126730554Y-66471066D01*
X126741075Y-66464760D01*
X126752165Y-66459515D01*
X126763714Y-66455382D01*
X126775614Y-66452402D01*
X126787748Y-66450602D01*
X126800000Y-66450000D01*
X128050000Y-66450000D01*
X128062252Y-66450602D01*
X128062252Y-66450602D01*
G37*
D16*
X127425000Y-66700000D03*
D10*
G36*
X128062252Y-65650602D02*
G01*
X128074386Y-65652402D01*
X128086286Y-65655382D01*
X128097835Y-65659515D01*
X128108925Y-65664760D01*
X128119446Y-65671066D01*
X128129299Y-65678374D01*
X128138388Y-65686612D01*
X128146626Y-65695701D01*
X128153934Y-65705554D01*
X128160240Y-65716075D01*
X128165485Y-65727165D01*
X128169618Y-65738714D01*
X128172598Y-65750614D01*
X128174398Y-65762748D01*
X128175000Y-65775000D01*
X128175000Y-66025000D01*
X128174398Y-66037252D01*
X128172598Y-66049386D01*
X128169618Y-66061286D01*
X128165485Y-66072835D01*
X128160240Y-66083925D01*
X128153934Y-66094446D01*
X128146626Y-66104299D01*
X128138388Y-66113388D01*
X128129299Y-66121626D01*
X128119446Y-66128934D01*
X128108925Y-66135240D01*
X128097835Y-66140485D01*
X128086286Y-66144618D01*
X128074386Y-66147598D01*
X128062252Y-66149398D01*
X128050000Y-66150000D01*
X126800000Y-66150000D01*
X126787748Y-66149398D01*
X126775614Y-66147598D01*
X126763714Y-66144618D01*
X126752165Y-66140485D01*
X126741075Y-66135240D01*
X126730554Y-66128934D01*
X126720701Y-66121626D01*
X126711612Y-66113388D01*
X126703374Y-66104299D01*
X126696066Y-66094446D01*
X126689760Y-66083925D01*
X126684515Y-66072835D01*
X126680382Y-66061286D01*
X126677402Y-66049386D01*
X126675602Y-66037252D01*
X126675000Y-66025000D01*
X126675000Y-65775000D01*
X126675602Y-65762748D01*
X126677402Y-65750614D01*
X126680382Y-65738714D01*
X126684515Y-65727165D01*
X126689760Y-65716075D01*
X126696066Y-65705554D01*
X126703374Y-65695701D01*
X126711612Y-65686612D01*
X126720701Y-65678374D01*
X126730554Y-65671066D01*
X126741075Y-65664760D01*
X126752165Y-65659515D01*
X126763714Y-65655382D01*
X126775614Y-65652402D01*
X126787748Y-65650602D01*
X126800000Y-65650000D01*
X128050000Y-65650000D01*
X128062252Y-65650602D01*
X128062252Y-65650602D01*
G37*
D16*
X127425000Y-65900000D03*
D10*
G36*
X128062252Y-64850602D02*
G01*
X128074386Y-64852402D01*
X128086286Y-64855382D01*
X128097835Y-64859515D01*
X128108925Y-64864760D01*
X128119446Y-64871066D01*
X128129299Y-64878374D01*
X128138388Y-64886612D01*
X128146626Y-64895701D01*
X128153934Y-64905554D01*
X128160240Y-64916075D01*
X128165485Y-64927165D01*
X128169618Y-64938714D01*
X128172598Y-64950614D01*
X128174398Y-64962748D01*
X128175000Y-64975000D01*
X128175000Y-65225000D01*
X128174398Y-65237252D01*
X128172598Y-65249386D01*
X128169618Y-65261286D01*
X128165485Y-65272835D01*
X128160240Y-65283925D01*
X128153934Y-65294446D01*
X128146626Y-65304299D01*
X128138388Y-65313388D01*
X128129299Y-65321626D01*
X128119446Y-65328934D01*
X128108925Y-65335240D01*
X128097835Y-65340485D01*
X128086286Y-65344618D01*
X128074386Y-65347598D01*
X128062252Y-65349398D01*
X128050000Y-65350000D01*
X126800000Y-65350000D01*
X126787748Y-65349398D01*
X126775614Y-65347598D01*
X126763714Y-65344618D01*
X126752165Y-65340485D01*
X126741075Y-65335240D01*
X126730554Y-65328934D01*
X126720701Y-65321626D01*
X126711612Y-65313388D01*
X126703374Y-65304299D01*
X126696066Y-65294446D01*
X126689760Y-65283925D01*
X126684515Y-65272835D01*
X126680382Y-65261286D01*
X126677402Y-65249386D01*
X126675602Y-65237252D01*
X126675000Y-65225000D01*
X126675000Y-64975000D01*
X126675602Y-64962748D01*
X126677402Y-64950614D01*
X126680382Y-64938714D01*
X126684515Y-64927165D01*
X126689760Y-64916075D01*
X126696066Y-64905554D01*
X126703374Y-64895701D01*
X126711612Y-64886612D01*
X126720701Y-64878374D01*
X126730554Y-64871066D01*
X126741075Y-64864760D01*
X126752165Y-64859515D01*
X126763714Y-64855382D01*
X126775614Y-64852402D01*
X126787748Y-64850602D01*
X126800000Y-64850000D01*
X128050000Y-64850000D01*
X128062252Y-64850602D01*
X128062252Y-64850602D01*
G37*
D16*
X127425000Y-65100000D03*
D10*
G36*
X128062252Y-64050602D02*
G01*
X128074386Y-64052402D01*
X128086286Y-64055382D01*
X128097835Y-64059515D01*
X128108925Y-64064760D01*
X128119446Y-64071066D01*
X128129299Y-64078374D01*
X128138388Y-64086612D01*
X128146626Y-64095701D01*
X128153934Y-64105554D01*
X128160240Y-64116075D01*
X128165485Y-64127165D01*
X128169618Y-64138714D01*
X128172598Y-64150614D01*
X128174398Y-64162748D01*
X128175000Y-64175000D01*
X128175000Y-64425000D01*
X128174398Y-64437252D01*
X128172598Y-64449386D01*
X128169618Y-64461286D01*
X128165485Y-64472835D01*
X128160240Y-64483925D01*
X128153934Y-64494446D01*
X128146626Y-64504299D01*
X128138388Y-64513388D01*
X128129299Y-64521626D01*
X128119446Y-64528934D01*
X128108925Y-64535240D01*
X128097835Y-64540485D01*
X128086286Y-64544618D01*
X128074386Y-64547598D01*
X128062252Y-64549398D01*
X128050000Y-64550000D01*
X126800000Y-64550000D01*
X126787748Y-64549398D01*
X126775614Y-64547598D01*
X126763714Y-64544618D01*
X126752165Y-64540485D01*
X126741075Y-64535240D01*
X126730554Y-64528934D01*
X126720701Y-64521626D01*
X126711612Y-64513388D01*
X126703374Y-64504299D01*
X126696066Y-64494446D01*
X126689760Y-64483925D01*
X126684515Y-64472835D01*
X126680382Y-64461286D01*
X126677402Y-64449386D01*
X126675602Y-64437252D01*
X126675000Y-64425000D01*
X126675000Y-64175000D01*
X126675602Y-64162748D01*
X126677402Y-64150614D01*
X126680382Y-64138714D01*
X126684515Y-64127165D01*
X126689760Y-64116075D01*
X126696066Y-64105554D01*
X126703374Y-64095701D01*
X126711612Y-64086612D01*
X126720701Y-64078374D01*
X126730554Y-64071066D01*
X126741075Y-64064760D01*
X126752165Y-64059515D01*
X126763714Y-64055382D01*
X126775614Y-64052402D01*
X126787748Y-64050602D01*
X126800000Y-64050000D01*
X128050000Y-64050000D01*
X128062252Y-64050602D01*
X128062252Y-64050602D01*
G37*
D16*
X127425000Y-64300000D03*
D10*
G36*
X128937252Y-62175602D02*
G01*
X128949386Y-62177402D01*
X128961286Y-62180382D01*
X128972835Y-62184515D01*
X128983925Y-62189760D01*
X128994446Y-62196066D01*
X129004299Y-62203374D01*
X129013388Y-62211612D01*
X129021626Y-62220701D01*
X129028934Y-62230554D01*
X129035240Y-62241075D01*
X129040485Y-62252165D01*
X129044618Y-62263714D01*
X129047598Y-62275614D01*
X129049398Y-62287748D01*
X129050000Y-62300000D01*
X129050000Y-63550000D01*
X129049398Y-63562252D01*
X129047598Y-63574386D01*
X129044618Y-63586286D01*
X129040485Y-63597835D01*
X129035240Y-63608925D01*
X129028934Y-63619446D01*
X129021626Y-63629299D01*
X129013388Y-63638388D01*
X129004299Y-63646626D01*
X128994446Y-63653934D01*
X128983925Y-63660240D01*
X128972835Y-63665485D01*
X128961286Y-63669618D01*
X128949386Y-63672598D01*
X128937252Y-63674398D01*
X128925000Y-63675000D01*
X128675000Y-63675000D01*
X128662748Y-63674398D01*
X128650614Y-63672598D01*
X128638714Y-63669618D01*
X128627165Y-63665485D01*
X128616075Y-63660240D01*
X128605554Y-63653934D01*
X128595701Y-63646626D01*
X128586612Y-63638388D01*
X128578374Y-63629299D01*
X128571066Y-63619446D01*
X128564760Y-63608925D01*
X128559515Y-63597835D01*
X128555382Y-63586286D01*
X128552402Y-63574386D01*
X128550602Y-63562252D01*
X128550000Y-63550000D01*
X128550000Y-62300000D01*
X128550602Y-62287748D01*
X128552402Y-62275614D01*
X128555382Y-62263714D01*
X128559515Y-62252165D01*
X128564760Y-62241075D01*
X128571066Y-62230554D01*
X128578374Y-62220701D01*
X128586612Y-62211612D01*
X128595701Y-62203374D01*
X128605554Y-62196066D01*
X128616075Y-62189760D01*
X128627165Y-62184515D01*
X128638714Y-62180382D01*
X128650614Y-62177402D01*
X128662748Y-62175602D01*
X128675000Y-62175000D01*
X128925000Y-62175000D01*
X128937252Y-62175602D01*
X128937252Y-62175602D01*
G37*
D16*
X128800000Y-62925000D03*
D10*
G36*
X129737252Y-62175602D02*
G01*
X129749386Y-62177402D01*
X129761286Y-62180382D01*
X129772835Y-62184515D01*
X129783925Y-62189760D01*
X129794446Y-62196066D01*
X129804299Y-62203374D01*
X129813388Y-62211612D01*
X129821626Y-62220701D01*
X129828934Y-62230554D01*
X129835240Y-62241075D01*
X129840485Y-62252165D01*
X129844618Y-62263714D01*
X129847598Y-62275614D01*
X129849398Y-62287748D01*
X129850000Y-62300000D01*
X129850000Y-63550000D01*
X129849398Y-63562252D01*
X129847598Y-63574386D01*
X129844618Y-63586286D01*
X129840485Y-63597835D01*
X129835240Y-63608925D01*
X129828934Y-63619446D01*
X129821626Y-63629299D01*
X129813388Y-63638388D01*
X129804299Y-63646626D01*
X129794446Y-63653934D01*
X129783925Y-63660240D01*
X129772835Y-63665485D01*
X129761286Y-63669618D01*
X129749386Y-63672598D01*
X129737252Y-63674398D01*
X129725000Y-63675000D01*
X129475000Y-63675000D01*
X129462748Y-63674398D01*
X129450614Y-63672598D01*
X129438714Y-63669618D01*
X129427165Y-63665485D01*
X129416075Y-63660240D01*
X129405554Y-63653934D01*
X129395701Y-63646626D01*
X129386612Y-63638388D01*
X129378374Y-63629299D01*
X129371066Y-63619446D01*
X129364760Y-63608925D01*
X129359515Y-63597835D01*
X129355382Y-63586286D01*
X129352402Y-63574386D01*
X129350602Y-63562252D01*
X129350000Y-63550000D01*
X129350000Y-62300000D01*
X129350602Y-62287748D01*
X129352402Y-62275614D01*
X129355382Y-62263714D01*
X129359515Y-62252165D01*
X129364760Y-62241075D01*
X129371066Y-62230554D01*
X129378374Y-62220701D01*
X129386612Y-62211612D01*
X129395701Y-62203374D01*
X129405554Y-62196066D01*
X129416075Y-62189760D01*
X129427165Y-62184515D01*
X129438714Y-62180382D01*
X129450614Y-62177402D01*
X129462748Y-62175602D01*
X129475000Y-62175000D01*
X129725000Y-62175000D01*
X129737252Y-62175602D01*
X129737252Y-62175602D01*
G37*
D16*
X129600000Y-62925000D03*
D10*
G36*
X130537252Y-62175602D02*
G01*
X130549386Y-62177402D01*
X130561286Y-62180382D01*
X130572835Y-62184515D01*
X130583925Y-62189760D01*
X130594446Y-62196066D01*
X130604299Y-62203374D01*
X130613388Y-62211612D01*
X130621626Y-62220701D01*
X130628934Y-62230554D01*
X130635240Y-62241075D01*
X130640485Y-62252165D01*
X130644618Y-62263714D01*
X130647598Y-62275614D01*
X130649398Y-62287748D01*
X130650000Y-62300000D01*
X130650000Y-63550000D01*
X130649398Y-63562252D01*
X130647598Y-63574386D01*
X130644618Y-63586286D01*
X130640485Y-63597835D01*
X130635240Y-63608925D01*
X130628934Y-63619446D01*
X130621626Y-63629299D01*
X130613388Y-63638388D01*
X130604299Y-63646626D01*
X130594446Y-63653934D01*
X130583925Y-63660240D01*
X130572835Y-63665485D01*
X130561286Y-63669618D01*
X130549386Y-63672598D01*
X130537252Y-63674398D01*
X130525000Y-63675000D01*
X130275000Y-63675000D01*
X130262748Y-63674398D01*
X130250614Y-63672598D01*
X130238714Y-63669618D01*
X130227165Y-63665485D01*
X130216075Y-63660240D01*
X130205554Y-63653934D01*
X130195701Y-63646626D01*
X130186612Y-63638388D01*
X130178374Y-63629299D01*
X130171066Y-63619446D01*
X130164760Y-63608925D01*
X130159515Y-63597835D01*
X130155382Y-63586286D01*
X130152402Y-63574386D01*
X130150602Y-63562252D01*
X130150000Y-63550000D01*
X130150000Y-62300000D01*
X130150602Y-62287748D01*
X130152402Y-62275614D01*
X130155382Y-62263714D01*
X130159515Y-62252165D01*
X130164760Y-62241075D01*
X130171066Y-62230554D01*
X130178374Y-62220701D01*
X130186612Y-62211612D01*
X130195701Y-62203374D01*
X130205554Y-62196066D01*
X130216075Y-62189760D01*
X130227165Y-62184515D01*
X130238714Y-62180382D01*
X130250614Y-62177402D01*
X130262748Y-62175602D01*
X130275000Y-62175000D01*
X130525000Y-62175000D01*
X130537252Y-62175602D01*
X130537252Y-62175602D01*
G37*
D16*
X130400000Y-62925000D03*
D10*
G36*
X131337252Y-62175602D02*
G01*
X131349386Y-62177402D01*
X131361286Y-62180382D01*
X131372835Y-62184515D01*
X131383925Y-62189760D01*
X131394446Y-62196066D01*
X131404299Y-62203374D01*
X131413388Y-62211612D01*
X131421626Y-62220701D01*
X131428934Y-62230554D01*
X131435240Y-62241075D01*
X131440485Y-62252165D01*
X131444618Y-62263714D01*
X131447598Y-62275614D01*
X131449398Y-62287748D01*
X131450000Y-62300000D01*
X131450000Y-63550000D01*
X131449398Y-63562252D01*
X131447598Y-63574386D01*
X131444618Y-63586286D01*
X131440485Y-63597835D01*
X131435240Y-63608925D01*
X131428934Y-63619446D01*
X131421626Y-63629299D01*
X131413388Y-63638388D01*
X131404299Y-63646626D01*
X131394446Y-63653934D01*
X131383925Y-63660240D01*
X131372835Y-63665485D01*
X131361286Y-63669618D01*
X131349386Y-63672598D01*
X131337252Y-63674398D01*
X131325000Y-63675000D01*
X131075000Y-63675000D01*
X131062748Y-63674398D01*
X131050614Y-63672598D01*
X131038714Y-63669618D01*
X131027165Y-63665485D01*
X131016075Y-63660240D01*
X131005554Y-63653934D01*
X130995701Y-63646626D01*
X130986612Y-63638388D01*
X130978374Y-63629299D01*
X130971066Y-63619446D01*
X130964760Y-63608925D01*
X130959515Y-63597835D01*
X130955382Y-63586286D01*
X130952402Y-63574386D01*
X130950602Y-63562252D01*
X130950000Y-63550000D01*
X130950000Y-62300000D01*
X130950602Y-62287748D01*
X130952402Y-62275614D01*
X130955382Y-62263714D01*
X130959515Y-62252165D01*
X130964760Y-62241075D01*
X130971066Y-62230554D01*
X130978374Y-62220701D01*
X130986612Y-62211612D01*
X130995701Y-62203374D01*
X131005554Y-62196066D01*
X131016075Y-62189760D01*
X131027165Y-62184515D01*
X131038714Y-62180382D01*
X131050614Y-62177402D01*
X131062748Y-62175602D01*
X131075000Y-62175000D01*
X131325000Y-62175000D01*
X131337252Y-62175602D01*
X131337252Y-62175602D01*
G37*
D16*
X131200000Y-62925000D03*
D10*
G36*
X132137252Y-62175602D02*
G01*
X132149386Y-62177402D01*
X132161286Y-62180382D01*
X132172835Y-62184515D01*
X132183925Y-62189760D01*
X132194446Y-62196066D01*
X132204299Y-62203374D01*
X132213388Y-62211612D01*
X132221626Y-62220701D01*
X132228934Y-62230554D01*
X132235240Y-62241075D01*
X132240485Y-62252165D01*
X132244618Y-62263714D01*
X132247598Y-62275614D01*
X132249398Y-62287748D01*
X132250000Y-62300000D01*
X132250000Y-63550000D01*
X132249398Y-63562252D01*
X132247598Y-63574386D01*
X132244618Y-63586286D01*
X132240485Y-63597835D01*
X132235240Y-63608925D01*
X132228934Y-63619446D01*
X132221626Y-63629299D01*
X132213388Y-63638388D01*
X132204299Y-63646626D01*
X132194446Y-63653934D01*
X132183925Y-63660240D01*
X132172835Y-63665485D01*
X132161286Y-63669618D01*
X132149386Y-63672598D01*
X132137252Y-63674398D01*
X132125000Y-63675000D01*
X131875000Y-63675000D01*
X131862748Y-63674398D01*
X131850614Y-63672598D01*
X131838714Y-63669618D01*
X131827165Y-63665485D01*
X131816075Y-63660240D01*
X131805554Y-63653934D01*
X131795701Y-63646626D01*
X131786612Y-63638388D01*
X131778374Y-63629299D01*
X131771066Y-63619446D01*
X131764760Y-63608925D01*
X131759515Y-63597835D01*
X131755382Y-63586286D01*
X131752402Y-63574386D01*
X131750602Y-63562252D01*
X131750000Y-63550000D01*
X131750000Y-62300000D01*
X131750602Y-62287748D01*
X131752402Y-62275614D01*
X131755382Y-62263714D01*
X131759515Y-62252165D01*
X131764760Y-62241075D01*
X131771066Y-62230554D01*
X131778374Y-62220701D01*
X131786612Y-62211612D01*
X131795701Y-62203374D01*
X131805554Y-62196066D01*
X131816075Y-62189760D01*
X131827165Y-62184515D01*
X131838714Y-62180382D01*
X131850614Y-62177402D01*
X131862748Y-62175602D01*
X131875000Y-62175000D01*
X132125000Y-62175000D01*
X132137252Y-62175602D01*
X132137252Y-62175602D01*
G37*
D16*
X132000000Y-62925000D03*
D10*
G36*
X132937252Y-62175602D02*
G01*
X132949386Y-62177402D01*
X132961286Y-62180382D01*
X132972835Y-62184515D01*
X132983925Y-62189760D01*
X132994446Y-62196066D01*
X133004299Y-62203374D01*
X133013388Y-62211612D01*
X133021626Y-62220701D01*
X133028934Y-62230554D01*
X133035240Y-62241075D01*
X133040485Y-62252165D01*
X133044618Y-62263714D01*
X133047598Y-62275614D01*
X133049398Y-62287748D01*
X133050000Y-62300000D01*
X133050000Y-63550000D01*
X133049398Y-63562252D01*
X133047598Y-63574386D01*
X133044618Y-63586286D01*
X133040485Y-63597835D01*
X133035240Y-63608925D01*
X133028934Y-63619446D01*
X133021626Y-63629299D01*
X133013388Y-63638388D01*
X133004299Y-63646626D01*
X132994446Y-63653934D01*
X132983925Y-63660240D01*
X132972835Y-63665485D01*
X132961286Y-63669618D01*
X132949386Y-63672598D01*
X132937252Y-63674398D01*
X132925000Y-63675000D01*
X132675000Y-63675000D01*
X132662748Y-63674398D01*
X132650614Y-63672598D01*
X132638714Y-63669618D01*
X132627165Y-63665485D01*
X132616075Y-63660240D01*
X132605554Y-63653934D01*
X132595701Y-63646626D01*
X132586612Y-63638388D01*
X132578374Y-63629299D01*
X132571066Y-63619446D01*
X132564760Y-63608925D01*
X132559515Y-63597835D01*
X132555382Y-63586286D01*
X132552402Y-63574386D01*
X132550602Y-63562252D01*
X132550000Y-63550000D01*
X132550000Y-62300000D01*
X132550602Y-62287748D01*
X132552402Y-62275614D01*
X132555382Y-62263714D01*
X132559515Y-62252165D01*
X132564760Y-62241075D01*
X132571066Y-62230554D01*
X132578374Y-62220701D01*
X132586612Y-62211612D01*
X132595701Y-62203374D01*
X132605554Y-62196066D01*
X132616075Y-62189760D01*
X132627165Y-62184515D01*
X132638714Y-62180382D01*
X132650614Y-62177402D01*
X132662748Y-62175602D01*
X132675000Y-62175000D01*
X132925000Y-62175000D01*
X132937252Y-62175602D01*
X132937252Y-62175602D01*
G37*
D16*
X132800000Y-62925000D03*
D10*
G36*
X133737252Y-62175602D02*
G01*
X133749386Y-62177402D01*
X133761286Y-62180382D01*
X133772835Y-62184515D01*
X133783925Y-62189760D01*
X133794446Y-62196066D01*
X133804299Y-62203374D01*
X133813388Y-62211612D01*
X133821626Y-62220701D01*
X133828934Y-62230554D01*
X133835240Y-62241075D01*
X133840485Y-62252165D01*
X133844618Y-62263714D01*
X133847598Y-62275614D01*
X133849398Y-62287748D01*
X133850000Y-62300000D01*
X133850000Y-63550000D01*
X133849398Y-63562252D01*
X133847598Y-63574386D01*
X133844618Y-63586286D01*
X133840485Y-63597835D01*
X133835240Y-63608925D01*
X133828934Y-63619446D01*
X133821626Y-63629299D01*
X133813388Y-63638388D01*
X133804299Y-63646626D01*
X133794446Y-63653934D01*
X133783925Y-63660240D01*
X133772835Y-63665485D01*
X133761286Y-63669618D01*
X133749386Y-63672598D01*
X133737252Y-63674398D01*
X133725000Y-63675000D01*
X133475000Y-63675000D01*
X133462748Y-63674398D01*
X133450614Y-63672598D01*
X133438714Y-63669618D01*
X133427165Y-63665485D01*
X133416075Y-63660240D01*
X133405554Y-63653934D01*
X133395701Y-63646626D01*
X133386612Y-63638388D01*
X133378374Y-63629299D01*
X133371066Y-63619446D01*
X133364760Y-63608925D01*
X133359515Y-63597835D01*
X133355382Y-63586286D01*
X133352402Y-63574386D01*
X133350602Y-63562252D01*
X133350000Y-63550000D01*
X133350000Y-62300000D01*
X133350602Y-62287748D01*
X133352402Y-62275614D01*
X133355382Y-62263714D01*
X133359515Y-62252165D01*
X133364760Y-62241075D01*
X133371066Y-62230554D01*
X133378374Y-62220701D01*
X133386612Y-62211612D01*
X133395701Y-62203374D01*
X133405554Y-62196066D01*
X133416075Y-62189760D01*
X133427165Y-62184515D01*
X133438714Y-62180382D01*
X133450614Y-62177402D01*
X133462748Y-62175602D01*
X133475000Y-62175000D01*
X133725000Y-62175000D01*
X133737252Y-62175602D01*
X133737252Y-62175602D01*
G37*
D16*
X133600000Y-62925000D03*
D10*
G36*
X134537252Y-62175602D02*
G01*
X134549386Y-62177402D01*
X134561286Y-62180382D01*
X134572835Y-62184515D01*
X134583925Y-62189760D01*
X134594446Y-62196066D01*
X134604299Y-62203374D01*
X134613388Y-62211612D01*
X134621626Y-62220701D01*
X134628934Y-62230554D01*
X134635240Y-62241075D01*
X134640485Y-62252165D01*
X134644618Y-62263714D01*
X134647598Y-62275614D01*
X134649398Y-62287748D01*
X134650000Y-62300000D01*
X134650000Y-63550000D01*
X134649398Y-63562252D01*
X134647598Y-63574386D01*
X134644618Y-63586286D01*
X134640485Y-63597835D01*
X134635240Y-63608925D01*
X134628934Y-63619446D01*
X134621626Y-63629299D01*
X134613388Y-63638388D01*
X134604299Y-63646626D01*
X134594446Y-63653934D01*
X134583925Y-63660240D01*
X134572835Y-63665485D01*
X134561286Y-63669618D01*
X134549386Y-63672598D01*
X134537252Y-63674398D01*
X134525000Y-63675000D01*
X134275000Y-63675000D01*
X134262748Y-63674398D01*
X134250614Y-63672598D01*
X134238714Y-63669618D01*
X134227165Y-63665485D01*
X134216075Y-63660240D01*
X134205554Y-63653934D01*
X134195701Y-63646626D01*
X134186612Y-63638388D01*
X134178374Y-63629299D01*
X134171066Y-63619446D01*
X134164760Y-63608925D01*
X134159515Y-63597835D01*
X134155382Y-63586286D01*
X134152402Y-63574386D01*
X134150602Y-63562252D01*
X134150000Y-63550000D01*
X134150000Y-62300000D01*
X134150602Y-62287748D01*
X134152402Y-62275614D01*
X134155382Y-62263714D01*
X134159515Y-62252165D01*
X134164760Y-62241075D01*
X134171066Y-62230554D01*
X134178374Y-62220701D01*
X134186612Y-62211612D01*
X134195701Y-62203374D01*
X134205554Y-62196066D01*
X134216075Y-62189760D01*
X134227165Y-62184515D01*
X134238714Y-62180382D01*
X134250614Y-62177402D01*
X134262748Y-62175602D01*
X134275000Y-62175000D01*
X134525000Y-62175000D01*
X134537252Y-62175602D01*
X134537252Y-62175602D01*
G37*
D16*
X134400000Y-62925000D03*
D17*
X172120000Y-74270000D03*
X176620000Y-74270000D03*
X176620000Y-66310000D03*
X172120000Y-66310000D03*
D10*
G36*
X124677691Y-55276053D02*
G01*
X124698926Y-55279203D01*
X124719750Y-55284419D01*
X124739962Y-55291651D01*
X124759368Y-55300830D01*
X124777781Y-55311866D01*
X124795024Y-55324654D01*
X124810930Y-55339070D01*
X124825346Y-55354976D01*
X124838134Y-55372219D01*
X124849170Y-55390632D01*
X124858349Y-55410038D01*
X124865581Y-55430250D01*
X124870797Y-55451074D01*
X124873947Y-55472309D01*
X124875000Y-55493750D01*
X124875000Y-55931250D01*
X124873947Y-55952691D01*
X124870797Y-55973926D01*
X124865581Y-55994750D01*
X124858349Y-56014962D01*
X124849170Y-56034368D01*
X124838134Y-56052781D01*
X124825346Y-56070024D01*
X124810930Y-56085930D01*
X124795024Y-56100346D01*
X124777781Y-56113134D01*
X124759368Y-56124170D01*
X124739962Y-56133349D01*
X124719750Y-56140581D01*
X124698926Y-56145797D01*
X124677691Y-56148947D01*
X124656250Y-56150000D01*
X124143750Y-56150000D01*
X124122309Y-56148947D01*
X124101074Y-56145797D01*
X124080250Y-56140581D01*
X124060038Y-56133349D01*
X124040632Y-56124170D01*
X124022219Y-56113134D01*
X124004976Y-56100346D01*
X123989070Y-56085930D01*
X123974654Y-56070024D01*
X123961866Y-56052781D01*
X123950830Y-56034368D01*
X123941651Y-56014962D01*
X123934419Y-55994750D01*
X123929203Y-55973926D01*
X123926053Y-55952691D01*
X123925000Y-55931250D01*
X123925000Y-55493750D01*
X123926053Y-55472309D01*
X123929203Y-55451074D01*
X123934419Y-55430250D01*
X123941651Y-55410038D01*
X123950830Y-55390632D01*
X123961866Y-55372219D01*
X123974654Y-55354976D01*
X123989070Y-55339070D01*
X124004976Y-55324654D01*
X124022219Y-55311866D01*
X124040632Y-55300830D01*
X124060038Y-55291651D01*
X124080250Y-55284419D01*
X124101074Y-55279203D01*
X124122309Y-55276053D01*
X124143750Y-55275000D01*
X124656250Y-55275000D01*
X124677691Y-55276053D01*
X124677691Y-55276053D01*
G37*
D11*
X124400000Y-55712500D03*
D10*
G36*
X124677691Y-56851053D02*
G01*
X124698926Y-56854203D01*
X124719750Y-56859419D01*
X124739962Y-56866651D01*
X124759368Y-56875830D01*
X124777781Y-56886866D01*
X124795024Y-56899654D01*
X124810930Y-56914070D01*
X124825346Y-56929976D01*
X124838134Y-56947219D01*
X124849170Y-56965632D01*
X124858349Y-56985038D01*
X124865581Y-57005250D01*
X124870797Y-57026074D01*
X124873947Y-57047309D01*
X124875000Y-57068750D01*
X124875000Y-57506250D01*
X124873947Y-57527691D01*
X124870797Y-57548926D01*
X124865581Y-57569750D01*
X124858349Y-57589962D01*
X124849170Y-57609368D01*
X124838134Y-57627781D01*
X124825346Y-57645024D01*
X124810930Y-57660930D01*
X124795024Y-57675346D01*
X124777781Y-57688134D01*
X124759368Y-57699170D01*
X124739962Y-57708349D01*
X124719750Y-57715581D01*
X124698926Y-57720797D01*
X124677691Y-57723947D01*
X124656250Y-57725000D01*
X124143750Y-57725000D01*
X124122309Y-57723947D01*
X124101074Y-57720797D01*
X124080250Y-57715581D01*
X124060038Y-57708349D01*
X124040632Y-57699170D01*
X124022219Y-57688134D01*
X124004976Y-57675346D01*
X123989070Y-57660930D01*
X123974654Y-57645024D01*
X123961866Y-57627781D01*
X123950830Y-57609368D01*
X123941651Y-57589962D01*
X123934419Y-57569750D01*
X123929203Y-57548926D01*
X123926053Y-57527691D01*
X123925000Y-57506250D01*
X123925000Y-57068750D01*
X123926053Y-57047309D01*
X123929203Y-57026074D01*
X123934419Y-57005250D01*
X123941651Y-56985038D01*
X123950830Y-56965632D01*
X123961866Y-56947219D01*
X123974654Y-56929976D01*
X123989070Y-56914070D01*
X124004976Y-56899654D01*
X124022219Y-56886866D01*
X124040632Y-56875830D01*
X124060038Y-56866651D01*
X124080250Y-56859419D01*
X124101074Y-56854203D01*
X124122309Y-56851053D01*
X124143750Y-56850000D01*
X124656250Y-56850000D01*
X124677691Y-56851053D01*
X124677691Y-56851053D01*
G37*
D11*
X124400000Y-57287500D03*
D10*
G36*
X119877691Y-56851053D02*
G01*
X119898926Y-56854203D01*
X119919750Y-56859419D01*
X119939962Y-56866651D01*
X119959368Y-56875830D01*
X119977781Y-56886866D01*
X119995024Y-56899654D01*
X120010930Y-56914070D01*
X120025346Y-56929976D01*
X120038134Y-56947219D01*
X120049170Y-56965632D01*
X120058349Y-56985038D01*
X120065581Y-57005250D01*
X120070797Y-57026074D01*
X120073947Y-57047309D01*
X120075000Y-57068750D01*
X120075000Y-57506250D01*
X120073947Y-57527691D01*
X120070797Y-57548926D01*
X120065581Y-57569750D01*
X120058349Y-57589962D01*
X120049170Y-57609368D01*
X120038134Y-57627781D01*
X120025346Y-57645024D01*
X120010930Y-57660930D01*
X119995024Y-57675346D01*
X119977781Y-57688134D01*
X119959368Y-57699170D01*
X119939962Y-57708349D01*
X119919750Y-57715581D01*
X119898926Y-57720797D01*
X119877691Y-57723947D01*
X119856250Y-57725000D01*
X119343750Y-57725000D01*
X119322309Y-57723947D01*
X119301074Y-57720797D01*
X119280250Y-57715581D01*
X119260038Y-57708349D01*
X119240632Y-57699170D01*
X119222219Y-57688134D01*
X119204976Y-57675346D01*
X119189070Y-57660930D01*
X119174654Y-57645024D01*
X119161866Y-57627781D01*
X119150830Y-57609368D01*
X119141651Y-57589962D01*
X119134419Y-57569750D01*
X119129203Y-57548926D01*
X119126053Y-57527691D01*
X119125000Y-57506250D01*
X119125000Y-57068750D01*
X119126053Y-57047309D01*
X119129203Y-57026074D01*
X119134419Y-57005250D01*
X119141651Y-56985038D01*
X119150830Y-56965632D01*
X119161866Y-56947219D01*
X119174654Y-56929976D01*
X119189070Y-56914070D01*
X119204976Y-56899654D01*
X119222219Y-56886866D01*
X119240632Y-56875830D01*
X119260038Y-56866651D01*
X119280250Y-56859419D01*
X119301074Y-56854203D01*
X119322309Y-56851053D01*
X119343750Y-56850000D01*
X119856250Y-56850000D01*
X119877691Y-56851053D01*
X119877691Y-56851053D01*
G37*
D11*
X119600000Y-57287500D03*
D10*
G36*
X119877691Y-55276053D02*
G01*
X119898926Y-55279203D01*
X119919750Y-55284419D01*
X119939962Y-55291651D01*
X119959368Y-55300830D01*
X119977781Y-55311866D01*
X119995024Y-55324654D01*
X120010930Y-55339070D01*
X120025346Y-55354976D01*
X120038134Y-55372219D01*
X120049170Y-55390632D01*
X120058349Y-55410038D01*
X120065581Y-55430250D01*
X120070797Y-55451074D01*
X120073947Y-55472309D01*
X120075000Y-55493750D01*
X120075000Y-55931250D01*
X120073947Y-55952691D01*
X120070797Y-55973926D01*
X120065581Y-55994750D01*
X120058349Y-56014962D01*
X120049170Y-56034368D01*
X120038134Y-56052781D01*
X120025346Y-56070024D01*
X120010930Y-56085930D01*
X119995024Y-56100346D01*
X119977781Y-56113134D01*
X119959368Y-56124170D01*
X119939962Y-56133349D01*
X119919750Y-56140581D01*
X119898926Y-56145797D01*
X119877691Y-56148947D01*
X119856250Y-56150000D01*
X119343750Y-56150000D01*
X119322309Y-56148947D01*
X119301074Y-56145797D01*
X119280250Y-56140581D01*
X119260038Y-56133349D01*
X119240632Y-56124170D01*
X119222219Y-56113134D01*
X119204976Y-56100346D01*
X119189070Y-56085930D01*
X119174654Y-56070024D01*
X119161866Y-56052781D01*
X119150830Y-56034368D01*
X119141651Y-56014962D01*
X119134419Y-55994750D01*
X119129203Y-55973926D01*
X119126053Y-55952691D01*
X119125000Y-55931250D01*
X119125000Y-55493750D01*
X119126053Y-55472309D01*
X119129203Y-55451074D01*
X119134419Y-55430250D01*
X119141651Y-55410038D01*
X119150830Y-55390632D01*
X119161866Y-55372219D01*
X119174654Y-55354976D01*
X119189070Y-55339070D01*
X119204976Y-55324654D01*
X119222219Y-55311866D01*
X119240632Y-55300830D01*
X119260038Y-55291651D01*
X119280250Y-55284419D01*
X119301074Y-55279203D01*
X119322309Y-55276053D01*
X119343750Y-55275000D01*
X119856250Y-55275000D01*
X119877691Y-55276053D01*
X119877691Y-55276053D01*
G37*
D11*
X119600000Y-55712500D03*
D10*
G36*
X128277691Y-55276053D02*
G01*
X128298926Y-55279203D01*
X128319750Y-55284419D01*
X128339962Y-55291651D01*
X128359368Y-55300830D01*
X128377781Y-55311866D01*
X128395024Y-55324654D01*
X128410930Y-55339070D01*
X128425346Y-55354976D01*
X128438134Y-55372219D01*
X128449170Y-55390632D01*
X128458349Y-55410038D01*
X128465581Y-55430250D01*
X128470797Y-55451074D01*
X128473947Y-55472309D01*
X128475000Y-55493750D01*
X128475000Y-55931250D01*
X128473947Y-55952691D01*
X128470797Y-55973926D01*
X128465581Y-55994750D01*
X128458349Y-56014962D01*
X128449170Y-56034368D01*
X128438134Y-56052781D01*
X128425346Y-56070024D01*
X128410930Y-56085930D01*
X128395024Y-56100346D01*
X128377781Y-56113134D01*
X128359368Y-56124170D01*
X128339962Y-56133349D01*
X128319750Y-56140581D01*
X128298926Y-56145797D01*
X128277691Y-56148947D01*
X128256250Y-56150000D01*
X127743750Y-56150000D01*
X127722309Y-56148947D01*
X127701074Y-56145797D01*
X127680250Y-56140581D01*
X127660038Y-56133349D01*
X127640632Y-56124170D01*
X127622219Y-56113134D01*
X127604976Y-56100346D01*
X127589070Y-56085930D01*
X127574654Y-56070024D01*
X127561866Y-56052781D01*
X127550830Y-56034368D01*
X127541651Y-56014962D01*
X127534419Y-55994750D01*
X127529203Y-55973926D01*
X127526053Y-55952691D01*
X127525000Y-55931250D01*
X127525000Y-55493750D01*
X127526053Y-55472309D01*
X127529203Y-55451074D01*
X127534419Y-55430250D01*
X127541651Y-55410038D01*
X127550830Y-55390632D01*
X127561866Y-55372219D01*
X127574654Y-55354976D01*
X127589070Y-55339070D01*
X127604976Y-55324654D01*
X127622219Y-55311866D01*
X127640632Y-55300830D01*
X127660038Y-55291651D01*
X127680250Y-55284419D01*
X127701074Y-55279203D01*
X127722309Y-55276053D01*
X127743750Y-55275000D01*
X128256250Y-55275000D01*
X128277691Y-55276053D01*
X128277691Y-55276053D01*
G37*
D11*
X128000000Y-55712500D03*
D10*
G36*
X128277691Y-56851053D02*
G01*
X128298926Y-56854203D01*
X128319750Y-56859419D01*
X128339962Y-56866651D01*
X128359368Y-56875830D01*
X128377781Y-56886866D01*
X128395024Y-56899654D01*
X128410930Y-56914070D01*
X128425346Y-56929976D01*
X128438134Y-56947219D01*
X128449170Y-56965632D01*
X128458349Y-56985038D01*
X128465581Y-57005250D01*
X128470797Y-57026074D01*
X128473947Y-57047309D01*
X128475000Y-57068750D01*
X128475000Y-57506250D01*
X128473947Y-57527691D01*
X128470797Y-57548926D01*
X128465581Y-57569750D01*
X128458349Y-57589962D01*
X128449170Y-57609368D01*
X128438134Y-57627781D01*
X128425346Y-57645024D01*
X128410930Y-57660930D01*
X128395024Y-57675346D01*
X128377781Y-57688134D01*
X128359368Y-57699170D01*
X128339962Y-57708349D01*
X128319750Y-57715581D01*
X128298926Y-57720797D01*
X128277691Y-57723947D01*
X128256250Y-57725000D01*
X127743750Y-57725000D01*
X127722309Y-57723947D01*
X127701074Y-57720797D01*
X127680250Y-57715581D01*
X127660038Y-57708349D01*
X127640632Y-57699170D01*
X127622219Y-57688134D01*
X127604976Y-57675346D01*
X127589070Y-57660930D01*
X127574654Y-57645024D01*
X127561866Y-57627781D01*
X127550830Y-57609368D01*
X127541651Y-57589962D01*
X127534419Y-57569750D01*
X127529203Y-57548926D01*
X127526053Y-57527691D01*
X127525000Y-57506250D01*
X127525000Y-57068750D01*
X127526053Y-57047309D01*
X127529203Y-57026074D01*
X127534419Y-57005250D01*
X127541651Y-56985038D01*
X127550830Y-56965632D01*
X127561866Y-56947219D01*
X127574654Y-56929976D01*
X127589070Y-56914070D01*
X127604976Y-56899654D01*
X127622219Y-56886866D01*
X127640632Y-56875830D01*
X127660038Y-56866651D01*
X127680250Y-56859419D01*
X127701074Y-56854203D01*
X127722309Y-56851053D01*
X127743750Y-56850000D01*
X128256250Y-56850000D01*
X128277691Y-56851053D01*
X128277691Y-56851053D01*
G37*
D11*
X128000000Y-57287500D03*
D10*
G36*
X134077691Y-56851053D02*
G01*
X134098926Y-56854203D01*
X134119750Y-56859419D01*
X134139962Y-56866651D01*
X134159368Y-56875830D01*
X134177781Y-56886866D01*
X134195024Y-56899654D01*
X134210930Y-56914070D01*
X134225346Y-56929976D01*
X134238134Y-56947219D01*
X134249170Y-56965632D01*
X134258349Y-56985038D01*
X134265581Y-57005250D01*
X134270797Y-57026074D01*
X134273947Y-57047309D01*
X134275000Y-57068750D01*
X134275000Y-57506250D01*
X134273947Y-57527691D01*
X134270797Y-57548926D01*
X134265581Y-57569750D01*
X134258349Y-57589962D01*
X134249170Y-57609368D01*
X134238134Y-57627781D01*
X134225346Y-57645024D01*
X134210930Y-57660930D01*
X134195024Y-57675346D01*
X134177781Y-57688134D01*
X134159368Y-57699170D01*
X134139962Y-57708349D01*
X134119750Y-57715581D01*
X134098926Y-57720797D01*
X134077691Y-57723947D01*
X134056250Y-57725000D01*
X133543750Y-57725000D01*
X133522309Y-57723947D01*
X133501074Y-57720797D01*
X133480250Y-57715581D01*
X133460038Y-57708349D01*
X133440632Y-57699170D01*
X133422219Y-57688134D01*
X133404976Y-57675346D01*
X133389070Y-57660930D01*
X133374654Y-57645024D01*
X133361866Y-57627781D01*
X133350830Y-57609368D01*
X133341651Y-57589962D01*
X133334419Y-57569750D01*
X133329203Y-57548926D01*
X133326053Y-57527691D01*
X133325000Y-57506250D01*
X133325000Y-57068750D01*
X133326053Y-57047309D01*
X133329203Y-57026074D01*
X133334419Y-57005250D01*
X133341651Y-56985038D01*
X133350830Y-56965632D01*
X133361866Y-56947219D01*
X133374654Y-56929976D01*
X133389070Y-56914070D01*
X133404976Y-56899654D01*
X133422219Y-56886866D01*
X133440632Y-56875830D01*
X133460038Y-56866651D01*
X133480250Y-56859419D01*
X133501074Y-56854203D01*
X133522309Y-56851053D01*
X133543750Y-56850000D01*
X134056250Y-56850000D01*
X134077691Y-56851053D01*
X134077691Y-56851053D01*
G37*
D11*
X133800000Y-57287500D03*
D10*
G36*
X134077691Y-55276053D02*
G01*
X134098926Y-55279203D01*
X134119750Y-55284419D01*
X134139962Y-55291651D01*
X134159368Y-55300830D01*
X134177781Y-55311866D01*
X134195024Y-55324654D01*
X134210930Y-55339070D01*
X134225346Y-55354976D01*
X134238134Y-55372219D01*
X134249170Y-55390632D01*
X134258349Y-55410038D01*
X134265581Y-55430250D01*
X134270797Y-55451074D01*
X134273947Y-55472309D01*
X134275000Y-55493750D01*
X134275000Y-55931250D01*
X134273947Y-55952691D01*
X134270797Y-55973926D01*
X134265581Y-55994750D01*
X134258349Y-56014962D01*
X134249170Y-56034368D01*
X134238134Y-56052781D01*
X134225346Y-56070024D01*
X134210930Y-56085930D01*
X134195024Y-56100346D01*
X134177781Y-56113134D01*
X134159368Y-56124170D01*
X134139962Y-56133349D01*
X134119750Y-56140581D01*
X134098926Y-56145797D01*
X134077691Y-56148947D01*
X134056250Y-56150000D01*
X133543750Y-56150000D01*
X133522309Y-56148947D01*
X133501074Y-56145797D01*
X133480250Y-56140581D01*
X133460038Y-56133349D01*
X133440632Y-56124170D01*
X133422219Y-56113134D01*
X133404976Y-56100346D01*
X133389070Y-56085930D01*
X133374654Y-56070024D01*
X133361866Y-56052781D01*
X133350830Y-56034368D01*
X133341651Y-56014962D01*
X133334419Y-55994750D01*
X133329203Y-55973926D01*
X133326053Y-55952691D01*
X133325000Y-55931250D01*
X133325000Y-55493750D01*
X133326053Y-55472309D01*
X133329203Y-55451074D01*
X133334419Y-55430250D01*
X133341651Y-55410038D01*
X133350830Y-55390632D01*
X133361866Y-55372219D01*
X133374654Y-55354976D01*
X133389070Y-55339070D01*
X133404976Y-55324654D01*
X133422219Y-55311866D01*
X133440632Y-55300830D01*
X133460038Y-55291651D01*
X133480250Y-55284419D01*
X133501074Y-55279203D01*
X133522309Y-55276053D01*
X133543750Y-55275000D01*
X134056250Y-55275000D01*
X134077691Y-55276053D01*
X134077691Y-55276053D01*
G37*
D11*
X133800000Y-55712500D03*
D10*
G36*
X140677691Y-67946053D02*
G01*
X140698926Y-67949203D01*
X140719750Y-67954419D01*
X140739962Y-67961651D01*
X140759368Y-67970830D01*
X140777781Y-67981866D01*
X140795024Y-67994654D01*
X140810930Y-68009070D01*
X140825346Y-68024976D01*
X140838134Y-68042219D01*
X140849170Y-68060632D01*
X140858349Y-68080038D01*
X140865581Y-68100250D01*
X140870797Y-68121074D01*
X140873947Y-68142309D01*
X140875000Y-68163750D01*
X140875000Y-68676250D01*
X140873947Y-68697691D01*
X140870797Y-68718926D01*
X140865581Y-68739750D01*
X140858349Y-68759962D01*
X140849170Y-68779368D01*
X140838134Y-68797781D01*
X140825346Y-68815024D01*
X140810930Y-68830930D01*
X140795024Y-68845346D01*
X140777781Y-68858134D01*
X140759368Y-68869170D01*
X140739962Y-68878349D01*
X140719750Y-68885581D01*
X140698926Y-68890797D01*
X140677691Y-68893947D01*
X140656250Y-68895000D01*
X140218750Y-68895000D01*
X140197309Y-68893947D01*
X140176074Y-68890797D01*
X140155250Y-68885581D01*
X140135038Y-68878349D01*
X140115632Y-68869170D01*
X140097219Y-68858134D01*
X140079976Y-68845346D01*
X140064070Y-68830930D01*
X140049654Y-68815024D01*
X140036866Y-68797781D01*
X140025830Y-68779368D01*
X140016651Y-68759962D01*
X140009419Y-68739750D01*
X140004203Y-68718926D01*
X140001053Y-68697691D01*
X140000000Y-68676250D01*
X140000000Y-68163750D01*
X140001053Y-68142309D01*
X140004203Y-68121074D01*
X140009419Y-68100250D01*
X140016651Y-68080038D01*
X140025830Y-68060632D01*
X140036866Y-68042219D01*
X140049654Y-68024976D01*
X140064070Y-68009070D01*
X140079976Y-67994654D01*
X140097219Y-67981866D01*
X140115632Y-67970830D01*
X140135038Y-67961651D01*
X140155250Y-67954419D01*
X140176074Y-67949203D01*
X140197309Y-67946053D01*
X140218750Y-67945000D01*
X140656250Y-67945000D01*
X140677691Y-67946053D01*
X140677691Y-67946053D01*
G37*
D11*
X140437500Y-68420000D03*
D10*
G36*
X139102691Y-67946053D02*
G01*
X139123926Y-67949203D01*
X139144750Y-67954419D01*
X139164962Y-67961651D01*
X139184368Y-67970830D01*
X139202781Y-67981866D01*
X139220024Y-67994654D01*
X139235930Y-68009070D01*
X139250346Y-68024976D01*
X139263134Y-68042219D01*
X139274170Y-68060632D01*
X139283349Y-68080038D01*
X139290581Y-68100250D01*
X139295797Y-68121074D01*
X139298947Y-68142309D01*
X139300000Y-68163750D01*
X139300000Y-68676250D01*
X139298947Y-68697691D01*
X139295797Y-68718926D01*
X139290581Y-68739750D01*
X139283349Y-68759962D01*
X139274170Y-68779368D01*
X139263134Y-68797781D01*
X139250346Y-68815024D01*
X139235930Y-68830930D01*
X139220024Y-68845346D01*
X139202781Y-68858134D01*
X139184368Y-68869170D01*
X139164962Y-68878349D01*
X139144750Y-68885581D01*
X139123926Y-68890797D01*
X139102691Y-68893947D01*
X139081250Y-68895000D01*
X138643750Y-68895000D01*
X138622309Y-68893947D01*
X138601074Y-68890797D01*
X138580250Y-68885581D01*
X138560038Y-68878349D01*
X138540632Y-68869170D01*
X138522219Y-68858134D01*
X138504976Y-68845346D01*
X138489070Y-68830930D01*
X138474654Y-68815024D01*
X138461866Y-68797781D01*
X138450830Y-68779368D01*
X138441651Y-68759962D01*
X138434419Y-68739750D01*
X138429203Y-68718926D01*
X138426053Y-68697691D01*
X138425000Y-68676250D01*
X138425000Y-68163750D01*
X138426053Y-68142309D01*
X138429203Y-68121074D01*
X138434419Y-68100250D01*
X138441651Y-68080038D01*
X138450830Y-68060632D01*
X138461866Y-68042219D01*
X138474654Y-68024976D01*
X138489070Y-68009070D01*
X138504976Y-67994654D01*
X138522219Y-67981866D01*
X138540632Y-67970830D01*
X138560038Y-67961651D01*
X138580250Y-67954419D01*
X138601074Y-67949203D01*
X138622309Y-67946053D01*
X138643750Y-67945000D01*
X139081250Y-67945000D01*
X139102691Y-67946053D01*
X139102691Y-67946053D01*
G37*
D11*
X138862500Y-68420000D03*
D10*
G36*
X138877691Y-56851053D02*
G01*
X138898926Y-56854203D01*
X138919750Y-56859419D01*
X138939962Y-56866651D01*
X138959368Y-56875830D01*
X138977781Y-56886866D01*
X138995024Y-56899654D01*
X139010930Y-56914070D01*
X139025346Y-56929976D01*
X139038134Y-56947219D01*
X139049170Y-56965632D01*
X139058349Y-56985038D01*
X139065581Y-57005250D01*
X139070797Y-57026074D01*
X139073947Y-57047309D01*
X139075000Y-57068750D01*
X139075000Y-57506250D01*
X139073947Y-57527691D01*
X139070797Y-57548926D01*
X139065581Y-57569750D01*
X139058349Y-57589962D01*
X139049170Y-57609368D01*
X139038134Y-57627781D01*
X139025346Y-57645024D01*
X139010930Y-57660930D01*
X138995024Y-57675346D01*
X138977781Y-57688134D01*
X138959368Y-57699170D01*
X138939962Y-57708349D01*
X138919750Y-57715581D01*
X138898926Y-57720797D01*
X138877691Y-57723947D01*
X138856250Y-57725000D01*
X138343750Y-57725000D01*
X138322309Y-57723947D01*
X138301074Y-57720797D01*
X138280250Y-57715581D01*
X138260038Y-57708349D01*
X138240632Y-57699170D01*
X138222219Y-57688134D01*
X138204976Y-57675346D01*
X138189070Y-57660930D01*
X138174654Y-57645024D01*
X138161866Y-57627781D01*
X138150830Y-57609368D01*
X138141651Y-57589962D01*
X138134419Y-57569750D01*
X138129203Y-57548926D01*
X138126053Y-57527691D01*
X138125000Y-57506250D01*
X138125000Y-57068750D01*
X138126053Y-57047309D01*
X138129203Y-57026074D01*
X138134419Y-57005250D01*
X138141651Y-56985038D01*
X138150830Y-56965632D01*
X138161866Y-56947219D01*
X138174654Y-56929976D01*
X138189070Y-56914070D01*
X138204976Y-56899654D01*
X138222219Y-56886866D01*
X138240632Y-56875830D01*
X138260038Y-56866651D01*
X138280250Y-56859419D01*
X138301074Y-56854203D01*
X138322309Y-56851053D01*
X138343750Y-56850000D01*
X138856250Y-56850000D01*
X138877691Y-56851053D01*
X138877691Y-56851053D01*
G37*
D11*
X138600000Y-57287500D03*
D10*
G36*
X138877691Y-55276053D02*
G01*
X138898926Y-55279203D01*
X138919750Y-55284419D01*
X138939962Y-55291651D01*
X138959368Y-55300830D01*
X138977781Y-55311866D01*
X138995024Y-55324654D01*
X139010930Y-55339070D01*
X139025346Y-55354976D01*
X139038134Y-55372219D01*
X139049170Y-55390632D01*
X139058349Y-55410038D01*
X139065581Y-55430250D01*
X139070797Y-55451074D01*
X139073947Y-55472309D01*
X139075000Y-55493750D01*
X139075000Y-55931250D01*
X139073947Y-55952691D01*
X139070797Y-55973926D01*
X139065581Y-55994750D01*
X139058349Y-56014962D01*
X139049170Y-56034368D01*
X139038134Y-56052781D01*
X139025346Y-56070024D01*
X139010930Y-56085930D01*
X138995024Y-56100346D01*
X138977781Y-56113134D01*
X138959368Y-56124170D01*
X138939962Y-56133349D01*
X138919750Y-56140581D01*
X138898926Y-56145797D01*
X138877691Y-56148947D01*
X138856250Y-56150000D01*
X138343750Y-56150000D01*
X138322309Y-56148947D01*
X138301074Y-56145797D01*
X138280250Y-56140581D01*
X138260038Y-56133349D01*
X138240632Y-56124170D01*
X138222219Y-56113134D01*
X138204976Y-56100346D01*
X138189070Y-56085930D01*
X138174654Y-56070024D01*
X138161866Y-56052781D01*
X138150830Y-56034368D01*
X138141651Y-56014962D01*
X138134419Y-55994750D01*
X138129203Y-55973926D01*
X138126053Y-55952691D01*
X138125000Y-55931250D01*
X138125000Y-55493750D01*
X138126053Y-55472309D01*
X138129203Y-55451074D01*
X138134419Y-55430250D01*
X138141651Y-55410038D01*
X138150830Y-55390632D01*
X138161866Y-55372219D01*
X138174654Y-55354976D01*
X138189070Y-55339070D01*
X138204976Y-55324654D01*
X138222219Y-55311866D01*
X138240632Y-55300830D01*
X138260038Y-55291651D01*
X138280250Y-55284419D01*
X138301074Y-55279203D01*
X138322309Y-55276053D01*
X138343750Y-55275000D01*
X138856250Y-55275000D01*
X138877691Y-55276053D01*
X138877691Y-55276053D01*
G37*
D11*
X138600000Y-55712500D03*
D10*
G36*
X140477691Y-55276053D02*
G01*
X140498926Y-55279203D01*
X140519750Y-55284419D01*
X140539962Y-55291651D01*
X140559368Y-55300830D01*
X140577781Y-55311866D01*
X140595024Y-55324654D01*
X140610930Y-55339070D01*
X140625346Y-55354976D01*
X140638134Y-55372219D01*
X140649170Y-55390632D01*
X140658349Y-55410038D01*
X140665581Y-55430250D01*
X140670797Y-55451074D01*
X140673947Y-55472309D01*
X140675000Y-55493750D01*
X140675000Y-55931250D01*
X140673947Y-55952691D01*
X140670797Y-55973926D01*
X140665581Y-55994750D01*
X140658349Y-56014962D01*
X140649170Y-56034368D01*
X140638134Y-56052781D01*
X140625346Y-56070024D01*
X140610930Y-56085930D01*
X140595024Y-56100346D01*
X140577781Y-56113134D01*
X140559368Y-56124170D01*
X140539962Y-56133349D01*
X140519750Y-56140581D01*
X140498926Y-56145797D01*
X140477691Y-56148947D01*
X140456250Y-56150000D01*
X139943750Y-56150000D01*
X139922309Y-56148947D01*
X139901074Y-56145797D01*
X139880250Y-56140581D01*
X139860038Y-56133349D01*
X139840632Y-56124170D01*
X139822219Y-56113134D01*
X139804976Y-56100346D01*
X139789070Y-56085930D01*
X139774654Y-56070024D01*
X139761866Y-56052781D01*
X139750830Y-56034368D01*
X139741651Y-56014962D01*
X139734419Y-55994750D01*
X139729203Y-55973926D01*
X139726053Y-55952691D01*
X139725000Y-55931250D01*
X139725000Y-55493750D01*
X139726053Y-55472309D01*
X139729203Y-55451074D01*
X139734419Y-55430250D01*
X139741651Y-55410038D01*
X139750830Y-55390632D01*
X139761866Y-55372219D01*
X139774654Y-55354976D01*
X139789070Y-55339070D01*
X139804976Y-55324654D01*
X139822219Y-55311866D01*
X139840632Y-55300830D01*
X139860038Y-55291651D01*
X139880250Y-55284419D01*
X139901074Y-55279203D01*
X139922309Y-55276053D01*
X139943750Y-55275000D01*
X140456250Y-55275000D01*
X140477691Y-55276053D01*
X140477691Y-55276053D01*
G37*
D11*
X140200000Y-55712500D03*
D10*
G36*
X140477691Y-56851053D02*
G01*
X140498926Y-56854203D01*
X140519750Y-56859419D01*
X140539962Y-56866651D01*
X140559368Y-56875830D01*
X140577781Y-56886866D01*
X140595024Y-56899654D01*
X140610930Y-56914070D01*
X140625346Y-56929976D01*
X140638134Y-56947219D01*
X140649170Y-56965632D01*
X140658349Y-56985038D01*
X140665581Y-57005250D01*
X140670797Y-57026074D01*
X140673947Y-57047309D01*
X140675000Y-57068750D01*
X140675000Y-57506250D01*
X140673947Y-57527691D01*
X140670797Y-57548926D01*
X140665581Y-57569750D01*
X140658349Y-57589962D01*
X140649170Y-57609368D01*
X140638134Y-57627781D01*
X140625346Y-57645024D01*
X140610930Y-57660930D01*
X140595024Y-57675346D01*
X140577781Y-57688134D01*
X140559368Y-57699170D01*
X140539962Y-57708349D01*
X140519750Y-57715581D01*
X140498926Y-57720797D01*
X140477691Y-57723947D01*
X140456250Y-57725000D01*
X139943750Y-57725000D01*
X139922309Y-57723947D01*
X139901074Y-57720797D01*
X139880250Y-57715581D01*
X139860038Y-57708349D01*
X139840632Y-57699170D01*
X139822219Y-57688134D01*
X139804976Y-57675346D01*
X139789070Y-57660930D01*
X139774654Y-57645024D01*
X139761866Y-57627781D01*
X139750830Y-57609368D01*
X139741651Y-57589962D01*
X139734419Y-57569750D01*
X139729203Y-57548926D01*
X139726053Y-57527691D01*
X139725000Y-57506250D01*
X139725000Y-57068750D01*
X139726053Y-57047309D01*
X139729203Y-57026074D01*
X139734419Y-57005250D01*
X139741651Y-56985038D01*
X139750830Y-56965632D01*
X139761866Y-56947219D01*
X139774654Y-56929976D01*
X139789070Y-56914070D01*
X139804976Y-56899654D01*
X139822219Y-56886866D01*
X139840632Y-56875830D01*
X139860038Y-56866651D01*
X139880250Y-56859419D01*
X139901074Y-56854203D01*
X139922309Y-56851053D01*
X139943750Y-56850000D01*
X140456250Y-56850000D01*
X140477691Y-56851053D01*
X140477691Y-56851053D01*
G37*
D11*
X140200000Y-57287500D03*
D10*
G36*
X142852691Y-69326053D02*
G01*
X142873926Y-69329203D01*
X142894750Y-69334419D01*
X142914962Y-69341651D01*
X142934368Y-69350830D01*
X142952781Y-69361866D01*
X142970024Y-69374654D01*
X142985930Y-69389070D01*
X143000346Y-69404976D01*
X143013134Y-69422219D01*
X143024170Y-69440632D01*
X143033349Y-69460038D01*
X143040581Y-69480250D01*
X143045797Y-69501074D01*
X143048947Y-69522309D01*
X143050000Y-69543750D01*
X143050000Y-70056250D01*
X143048947Y-70077691D01*
X143045797Y-70098926D01*
X143040581Y-70119750D01*
X143033349Y-70139962D01*
X143024170Y-70159368D01*
X143013134Y-70177781D01*
X143000346Y-70195024D01*
X142985930Y-70210930D01*
X142970024Y-70225346D01*
X142952781Y-70238134D01*
X142934368Y-70249170D01*
X142914962Y-70258349D01*
X142894750Y-70265581D01*
X142873926Y-70270797D01*
X142852691Y-70273947D01*
X142831250Y-70275000D01*
X142393750Y-70275000D01*
X142372309Y-70273947D01*
X142351074Y-70270797D01*
X142330250Y-70265581D01*
X142310038Y-70258349D01*
X142290632Y-70249170D01*
X142272219Y-70238134D01*
X142254976Y-70225346D01*
X142239070Y-70210930D01*
X142224654Y-70195024D01*
X142211866Y-70177781D01*
X142200830Y-70159368D01*
X142191651Y-70139962D01*
X142184419Y-70119750D01*
X142179203Y-70098926D01*
X142176053Y-70077691D01*
X142175000Y-70056250D01*
X142175000Y-69543750D01*
X142176053Y-69522309D01*
X142179203Y-69501074D01*
X142184419Y-69480250D01*
X142191651Y-69460038D01*
X142200830Y-69440632D01*
X142211866Y-69422219D01*
X142224654Y-69404976D01*
X142239070Y-69389070D01*
X142254976Y-69374654D01*
X142272219Y-69361866D01*
X142290632Y-69350830D01*
X142310038Y-69341651D01*
X142330250Y-69334419D01*
X142351074Y-69329203D01*
X142372309Y-69326053D01*
X142393750Y-69325000D01*
X142831250Y-69325000D01*
X142852691Y-69326053D01*
X142852691Y-69326053D01*
G37*
D11*
X142612500Y-69800000D03*
D10*
G36*
X144427691Y-69326053D02*
G01*
X144448926Y-69329203D01*
X144469750Y-69334419D01*
X144489962Y-69341651D01*
X144509368Y-69350830D01*
X144527781Y-69361866D01*
X144545024Y-69374654D01*
X144560930Y-69389070D01*
X144575346Y-69404976D01*
X144588134Y-69422219D01*
X144599170Y-69440632D01*
X144608349Y-69460038D01*
X144615581Y-69480250D01*
X144620797Y-69501074D01*
X144623947Y-69522309D01*
X144625000Y-69543750D01*
X144625000Y-70056250D01*
X144623947Y-70077691D01*
X144620797Y-70098926D01*
X144615581Y-70119750D01*
X144608349Y-70139962D01*
X144599170Y-70159368D01*
X144588134Y-70177781D01*
X144575346Y-70195024D01*
X144560930Y-70210930D01*
X144545024Y-70225346D01*
X144527781Y-70238134D01*
X144509368Y-70249170D01*
X144489962Y-70258349D01*
X144469750Y-70265581D01*
X144448926Y-70270797D01*
X144427691Y-70273947D01*
X144406250Y-70275000D01*
X143968750Y-70275000D01*
X143947309Y-70273947D01*
X143926074Y-70270797D01*
X143905250Y-70265581D01*
X143885038Y-70258349D01*
X143865632Y-70249170D01*
X143847219Y-70238134D01*
X143829976Y-70225346D01*
X143814070Y-70210930D01*
X143799654Y-70195024D01*
X143786866Y-70177781D01*
X143775830Y-70159368D01*
X143766651Y-70139962D01*
X143759419Y-70119750D01*
X143754203Y-70098926D01*
X143751053Y-70077691D01*
X143750000Y-70056250D01*
X143750000Y-69543750D01*
X143751053Y-69522309D01*
X143754203Y-69501074D01*
X143759419Y-69480250D01*
X143766651Y-69460038D01*
X143775830Y-69440632D01*
X143786866Y-69422219D01*
X143799654Y-69404976D01*
X143814070Y-69389070D01*
X143829976Y-69374654D01*
X143847219Y-69361866D01*
X143865632Y-69350830D01*
X143885038Y-69341651D01*
X143905250Y-69334419D01*
X143926074Y-69329203D01*
X143947309Y-69326053D01*
X143968750Y-69325000D01*
X144406250Y-69325000D01*
X144427691Y-69326053D01*
X144427691Y-69326053D01*
G37*
D11*
X144187500Y-69800000D03*
D10*
G36*
X139677691Y-63651053D02*
G01*
X139698926Y-63654203D01*
X139719750Y-63659419D01*
X139739962Y-63666651D01*
X139759368Y-63675830D01*
X139777781Y-63686866D01*
X139795024Y-63699654D01*
X139810930Y-63714070D01*
X139825346Y-63729976D01*
X139838134Y-63747219D01*
X139849170Y-63765632D01*
X139858349Y-63785038D01*
X139865581Y-63805250D01*
X139870797Y-63826074D01*
X139873947Y-63847309D01*
X139875000Y-63868750D01*
X139875000Y-64306250D01*
X139873947Y-64327691D01*
X139870797Y-64348926D01*
X139865581Y-64369750D01*
X139858349Y-64389962D01*
X139849170Y-64409368D01*
X139838134Y-64427781D01*
X139825346Y-64445024D01*
X139810930Y-64460930D01*
X139795024Y-64475346D01*
X139777781Y-64488134D01*
X139759368Y-64499170D01*
X139739962Y-64508349D01*
X139719750Y-64515581D01*
X139698926Y-64520797D01*
X139677691Y-64523947D01*
X139656250Y-64525000D01*
X139143750Y-64525000D01*
X139122309Y-64523947D01*
X139101074Y-64520797D01*
X139080250Y-64515581D01*
X139060038Y-64508349D01*
X139040632Y-64499170D01*
X139022219Y-64488134D01*
X139004976Y-64475346D01*
X138989070Y-64460930D01*
X138974654Y-64445024D01*
X138961866Y-64427781D01*
X138950830Y-64409368D01*
X138941651Y-64389962D01*
X138934419Y-64369750D01*
X138929203Y-64348926D01*
X138926053Y-64327691D01*
X138925000Y-64306250D01*
X138925000Y-63868750D01*
X138926053Y-63847309D01*
X138929203Y-63826074D01*
X138934419Y-63805250D01*
X138941651Y-63785038D01*
X138950830Y-63765632D01*
X138961866Y-63747219D01*
X138974654Y-63729976D01*
X138989070Y-63714070D01*
X139004976Y-63699654D01*
X139022219Y-63686866D01*
X139040632Y-63675830D01*
X139060038Y-63666651D01*
X139080250Y-63659419D01*
X139101074Y-63654203D01*
X139122309Y-63651053D01*
X139143750Y-63650000D01*
X139656250Y-63650000D01*
X139677691Y-63651053D01*
X139677691Y-63651053D01*
G37*
D11*
X139400000Y-64087500D03*
D10*
G36*
X139677691Y-62076053D02*
G01*
X139698926Y-62079203D01*
X139719750Y-62084419D01*
X139739962Y-62091651D01*
X139759368Y-62100830D01*
X139777781Y-62111866D01*
X139795024Y-62124654D01*
X139810930Y-62139070D01*
X139825346Y-62154976D01*
X139838134Y-62172219D01*
X139849170Y-62190632D01*
X139858349Y-62210038D01*
X139865581Y-62230250D01*
X139870797Y-62251074D01*
X139873947Y-62272309D01*
X139875000Y-62293750D01*
X139875000Y-62731250D01*
X139873947Y-62752691D01*
X139870797Y-62773926D01*
X139865581Y-62794750D01*
X139858349Y-62814962D01*
X139849170Y-62834368D01*
X139838134Y-62852781D01*
X139825346Y-62870024D01*
X139810930Y-62885930D01*
X139795024Y-62900346D01*
X139777781Y-62913134D01*
X139759368Y-62924170D01*
X139739962Y-62933349D01*
X139719750Y-62940581D01*
X139698926Y-62945797D01*
X139677691Y-62948947D01*
X139656250Y-62950000D01*
X139143750Y-62950000D01*
X139122309Y-62948947D01*
X139101074Y-62945797D01*
X139080250Y-62940581D01*
X139060038Y-62933349D01*
X139040632Y-62924170D01*
X139022219Y-62913134D01*
X139004976Y-62900346D01*
X138989070Y-62885930D01*
X138974654Y-62870024D01*
X138961866Y-62852781D01*
X138950830Y-62834368D01*
X138941651Y-62814962D01*
X138934419Y-62794750D01*
X138929203Y-62773926D01*
X138926053Y-62752691D01*
X138925000Y-62731250D01*
X138925000Y-62293750D01*
X138926053Y-62272309D01*
X138929203Y-62251074D01*
X138934419Y-62230250D01*
X138941651Y-62210038D01*
X138950830Y-62190632D01*
X138961866Y-62172219D01*
X138974654Y-62154976D01*
X138989070Y-62139070D01*
X139004976Y-62124654D01*
X139022219Y-62111866D01*
X139040632Y-62100830D01*
X139060038Y-62091651D01*
X139080250Y-62084419D01*
X139101074Y-62079203D01*
X139122309Y-62076053D01*
X139143750Y-62075000D01*
X139656250Y-62075000D01*
X139677691Y-62076053D01*
X139677691Y-62076053D01*
G37*
D11*
X139400000Y-62512500D03*
D10*
G36*
X132627691Y-60526053D02*
G01*
X132648926Y-60529203D01*
X132669750Y-60534419D01*
X132689962Y-60541651D01*
X132709368Y-60550830D01*
X132727781Y-60561866D01*
X132745024Y-60574654D01*
X132760930Y-60589070D01*
X132775346Y-60604976D01*
X132788134Y-60622219D01*
X132799170Y-60640632D01*
X132808349Y-60660038D01*
X132815581Y-60680250D01*
X132820797Y-60701074D01*
X132823947Y-60722309D01*
X132825000Y-60743750D01*
X132825000Y-61256250D01*
X132823947Y-61277691D01*
X132820797Y-61298926D01*
X132815581Y-61319750D01*
X132808349Y-61339962D01*
X132799170Y-61359368D01*
X132788134Y-61377781D01*
X132775346Y-61395024D01*
X132760930Y-61410930D01*
X132745024Y-61425346D01*
X132727781Y-61438134D01*
X132709368Y-61449170D01*
X132689962Y-61458349D01*
X132669750Y-61465581D01*
X132648926Y-61470797D01*
X132627691Y-61473947D01*
X132606250Y-61475000D01*
X132168750Y-61475000D01*
X132147309Y-61473947D01*
X132126074Y-61470797D01*
X132105250Y-61465581D01*
X132085038Y-61458349D01*
X132065632Y-61449170D01*
X132047219Y-61438134D01*
X132029976Y-61425346D01*
X132014070Y-61410930D01*
X131999654Y-61395024D01*
X131986866Y-61377781D01*
X131975830Y-61359368D01*
X131966651Y-61339962D01*
X131959419Y-61319750D01*
X131954203Y-61298926D01*
X131951053Y-61277691D01*
X131950000Y-61256250D01*
X131950000Y-60743750D01*
X131951053Y-60722309D01*
X131954203Y-60701074D01*
X131959419Y-60680250D01*
X131966651Y-60660038D01*
X131975830Y-60640632D01*
X131986866Y-60622219D01*
X131999654Y-60604976D01*
X132014070Y-60589070D01*
X132029976Y-60574654D01*
X132047219Y-60561866D01*
X132065632Y-60550830D01*
X132085038Y-60541651D01*
X132105250Y-60534419D01*
X132126074Y-60529203D01*
X132147309Y-60526053D01*
X132168750Y-60525000D01*
X132606250Y-60525000D01*
X132627691Y-60526053D01*
X132627691Y-60526053D01*
G37*
D11*
X132387500Y-61000000D03*
D10*
G36*
X131052691Y-60526053D02*
G01*
X131073926Y-60529203D01*
X131094750Y-60534419D01*
X131114962Y-60541651D01*
X131134368Y-60550830D01*
X131152781Y-60561866D01*
X131170024Y-60574654D01*
X131185930Y-60589070D01*
X131200346Y-60604976D01*
X131213134Y-60622219D01*
X131224170Y-60640632D01*
X131233349Y-60660038D01*
X131240581Y-60680250D01*
X131245797Y-60701074D01*
X131248947Y-60722309D01*
X131250000Y-60743750D01*
X131250000Y-61256250D01*
X131248947Y-61277691D01*
X131245797Y-61298926D01*
X131240581Y-61319750D01*
X131233349Y-61339962D01*
X131224170Y-61359368D01*
X131213134Y-61377781D01*
X131200346Y-61395024D01*
X131185930Y-61410930D01*
X131170024Y-61425346D01*
X131152781Y-61438134D01*
X131134368Y-61449170D01*
X131114962Y-61458349D01*
X131094750Y-61465581D01*
X131073926Y-61470797D01*
X131052691Y-61473947D01*
X131031250Y-61475000D01*
X130593750Y-61475000D01*
X130572309Y-61473947D01*
X130551074Y-61470797D01*
X130530250Y-61465581D01*
X130510038Y-61458349D01*
X130490632Y-61449170D01*
X130472219Y-61438134D01*
X130454976Y-61425346D01*
X130439070Y-61410930D01*
X130424654Y-61395024D01*
X130411866Y-61377781D01*
X130400830Y-61359368D01*
X130391651Y-61339962D01*
X130384419Y-61319750D01*
X130379203Y-61298926D01*
X130376053Y-61277691D01*
X130375000Y-61256250D01*
X130375000Y-60743750D01*
X130376053Y-60722309D01*
X130379203Y-60701074D01*
X130384419Y-60680250D01*
X130391651Y-60660038D01*
X130400830Y-60640632D01*
X130411866Y-60622219D01*
X130424654Y-60604976D01*
X130439070Y-60589070D01*
X130454976Y-60574654D01*
X130472219Y-60561866D01*
X130490632Y-60550830D01*
X130510038Y-60541651D01*
X130530250Y-60534419D01*
X130551074Y-60529203D01*
X130572309Y-60526053D01*
X130593750Y-60525000D01*
X131031250Y-60525000D01*
X131052691Y-60526053D01*
X131052691Y-60526053D01*
G37*
D11*
X130812500Y-61000000D03*
D10*
G36*
X142877691Y-63651053D02*
G01*
X142898926Y-63654203D01*
X142919750Y-63659419D01*
X142939962Y-63666651D01*
X142959368Y-63675830D01*
X142977781Y-63686866D01*
X142995024Y-63699654D01*
X143010930Y-63714070D01*
X143025346Y-63729976D01*
X143038134Y-63747219D01*
X143049170Y-63765632D01*
X143058349Y-63785038D01*
X143065581Y-63805250D01*
X143070797Y-63826074D01*
X143073947Y-63847309D01*
X143075000Y-63868750D01*
X143075000Y-64306250D01*
X143073947Y-64327691D01*
X143070797Y-64348926D01*
X143065581Y-64369750D01*
X143058349Y-64389962D01*
X143049170Y-64409368D01*
X143038134Y-64427781D01*
X143025346Y-64445024D01*
X143010930Y-64460930D01*
X142995024Y-64475346D01*
X142977781Y-64488134D01*
X142959368Y-64499170D01*
X142939962Y-64508349D01*
X142919750Y-64515581D01*
X142898926Y-64520797D01*
X142877691Y-64523947D01*
X142856250Y-64525000D01*
X142343750Y-64525000D01*
X142322309Y-64523947D01*
X142301074Y-64520797D01*
X142280250Y-64515581D01*
X142260038Y-64508349D01*
X142240632Y-64499170D01*
X142222219Y-64488134D01*
X142204976Y-64475346D01*
X142189070Y-64460930D01*
X142174654Y-64445024D01*
X142161866Y-64427781D01*
X142150830Y-64409368D01*
X142141651Y-64389962D01*
X142134419Y-64369750D01*
X142129203Y-64348926D01*
X142126053Y-64327691D01*
X142125000Y-64306250D01*
X142125000Y-63868750D01*
X142126053Y-63847309D01*
X142129203Y-63826074D01*
X142134419Y-63805250D01*
X142141651Y-63785038D01*
X142150830Y-63765632D01*
X142161866Y-63747219D01*
X142174654Y-63729976D01*
X142189070Y-63714070D01*
X142204976Y-63699654D01*
X142222219Y-63686866D01*
X142240632Y-63675830D01*
X142260038Y-63666651D01*
X142280250Y-63659419D01*
X142301074Y-63654203D01*
X142322309Y-63651053D01*
X142343750Y-63650000D01*
X142856250Y-63650000D01*
X142877691Y-63651053D01*
X142877691Y-63651053D01*
G37*
D11*
X142600000Y-64087500D03*
D10*
G36*
X142877691Y-62076053D02*
G01*
X142898926Y-62079203D01*
X142919750Y-62084419D01*
X142939962Y-62091651D01*
X142959368Y-62100830D01*
X142977781Y-62111866D01*
X142995024Y-62124654D01*
X143010930Y-62139070D01*
X143025346Y-62154976D01*
X143038134Y-62172219D01*
X143049170Y-62190632D01*
X143058349Y-62210038D01*
X143065581Y-62230250D01*
X143070797Y-62251074D01*
X143073947Y-62272309D01*
X143075000Y-62293750D01*
X143075000Y-62731250D01*
X143073947Y-62752691D01*
X143070797Y-62773926D01*
X143065581Y-62794750D01*
X143058349Y-62814962D01*
X143049170Y-62834368D01*
X143038134Y-62852781D01*
X143025346Y-62870024D01*
X143010930Y-62885930D01*
X142995024Y-62900346D01*
X142977781Y-62913134D01*
X142959368Y-62924170D01*
X142939962Y-62933349D01*
X142919750Y-62940581D01*
X142898926Y-62945797D01*
X142877691Y-62948947D01*
X142856250Y-62950000D01*
X142343750Y-62950000D01*
X142322309Y-62948947D01*
X142301074Y-62945797D01*
X142280250Y-62940581D01*
X142260038Y-62933349D01*
X142240632Y-62924170D01*
X142222219Y-62913134D01*
X142204976Y-62900346D01*
X142189070Y-62885930D01*
X142174654Y-62870024D01*
X142161866Y-62852781D01*
X142150830Y-62834368D01*
X142141651Y-62814962D01*
X142134419Y-62794750D01*
X142129203Y-62773926D01*
X142126053Y-62752691D01*
X142125000Y-62731250D01*
X142125000Y-62293750D01*
X142126053Y-62272309D01*
X142129203Y-62251074D01*
X142134419Y-62230250D01*
X142141651Y-62210038D01*
X142150830Y-62190632D01*
X142161866Y-62172219D01*
X142174654Y-62154976D01*
X142189070Y-62139070D01*
X142204976Y-62124654D01*
X142222219Y-62111866D01*
X142240632Y-62100830D01*
X142260038Y-62091651D01*
X142280250Y-62084419D01*
X142301074Y-62079203D01*
X142322309Y-62076053D01*
X142343750Y-62075000D01*
X142856250Y-62075000D01*
X142877691Y-62076053D01*
X142877691Y-62076053D01*
G37*
D11*
X142600000Y-62512500D03*
D18*
X147050000Y-81250000D03*
X147050000Y-75800000D03*
X138150000Y-81250000D03*
X138150000Y-75800000D03*
D19*
X144200000Y-75700000D03*
X143400000Y-75700000D03*
X142600000Y-75700000D03*
X141800000Y-75700000D03*
X141000000Y-75700000D03*
D10*
G36*
X147477691Y-57851053D02*
G01*
X147498926Y-57854203D01*
X147519750Y-57859419D01*
X147539962Y-57866651D01*
X147559368Y-57875830D01*
X147577781Y-57886866D01*
X147595024Y-57899654D01*
X147610930Y-57914070D01*
X147625346Y-57929976D01*
X147638134Y-57947219D01*
X147649170Y-57965632D01*
X147658349Y-57985038D01*
X147665581Y-58005250D01*
X147670797Y-58026074D01*
X147673947Y-58047309D01*
X147675000Y-58068750D01*
X147675000Y-58506250D01*
X147673947Y-58527691D01*
X147670797Y-58548926D01*
X147665581Y-58569750D01*
X147658349Y-58589962D01*
X147649170Y-58609368D01*
X147638134Y-58627781D01*
X147625346Y-58645024D01*
X147610930Y-58660930D01*
X147595024Y-58675346D01*
X147577781Y-58688134D01*
X147559368Y-58699170D01*
X147539962Y-58708349D01*
X147519750Y-58715581D01*
X147498926Y-58720797D01*
X147477691Y-58723947D01*
X147456250Y-58725000D01*
X146943750Y-58725000D01*
X146922309Y-58723947D01*
X146901074Y-58720797D01*
X146880250Y-58715581D01*
X146860038Y-58708349D01*
X146840632Y-58699170D01*
X146822219Y-58688134D01*
X146804976Y-58675346D01*
X146789070Y-58660930D01*
X146774654Y-58645024D01*
X146761866Y-58627781D01*
X146750830Y-58609368D01*
X146741651Y-58589962D01*
X146734419Y-58569750D01*
X146729203Y-58548926D01*
X146726053Y-58527691D01*
X146725000Y-58506250D01*
X146725000Y-58068750D01*
X146726053Y-58047309D01*
X146729203Y-58026074D01*
X146734419Y-58005250D01*
X146741651Y-57985038D01*
X146750830Y-57965632D01*
X146761866Y-57947219D01*
X146774654Y-57929976D01*
X146789070Y-57914070D01*
X146804976Y-57899654D01*
X146822219Y-57886866D01*
X146840632Y-57875830D01*
X146860038Y-57866651D01*
X146880250Y-57859419D01*
X146901074Y-57854203D01*
X146922309Y-57851053D01*
X146943750Y-57850000D01*
X147456250Y-57850000D01*
X147477691Y-57851053D01*
X147477691Y-57851053D01*
G37*
D11*
X147200000Y-58287500D03*
D10*
G36*
X147477691Y-56276053D02*
G01*
X147498926Y-56279203D01*
X147519750Y-56284419D01*
X147539962Y-56291651D01*
X147559368Y-56300830D01*
X147577781Y-56311866D01*
X147595024Y-56324654D01*
X147610930Y-56339070D01*
X147625346Y-56354976D01*
X147638134Y-56372219D01*
X147649170Y-56390632D01*
X147658349Y-56410038D01*
X147665581Y-56430250D01*
X147670797Y-56451074D01*
X147673947Y-56472309D01*
X147675000Y-56493750D01*
X147675000Y-56931250D01*
X147673947Y-56952691D01*
X147670797Y-56973926D01*
X147665581Y-56994750D01*
X147658349Y-57014962D01*
X147649170Y-57034368D01*
X147638134Y-57052781D01*
X147625346Y-57070024D01*
X147610930Y-57085930D01*
X147595024Y-57100346D01*
X147577781Y-57113134D01*
X147559368Y-57124170D01*
X147539962Y-57133349D01*
X147519750Y-57140581D01*
X147498926Y-57145797D01*
X147477691Y-57148947D01*
X147456250Y-57150000D01*
X146943750Y-57150000D01*
X146922309Y-57148947D01*
X146901074Y-57145797D01*
X146880250Y-57140581D01*
X146860038Y-57133349D01*
X146840632Y-57124170D01*
X146822219Y-57113134D01*
X146804976Y-57100346D01*
X146789070Y-57085930D01*
X146774654Y-57070024D01*
X146761866Y-57052781D01*
X146750830Y-57034368D01*
X146741651Y-57014962D01*
X146734419Y-56994750D01*
X146729203Y-56973926D01*
X146726053Y-56952691D01*
X146725000Y-56931250D01*
X146725000Y-56493750D01*
X146726053Y-56472309D01*
X146729203Y-56451074D01*
X146734419Y-56430250D01*
X146741651Y-56410038D01*
X146750830Y-56390632D01*
X146761866Y-56372219D01*
X146774654Y-56354976D01*
X146789070Y-56339070D01*
X146804976Y-56324654D01*
X146822219Y-56311866D01*
X146840632Y-56300830D01*
X146860038Y-56291651D01*
X146880250Y-56284419D01*
X146901074Y-56279203D01*
X146922309Y-56276053D01*
X146943750Y-56275000D01*
X147456250Y-56275000D01*
X147477691Y-56276053D01*
X147477691Y-56276053D01*
G37*
D11*
X147200000Y-56712500D03*
D10*
G36*
X121477691Y-55288553D02*
G01*
X121498926Y-55291703D01*
X121519750Y-55296919D01*
X121539962Y-55304151D01*
X121559368Y-55313330D01*
X121577781Y-55324366D01*
X121595024Y-55337154D01*
X121610930Y-55351570D01*
X121625346Y-55367476D01*
X121638134Y-55384719D01*
X121649170Y-55403132D01*
X121658349Y-55422538D01*
X121665581Y-55442750D01*
X121670797Y-55463574D01*
X121673947Y-55484809D01*
X121675000Y-55506250D01*
X121675000Y-55943750D01*
X121673947Y-55965191D01*
X121670797Y-55986426D01*
X121665581Y-56007250D01*
X121658349Y-56027462D01*
X121649170Y-56046868D01*
X121638134Y-56065281D01*
X121625346Y-56082524D01*
X121610930Y-56098430D01*
X121595024Y-56112846D01*
X121577781Y-56125634D01*
X121559368Y-56136670D01*
X121539962Y-56145849D01*
X121519750Y-56153081D01*
X121498926Y-56158297D01*
X121477691Y-56161447D01*
X121456250Y-56162500D01*
X120943750Y-56162500D01*
X120922309Y-56161447D01*
X120901074Y-56158297D01*
X120880250Y-56153081D01*
X120860038Y-56145849D01*
X120840632Y-56136670D01*
X120822219Y-56125634D01*
X120804976Y-56112846D01*
X120789070Y-56098430D01*
X120774654Y-56082524D01*
X120761866Y-56065281D01*
X120750830Y-56046868D01*
X120741651Y-56027462D01*
X120734419Y-56007250D01*
X120729203Y-55986426D01*
X120726053Y-55965191D01*
X120725000Y-55943750D01*
X120725000Y-55506250D01*
X120726053Y-55484809D01*
X120729203Y-55463574D01*
X120734419Y-55442750D01*
X120741651Y-55422538D01*
X120750830Y-55403132D01*
X120761866Y-55384719D01*
X120774654Y-55367476D01*
X120789070Y-55351570D01*
X120804976Y-55337154D01*
X120822219Y-55324366D01*
X120840632Y-55313330D01*
X120860038Y-55304151D01*
X120880250Y-55296919D01*
X120901074Y-55291703D01*
X120922309Y-55288553D01*
X120943750Y-55287500D01*
X121456250Y-55287500D01*
X121477691Y-55288553D01*
X121477691Y-55288553D01*
G37*
D11*
X121200000Y-55725000D03*
D10*
G36*
X121477691Y-56863553D02*
G01*
X121498926Y-56866703D01*
X121519750Y-56871919D01*
X121539962Y-56879151D01*
X121559368Y-56888330D01*
X121577781Y-56899366D01*
X121595024Y-56912154D01*
X121610930Y-56926570D01*
X121625346Y-56942476D01*
X121638134Y-56959719D01*
X121649170Y-56978132D01*
X121658349Y-56997538D01*
X121665581Y-57017750D01*
X121670797Y-57038574D01*
X121673947Y-57059809D01*
X121675000Y-57081250D01*
X121675000Y-57518750D01*
X121673947Y-57540191D01*
X121670797Y-57561426D01*
X121665581Y-57582250D01*
X121658349Y-57602462D01*
X121649170Y-57621868D01*
X121638134Y-57640281D01*
X121625346Y-57657524D01*
X121610930Y-57673430D01*
X121595024Y-57687846D01*
X121577781Y-57700634D01*
X121559368Y-57711670D01*
X121539962Y-57720849D01*
X121519750Y-57728081D01*
X121498926Y-57733297D01*
X121477691Y-57736447D01*
X121456250Y-57737500D01*
X120943750Y-57737500D01*
X120922309Y-57736447D01*
X120901074Y-57733297D01*
X120880250Y-57728081D01*
X120860038Y-57720849D01*
X120840632Y-57711670D01*
X120822219Y-57700634D01*
X120804976Y-57687846D01*
X120789070Y-57673430D01*
X120774654Y-57657524D01*
X120761866Y-57640281D01*
X120750830Y-57621868D01*
X120741651Y-57602462D01*
X120734419Y-57582250D01*
X120729203Y-57561426D01*
X120726053Y-57540191D01*
X120725000Y-57518750D01*
X120725000Y-57081250D01*
X120726053Y-57059809D01*
X120729203Y-57038574D01*
X120734419Y-57017750D01*
X120741651Y-56997538D01*
X120750830Y-56978132D01*
X120761866Y-56959719D01*
X120774654Y-56942476D01*
X120789070Y-56926570D01*
X120804976Y-56912154D01*
X120822219Y-56899366D01*
X120840632Y-56888330D01*
X120860038Y-56879151D01*
X120880250Y-56871919D01*
X120901074Y-56866703D01*
X120922309Y-56863553D01*
X120943750Y-56862500D01*
X121456250Y-56862500D01*
X121477691Y-56863553D01*
X121477691Y-56863553D01*
G37*
D11*
X121200000Y-57300000D03*
D10*
G36*
X121827691Y-68926053D02*
G01*
X121848926Y-68929203D01*
X121869750Y-68934419D01*
X121889962Y-68941651D01*
X121909368Y-68950830D01*
X121927781Y-68961866D01*
X121945024Y-68974654D01*
X121960930Y-68989070D01*
X121975346Y-69004976D01*
X121988134Y-69022219D01*
X121999170Y-69040632D01*
X122008349Y-69060038D01*
X122015581Y-69080250D01*
X122020797Y-69101074D01*
X122023947Y-69122309D01*
X122025000Y-69143750D01*
X122025000Y-69656250D01*
X122023947Y-69677691D01*
X122020797Y-69698926D01*
X122015581Y-69719750D01*
X122008349Y-69739962D01*
X121999170Y-69759368D01*
X121988134Y-69777781D01*
X121975346Y-69795024D01*
X121960930Y-69810930D01*
X121945024Y-69825346D01*
X121927781Y-69838134D01*
X121909368Y-69849170D01*
X121889962Y-69858349D01*
X121869750Y-69865581D01*
X121848926Y-69870797D01*
X121827691Y-69873947D01*
X121806250Y-69875000D01*
X121368750Y-69875000D01*
X121347309Y-69873947D01*
X121326074Y-69870797D01*
X121305250Y-69865581D01*
X121285038Y-69858349D01*
X121265632Y-69849170D01*
X121247219Y-69838134D01*
X121229976Y-69825346D01*
X121214070Y-69810930D01*
X121199654Y-69795024D01*
X121186866Y-69777781D01*
X121175830Y-69759368D01*
X121166651Y-69739962D01*
X121159419Y-69719750D01*
X121154203Y-69698926D01*
X121151053Y-69677691D01*
X121150000Y-69656250D01*
X121150000Y-69143750D01*
X121151053Y-69122309D01*
X121154203Y-69101074D01*
X121159419Y-69080250D01*
X121166651Y-69060038D01*
X121175830Y-69040632D01*
X121186866Y-69022219D01*
X121199654Y-69004976D01*
X121214070Y-68989070D01*
X121229976Y-68974654D01*
X121247219Y-68961866D01*
X121265632Y-68950830D01*
X121285038Y-68941651D01*
X121305250Y-68934419D01*
X121326074Y-68929203D01*
X121347309Y-68926053D01*
X121368750Y-68925000D01*
X121806250Y-68925000D01*
X121827691Y-68926053D01*
X121827691Y-68926053D01*
G37*
D11*
X121587500Y-69400000D03*
D10*
G36*
X120252691Y-68926053D02*
G01*
X120273926Y-68929203D01*
X120294750Y-68934419D01*
X120314962Y-68941651D01*
X120334368Y-68950830D01*
X120352781Y-68961866D01*
X120370024Y-68974654D01*
X120385930Y-68989070D01*
X120400346Y-69004976D01*
X120413134Y-69022219D01*
X120424170Y-69040632D01*
X120433349Y-69060038D01*
X120440581Y-69080250D01*
X120445797Y-69101074D01*
X120448947Y-69122309D01*
X120450000Y-69143750D01*
X120450000Y-69656250D01*
X120448947Y-69677691D01*
X120445797Y-69698926D01*
X120440581Y-69719750D01*
X120433349Y-69739962D01*
X120424170Y-69759368D01*
X120413134Y-69777781D01*
X120400346Y-69795024D01*
X120385930Y-69810930D01*
X120370024Y-69825346D01*
X120352781Y-69838134D01*
X120334368Y-69849170D01*
X120314962Y-69858349D01*
X120294750Y-69865581D01*
X120273926Y-69870797D01*
X120252691Y-69873947D01*
X120231250Y-69875000D01*
X119793750Y-69875000D01*
X119772309Y-69873947D01*
X119751074Y-69870797D01*
X119730250Y-69865581D01*
X119710038Y-69858349D01*
X119690632Y-69849170D01*
X119672219Y-69838134D01*
X119654976Y-69825346D01*
X119639070Y-69810930D01*
X119624654Y-69795024D01*
X119611866Y-69777781D01*
X119600830Y-69759368D01*
X119591651Y-69739962D01*
X119584419Y-69719750D01*
X119579203Y-69698926D01*
X119576053Y-69677691D01*
X119575000Y-69656250D01*
X119575000Y-69143750D01*
X119576053Y-69122309D01*
X119579203Y-69101074D01*
X119584419Y-69080250D01*
X119591651Y-69060038D01*
X119600830Y-69040632D01*
X119611866Y-69022219D01*
X119624654Y-69004976D01*
X119639070Y-68989070D01*
X119654976Y-68974654D01*
X119672219Y-68961866D01*
X119690632Y-68950830D01*
X119710038Y-68941651D01*
X119730250Y-68934419D01*
X119751074Y-68929203D01*
X119772309Y-68926053D01*
X119793750Y-68925000D01*
X120231250Y-68925000D01*
X120252691Y-68926053D01*
X120252691Y-68926053D01*
G37*
D11*
X120012500Y-69400000D03*
D10*
G36*
X115852691Y-68926053D02*
G01*
X115873926Y-68929203D01*
X115894750Y-68934419D01*
X115914962Y-68941651D01*
X115934368Y-68950830D01*
X115952781Y-68961866D01*
X115970024Y-68974654D01*
X115985930Y-68989070D01*
X116000346Y-69004976D01*
X116013134Y-69022219D01*
X116024170Y-69040632D01*
X116033349Y-69060038D01*
X116040581Y-69080250D01*
X116045797Y-69101074D01*
X116048947Y-69122309D01*
X116050000Y-69143750D01*
X116050000Y-69656250D01*
X116048947Y-69677691D01*
X116045797Y-69698926D01*
X116040581Y-69719750D01*
X116033349Y-69739962D01*
X116024170Y-69759368D01*
X116013134Y-69777781D01*
X116000346Y-69795024D01*
X115985930Y-69810930D01*
X115970024Y-69825346D01*
X115952781Y-69838134D01*
X115934368Y-69849170D01*
X115914962Y-69858349D01*
X115894750Y-69865581D01*
X115873926Y-69870797D01*
X115852691Y-69873947D01*
X115831250Y-69875000D01*
X115393750Y-69875000D01*
X115372309Y-69873947D01*
X115351074Y-69870797D01*
X115330250Y-69865581D01*
X115310038Y-69858349D01*
X115290632Y-69849170D01*
X115272219Y-69838134D01*
X115254976Y-69825346D01*
X115239070Y-69810930D01*
X115224654Y-69795024D01*
X115211866Y-69777781D01*
X115200830Y-69759368D01*
X115191651Y-69739962D01*
X115184419Y-69719750D01*
X115179203Y-69698926D01*
X115176053Y-69677691D01*
X115175000Y-69656250D01*
X115175000Y-69143750D01*
X115176053Y-69122309D01*
X115179203Y-69101074D01*
X115184419Y-69080250D01*
X115191651Y-69060038D01*
X115200830Y-69040632D01*
X115211866Y-69022219D01*
X115224654Y-69004976D01*
X115239070Y-68989070D01*
X115254976Y-68974654D01*
X115272219Y-68961866D01*
X115290632Y-68950830D01*
X115310038Y-68941651D01*
X115330250Y-68934419D01*
X115351074Y-68929203D01*
X115372309Y-68926053D01*
X115393750Y-68925000D01*
X115831250Y-68925000D01*
X115852691Y-68926053D01*
X115852691Y-68926053D01*
G37*
D11*
X115612500Y-69400000D03*
D10*
G36*
X117427691Y-68926053D02*
G01*
X117448926Y-68929203D01*
X117469750Y-68934419D01*
X117489962Y-68941651D01*
X117509368Y-68950830D01*
X117527781Y-68961866D01*
X117545024Y-68974654D01*
X117560930Y-68989070D01*
X117575346Y-69004976D01*
X117588134Y-69022219D01*
X117599170Y-69040632D01*
X117608349Y-69060038D01*
X117615581Y-69080250D01*
X117620797Y-69101074D01*
X117623947Y-69122309D01*
X117625000Y-69143750D01*
X117625000Y-69656250D01*
X117623947Y-69677691D01*
X117620797Y-69698926D01*
X117615581Y-69719750D01*
X117608349Y-69739962D01*
X117599170Y-69759368D01*
X117588134Y-69777781D01*
X117575346Y-69795024D01*
X117560930Y-69810930D01*
X117545024Y-69825346D01*
X117527781Y-69838134D01*
X117509368Y-69849170D01*
X117489962Y-69858349D01*
X117469750Y-69865581D01*
X117448926Y-69870797D01*
X117427691Y-69873947D01*
X117406250Y-69875000D01*
X116968750Y-69875000D01*
X116947309Y-69873947D01*
X116926074Y-69870797D01*
X116905250Y-69865581D01*
X116885038Y-69858349D01*
X116865632Y-69849170D01*
X116847219Y-69838134D01*
X116829976Y-69825346D01*
X116814070Y-69810930D01*
X116799654Y-69795024D01*
X116786866Y-69777781D01*
X116775830Y-69759368D01*
X116766651Y-69739962D01*
X116759419Y-69719750D01*
X116754203Y-69698926D01*
X116751053Y-69677691D01*
X116750000Y-69656250D01*
X116750000Y-69143750D01*
X116751053Y-69122309D01*
X116754203Y-69101074D01*
X116759419Y-69080250D01*
X116766651Y-69060038D01*
X116775830Y-69040632D01*
X116786866Y-69022219D01*
X116799654Y-69004976D01*
X116814070Y-68989070D01*
X116829976Y-68974654D01*
X116847219Y-68961866D01*
X116865632Y-68950830D01*
X116885038Y-68941651D01*
X116905250Y-68934419D01*
X116926074Y-68929203D01*
X116947309Y-68926053D01*
X116968750Y-68925000D01*
X117406250Y-68925000D01*
X117427691Y-68926053D01*
X117427691Y-68926053D01*
G37*
D11*
X117187500Y-69400000D03*
D10*
G36*
X137277691Y-56851053D02*
G01*
X137298926Y-56854203D01*
X137319750Y-56859419D01*
X137339962Y-56866651D01*
X137359368Y-56875830D01*
X137377781Y-56886866D01*
X137395024Y-56899654D01*
X137410930Y-56914070D01*
X137425346Y-56929976D01*
X137438134Y-56947219D01*
X137449170Y-56965632D01*
X137458349Y-56985038D01*
X137465581Y-57005250D01*
X137470797Y-57026074D01*
X137473947Y-57047309D01*
X137475000Y-57068750D01*
X137475000Y-57506250D01*
X137473947Y-57527691D01*
X137470797Y-57548926D01*
X137465581Y-57569750D01*
X137458349Y-57589962D01*
X137449170Y-57609368D01*
X137438134Y-57627781D01*
X137425346Y-57645024D01*
X137410930Y-57660930D01*
X137395024Y-57675346D01*
X137377781Y-57688134D01*
X137359368Y-57699170D01*
X137339962Y-57708349D01*
X137319750Y-57715581D01*
X137298926Y-57720797D01*
X137277691Y-57723947D01*
X137256250Y-57725000D01*
X136743750Y-57725000D01*
X136722309Y-57723947D01*
X136701074Y-57720797D01*
X136680250Y-57715581D01*
X136660038Y-57708349D01*
X136640632Y-57699170D01*
X136622219Y-57688134D01*
X136604976Y-57675346D01*
X136589070Y-57660930D01*
X136574654Y-57645024D01*
X136561866Y-57627781D01*
X136550830Y-57609368D01*
X136541651Y-57589962D01*
X136534419Y-57569750D01*
X136529203Y-57548926D01*
X136526053Y-57527691D01*
X136525000Y-57506250D01*
X136525000Y-57068750D01*
X136526053Y-57047309D01*
X136529203Y-57026074D01*
X136534419Y-57005250D01*
X136541651Y-56985038D01*
X136550830Y-56965632D01*
X136561866Y-56947219D01*
X136574654Y-56929976D01*
X136589070Y-56914070D01*
X136604976Y-56899654D01*
X136622219Y-56886866D01*
X136640632Y-56875830D01*
X136660038Y-56866651D01*
X136680250Y-56859419D01*
X136701074Y-56854203D01*
X136722309Y-56851053D01*
X136743750Y-56850000D01*
X137256250Y-56850000D01*
X137277691Y-56851053D01*
X137277691Y-56851053D01*
G37*
D11*
X137000000Y-57287500D03*
D10*
G36*
X137277691Y-55276053D02*
G01*
X137298926Y-55279203D01*
X137319750Y-55284419D01*
X137339962Y-55291651D01*
X137359368Y-55300830D01*
X137377781Y-55311866D01*
X137395024Y-55324654D01*
X137410930Y-55339070D01*
X137425346Y-55354976D01*
X137438134Y-55372219D01*
X137449170Y-55390632D01*
X137458349Y-55410038D01*
X137465581Y-55430250D01*
X137470797Y-55451074D01*
X137473947Y-55472309D01*
X137475000Y-55493750D01*
X137475000Y-55931250D01*
X137473947Y-55952691D01*
X137470797Y-55973926D01*
X137465581Y-55994750D01*
X137458349Y-56014962D01*
X137449170Y-56034368D01*
X137438134Y-56052781D01*
X137425346Y-56070024D01*
X137410930Y-56085930D01*
X137395024Y-56100346D01*
X137377781Y-56113134D01*
X137359368Y-56124170D01*
X137339962Y-56133349D01*
X137319750Y-56140581D01*
X137298926Y-56145797D01*
X137277691Y-56148947D01*
X137256250Y-56150000D01*
X136743750Y-56150000D01*
X136722309Y-56148947D01*
X136701074Y-56145797D01*
X136680250Y-56140581D01*
X136660038Y-56133349D01*
X136640632Y-56124170D01*
X136622219Y-56113134D01*
X136604976Y-56100346D01*
X136589070Y-56085930D01*
X136574654Y-56070024D01*
X136561866Y-56052781D01*
X136550830Y-56034368D01*
X136541651Y-56014962D01*
X136534419Y-55994750D01*
X136529203Y-55973926D01*
X136526053Y-55952691D01*
X136525000Y-55931250D01*
X136525000Y-55493750D01*
X136526053Y-55472309D01*
X136529203Y-55451074D01*
X136534419Y-55430250D01*
X136541651Y-55410038D01*
X136550830Y-55390632D01*
X136561866Y-55372219D01*
X136574654Y-55354976D01*
X136589070Y-55339070D01*
X136604976Y-55324654D01*
X136622219Y-55311866D01*
X136640632Y-55300830D01*
X136660038Y-55291651D01*
X136680250Y-55284419D01*
X136701074Y-55279203D01*
X136722309Y-55276053D01*
X136743750Y-55275000D01*
X137256250Y-55275000D01*
X137277691Y-55276053D01*
X137277691Y-55276053D01*
G37*
D11*
X137000000Y-55712500D03*
D10*
G36*
X153827691Y-56226053D02*
G01*
X153848926Y-56229203D01*
X153869750Y-56234419D01*
X153889962Y-56241651D01*
X153909368Y-56250830D01*
X153927781Y-56261866D01*
X153945024Y-56274654D01*
X153960930Y-56289070D01*
X153975346Y-56304976D01*
X153988134Y-56322219D01*
X153999170Y-56340632D01*
X154008349Y-56360038D01*
X154015581Y-56380250D01*
X154020797Y-56401074D01*
X154023947Y-56422309D01*
X154025000Y-56443750D01*
X154025000Y-56956250D01*
X154023947Y-56977691D01*
X154020797Y-56998926D01*
X154015581Y-57019750D01*
X154008349Y-57039962D01*
X153999170Y-57059368D01*
X153988134Y-57077781D01*
X153975346Y-57095024D01*
X153960930Y-57110930D01*
X153945024Y-57125346D01*
X153927781Y-57138134D01*
X153909368Y-57149170D01*
X153889962Y-57158349D01*
X153869750Y-57165581D01*
X153848926Y-57170797D01*
X153827691Y-57173947D01*
X153806250Y-57175000D01*
X153368750Y-57175000D01*
X153347309Y-57173947D01*
X153326074Y-57170797D01*
X153305250Y-57165581D01*
X153285038Y-57158349D01*
X153265632Y-57149170D01*
X153247219Y-57138134D01*
X153229976Y-57125346D01*
X153214070Y-57110930D01*
X153199654Y-57095024D01*
X153186866Y-57077781D01*
X153175830Y-57059368D01*
X153166651Y-57039962D01*
X153159419Y-57019750D01*
X153154203Y-56998926D01*
X153151053Y-56977691D01*
X153150000Y-56956250D01*
X153150000Y-56443750D01*
X153151053Y-56422309D01*
X153154203Y-56401074D01*
X153159419Y-56380250D01*
X153166651Y-56360038D01*
X153175830Y-56340632D01*
X153186866Y-56322219D01*
X153199654Y-56304976D01*
X153214070Y-56289070D01*
X153229976Y-56274654D01*
X153247219Y-56261866D01*
X153265632Y-56250830D01*
X153285038Y-56241651D01*
X153305250Y-56234419D01*
X153326074Y-56229203D01*
X153347309Y-56226053D01*
X153368750Y-56225000D01*
X153806250Y-56225000D01*
X153827691Y-56226053D01*
X153827691Y-56226053D01*
G37*
D11*
X153587500Y-56700000D03*
D10*
G36*
X152252691Y-56226053D02*
G01*
X152273926Y-56229203D01*
X152294750Y-56234419D01*
X152314962Y-56241651D01*
X152334368Y-56250830D01*
X152352781Y-56261866D01*
X152370024Y-56274654D01*
X152385930Y-56289070D01*
X152400346Y-56304976D01*
X152413134Y-56322219D01*
X152424170Y-56340632D01*
X152433349Y-56360038D01*
X152440581Y-56380250D01*
X152445797Y-56401074D01*
X152448947Y-56422309D01*
X152450000Y-56443750D01*
X152450000Y-56956250D01*
X152448947Y-56977691D01*
X152445797Y-56998926D01*
X152440581Y-57019750D01*
X152433349Y-57039962D01*
X152424170Y-57059368D01*
X152413134Y-57077781D01*
X152400346Y-57095024D01*
X152385930Y-57110930D01*
X152370024Y-57125346D01*
X152352781Y-57138134D01*
X152334368Y-57149170D01*
X152314962Y-57158349D01*
X152294750Y-57165581D01*
X152273926Y-57170797D01*
X152252691Y-57173947D01*
X152231250Y-57175000D01*
X151793750Y-57175000D01*
X151772309Y-57173947D01*
X151751074Y-57170797D01*
X151730250Y-57165581D01*
X151710038Y-57158349D01*
X151690632Y-57149170D01*
X151672219Y-57138134D01*
X151654976Y-57125346D01*
X151639070Y-57110930D01*
X151624654Y-57095024D01*
X151611866Y-57077781D01*
X151600830Y-57059368D01*
X151591651Y-57039962D01*
X151584419Y-57019750D01*
X151579203Y-56998926D01*
X151576053Y-56977691D01*
X151575000Y-56956250D01*
X151575000Y-56443750D01*
X151576053Y-56422309D01*
X151579203Y-56401074D01*
X151584419Y-56380250D01*
X151591651Y-56360038D01*
X151600830Y-56340632D01*
X151611866Y-56322219D01*
X151624654Y-56304976D01*
X151639070Y-56289070D01*
X151654976Y-56274654D01*
X151672219Y-56261866D01*
X151690632Y-56250830D01*
X151710038Y-56241651D01*
X151730250Y-56234419D01*
X151751074Y-56229203D01*
X151772309Y-56226053D01*
X151793750Y-56225000D01*
X152231250Y-56225000D01*
X152252691Y-56226053D01*
X152252691Y-56226053D01*
G37*
D11*
X152012500Y-56700000D03*
D10*
G36*
X123077691Y-55276053D02*
G01*
X123098926Y-55279203D01*
X123119750Y-55284419D01*
X123139962Y-55291651D01*
X123159368Y-55300830D01*
X123177781Y-55311866D01*
X123195024Y-55324654D01*
X123210930Y-55339070D01*
X123225346Y-55354976D01*
X123238134Y-55372219D01*
X123249170Y-55390632D01*
X123258349Y-55410038D01*
X123265581Y-55430250D01*
X123270797Y-55451074D01*
X123273947Y-55472309D01*
X123275000Y-55493750D01*
X123275000Y-55931250D01*
X123273947Y-55952691D01*
X123270797Y-55973926D01*
X123265581Y-55994750D01*
X123258349Y-56014962D01*
X123249170Y-56034368D01*
X123238134Y-56052781D01*
X123225346Y-56070024D01*
X123210930Y-56085930D01*
X123195024Y-56100346D01*
X123177781Y-56113134D01*
X123159368Y-56124170D01*
X123139962Y-56133349D01*
X123119750Y-56140581D01*
X123098926Y-56145797D01*
X123077691Y-56148947D01*
X123056250Y-56150000D01*
X122543750Y-56150000D01*
X122522309Y-56148947D01*
X122501074Y-56145797D01*
X122480250Y-56140581D01*
X122460038Y-56133349D01*
X122440632Y-56124170D01*
X122422219Y-56113134D01*
X122404976Y-56100346D01*
X122389070Y-56085930D01*
X122374654Y-56070024D01*
X122361866Y-56052781D01*
X122350830Y-56034368D01*
X122341651Y-56014962D01*
X122334419Y-55994750D01*
X122329203Y-55973926D01*
X122326053Y-55952691D01*
X122325000Y-55931250D01*
X122325000Y-55493750D01*
X122326053Y-55472309D01*
X122329203Y-55451074D01*
X122334419Y-55430250D01*
X122341651Y-55410038D01*
X122350830Y-55390632D01*
X122361866Y-55372219D01*
X122374654Y-55354976D01*
X122389070Y-55339070D01*
X122404976Y-55324654D01*
X122422219Y-55311866D01*
X122440632Y-55300830D01*
X122460038Y-55291651D01*
X122480250Y-55284419D01*
X122501074Y-55279203D01*
X122522309Y-55276053D01*
X122543750Y-55275000D01*
X123056250Y-55275000D01*
X123077691Y-55276053D01*
X123077691Y-55276053D01*
G37*
D11*
X122800000Y-55712500D03*
D10*
G36*
X123077691Y-56851053D02*
G01*
X123098926Y-56854203D01*
X123119750Y-56859419D01*
X123139962Y-56866651D01*
X123159368Y-56875830D01*
X123177781Y-56886866D01*
X123195024Y-56899654D01*
X123210930Y-56914070D01*
X123225346Y-56929976D01*
X123238134Y-56947219D01*
X123249170Y-56965632D01*
X123258349Y-56985038D01*
X123265581Y-57005250D01*
X123270797Y-57026074D01*
X123273947Y-57047309D01*
X123275000Y-57068750D01*
X123275000Y-57506250D01*
X123273947Y-57527691D01*
X123270797Y-57548926D01*
X123265581Y-57569750D01*
X123258349Y-57589962D01*
X123249170Y-57609368D01*
X123238134Y-57627781D01*
X123225346Y-57645024D01*
X123210930Y-57660930D01*
X123195024Y-57675346D01*
X123177781Y-57688134D01*
X123159368Y-57699170D01*
X123139962Y-57708349D01*
X123119750Y-57715581D01*
X123098926Y-57720797D01*
X123077691Y-57723947D01*
X123056250Y-57725000D01*
X122543750Y-57725000D01*
X122522309Y-57723947D01*
X122501074Y-57720797D01*
X122480250Y-57715581D01*
X122460038Y-57708349D01*
X122440632Y-57699170D01*
X122422219Y-57688134D01*
X122404976Y-57675346D01*
X122389070Y-57660930D01*
X122374654Y-57645024D01*
X122361866Y-57627781D01*
X122350830Y-57609368D01*
X122341651Y-57589962D01*
X122334419Y-57569750D01*
X122329203Y-57548926D01*
X122326053Y-57527691D01*
X122325000Y-57506250D01*
X122325000Y-57068750D01*
X122326053Y-57047309D01*
X122329203Y-57026074D01*
X122334419Y-57005250D01*
X122341651Y-56985038D01*
X122350830Y-56965632D01*
X122361866Y-56947219D01*
X122374654Y-56929976D01*
X122389070Y-56914070D01*
X122404976Y-56899654D01*
X122422219Y-56886866D01*
X122440632Y-56875830D01*
X122460038Y-56866651D01*
X122480250Y-56859419D01*
X122501074Y-56854203D01*
X122522309Y-56851053D01*
X122543750Y-56850000D01*
X123056250Y-56850000D01*
X123077691Y-56851053D01*
X123077691Y-56851053D01*
G37*
D11*
X122800000Y-57287500D03*
D10*
G36*
X130252691Y-53326053D02*
G01*
X130273926Y-53329203D01*
X130294750Y-53334419D01*
X130314962Y-53341651D01*
X130334368Y-53350830D01*
X130352781Y-53361866D01*
X130370024Y-53374654D01*
X130385930Y-53389070D01*
X130400346Y-53404976D01*
X130413134Y-53422219D01*
X130424170Y-53440632D01*
X130433349Y-53460038D01*
X130440581Y-53480250D01*
X130445797Y-53501074D01*
X130448947Y-53522309D01*
X130450000Y-53543750D01*
X130450000Y-54056250D01*
X130448947Y-54077691D01*
X130445797Y-54098926D01*
X130440581Y-54119750D01*
X130433349Y-54139962D01*
X130424170Y-54159368D01*
X130413134Y-54177781D01*
X130400346Y-54195024D01*
X130385930Y-54210930D01*
X130370024Y-54225346D01*
X130352781Y-54238134D01*
X130334368Y-54249170D01*
X130314962Y-54258349D01*
X130294750Y-54265581D01*
X130273926Y-54270797D01*
X130252691Y-54273947D01*
X130231250Y-54275000D01*
X129793750Y-54275000D01*
X129772309Y-54273947D01*
X129751074Y-54270797D01*
X129730250Y-54265581D01*
X129710038Y-54258349D01*
X129690632Y-54249170D01*
X129672219Y-54238134D01*
X129654976Y-54225346D01*
X129639070Y-54210930D01*
X129624654Y-54195024D01*
X129611866Y-54177781D01*
X129600830Y-54159368D01*
X129591651Y-54139962D01*
X129584419Y-54119750D01*
X129579203Y-54098926D01*
X129576053Y-54077691D01*
X129575000Y-54056250D01*
X129575000Y-53543750D01*
X129576053Y-53522309D01*
X129579203Y-53501074D01*
X129584419Y-53480250D01*
X129591651Y-53460038D01*
X129600830Y-53440632D01*
X129611866Y-53422219D01*
X129624654Y-53404976D01*
X129639070Y-53389070D01*
X129654976Y-53374654D01*
X129672219Y-53361866D01*
X129690632Y-53350830D01*
X129710038Y-53341651D01*
X129730250Y-53334419D01*
X129751074Y-53329203D01*
X129772309Y-53326053D01*
X129793750Y-53325000D01*
X130231250Y-53325000D01*
X130252691Y-53326053D01*
X130252691Y-53326053D01*
G37*
D11*
X130012500Y-53800000D03*
D10*
G36*
X131827691Y-53326053D02*
G01*
X131848926Y-53329203D01*
X131869750Y-53334419D01*
X131889962Y-53341651D01*
X131909368Y-53350830D01*
X131927781Y-53361866D01*
X131945024Y-53374654D01*
X131960930Y-53389070D01*
X131975346Y-53404976D01*
X131988134Y-53422219D01*
X131999170Y-53440632D01*
X132008349Y-53460038D01*
X132015581Y-53480250D01*
X132020797Y-53501074D01*
X132023947Y-53522309D01*
X132025000Y-53543750D01*
X132025000Y-54056250D01*
X132023947Y-54077691D01*
X132020797Y-54098926D01*
X132015581Y-54119750D01*
X132008349Y-54139962D01*
X131999170Y-54159368D01*
X131988134Y-54177781D01*
X131975346Y-54195024D01*
X131960930Y-54210930D01*
X131945024Y-54225346D01*
X131927781Y-54238134D01*
X131909368Y-54249170D01*
X131889962Y-54258349D01*
X131869750Y-54265581D01*
X131848926Y-54270797D01*
X131827691Y-54273947D01*
X131806250Y-54275000D01*
X131368750Y-54275000D01*
X131347309Y-54273947D01*
X131326074Y-54270797D01*
X131305250Y-54265581D01*
X131285038Y-54258349D01*
X131265632Y-54249170D01*
X131247219Y-54238134D01*
X131229976Y-54225346D01*
X131214070Y-54210930D01*
X131199654Y-54195024D01*
X131186866Y-54177781D01*
X131175830Y-54159368D01*
X131166651Y-54139962D01*
X131159419Y-54119750D01*
X131154203Y-54098926D01*
X131151053Y-54077691D01*
X131150000Y-54056250D01*
X131150000Y-53543750D01*
X131151053Y-53522309D01*
X131154203Y-53501074D01*
X131159419Y-53480250D01*
X131166651Y-53460038D01*
X131175830Y-53440632D01*
X131186866Y-53422219D01*
X131199654Y-53404976D01*
X131214070Y-53389070D01*
X131229976Y-53374654D01*
X131247219Y-53361866D01*
X131265632Y-53350830D01*
X131285038Y-53341651D01*
X131305250Y-53334419D01*
X131326074Y-53329203D01*
X131347309Y-53326053D01*
X131368750Y-53325000D01*
X131806250Y-53325000D01*
X131827691Y-53326053D01*
X131827691Y-53326053D01*
G37*
D11*
X131587500Y-53800000D03*
D10*
G36*
X135677691Y-56851053D02*
G01*
X135698926Y-56854203D01*
X135719750Y-56859419D01*
X135739962Y-56866651D01*
X135759368Y-56875830D01*
X135777781Y-56886866D01*
X135795024Y-56899654D01*
X135810930Y-56914070D01*
X135825346Y-56929976D01*
X135838134Y-56947219D01*
X135849170Y-56965632D01*
X135858349Y-56985038D01*
X135865581Y-57005250D01*
X135870797Y-57026074D01*
X135873947Y-57047309D01*
X135875000Y-57068750D01*
X135875000Y-57506250D01*
X135873947Y-57527691D01*
X135870797Y-57548926D01*
X135865581Y-57569750D01*
X135858349Y-57589962D01*
X135849170Y-57609368D01*
X135838134Y-57627781D01*
X135825346Y-57645024D01*
X135810930Y-57660930D01*
X135795024Y-57675346D01*
X135777781Y-57688134D01*
X135759368Y-57699170D01*
X135739962Y-57708349D01*
X135719750Y-57715581D01*
X135698926Y-57720797D01*
X135677691Y-57723947D01*
X135656250Y-57725000D01*
X135143750Y-57725000D01*
X135122309Y-57723947D01*
X135101074Y-57720797D01*
X135080250Y-57715581D01*
X135060038Y-57708349D01*
X135040632Y-57699170D01*
X135022219Y-57688134D01*
X135004976Y-57675346D01*
X134989070Y-57660930D01*
X134974654Y-57645024D01*
X134961866Y-57627781D01*
X134950830Y-57609368D01*
X134941651Y-57589962D01*
X134934419Y-57569750D01*
X134929203Y-57548926D01*
X134926053Y-57527691D01*
X134925000Y-57506250D01*
X134925000Y-57068750D01*
X134926053Y-57047309D01*
X134929203Y-57026074D01*
X134934419Y-57005250D01*
X134941651Y-56985038D01*
X134950830Y-56965632D01*
X134961866Y-56947219D01*
X134974654Y-56929976D01*
X134989070Y-56914070D01*
X135004976Y-56899654D01*
X135022219Y-56886866D01*
X135040632Y-56875830D01*
X135060038Y-56866651D01*
X135080250Y-56859419D01*
X135101074Y-56854203D01*
X135122309Y-56851053D01*
X135143750Y-56850000D01*
X135656250Y-56850000D01*
X135677691Y-56851053D01*
X135677691Y-56851053D01*
G37*
D11*
X135400000Y-57287500D03*
D10*
G36*
X135677691Y-55276053D02*
G01*
X135698926Y-55279203D01*
X135719750Y-55284419D01*
X135739962Y-55291651D01*
X135759368Y-55300830D01*
X135777781Y-55311866D01*
X135795024Y-55324654D01*
X135810930Y-55339070D01*
X135825346Y-55354976D01*
X135838134Y-55372219D01*
X135849170Y-55390632D01*
X135858349Y-55410038D01*
X135865581Y-55430250D01*
X135870797Y-55451074D01*
X135873947Y-55472309D01*
X135875000Y-55493750D01*
X135875000Y-55931250D01*
X135873947Y-55952691D01*
X135870797Y-55973926D01*
X135865581Y-55994750D01*
X135858349Y-56014962D01*
X135849170Y-56034368D01*
X135838134Y-56052781D01*
X135825346Y-56070024D01*
X135810930Y-56085930D01*
X135795024Y-56100346D01*
X135777781Y-56113134D01*
X135759368Y-56124170D01*
X135739962Y-56133349D01*
X135719750Y-56140581D01*
X135698926Y-56145797D01*
X135677691Y-56148947D01*
X135656250Y-56150000D01*
X135143750Y-56150000D01*
X135122309Y-56148947D01*
X135101074Y-56145797D01*
X135080250Y-56140581D01*
X135060038Y-56133349D01*
X135040632Y-56124170D01*
X135022219Y-56113134D01*
X135004976Y-56100346D01*
X134989070Y-56085930D01*
X134974654Y-56070024D01*
X134961866Y-56052781D01*
X134950830Y-56034368D01*
X134941651Y-56014962D01*
X134934419Y-55994750D01*
X134929203Y-55973926D01*
X134926053Y-55952691D01*
X134925000Y-55931250D01*
X134925000Y-55493750D01*
X134926053Y-55472309D01*
X134929203Y-55451074D01*
X134934419Y-55430250D01*
X134941651Y-55410038D01*
X134950830Y-55390632D01*
X134961866Y-55372219D01*
X134974654Y-55354976D01*
X134989070Y-55339070D01*
X135004976Y-55324654D01*
X135022219Y-55311866D01*
X135040632Y-55300830D01*
X135060038Y-55291651D01*
X135080250Y-55284419D01*
X135101074Y-55279203D01*
X135122309Y-55276053D01*
X135143750Y-55275000D01*
X135656250Y-55275000D01*
X135677691Y-55276053D01*
X135677691Y-55276053D01*
G37*
D11*
X135400000Y-55712500D03*
D10*
G36*
X111277691Y-72551053D02*
G01*
X111298926Y-72554203D01*
X111319750Y-72559419D01*
X111339962Y-72566651D01*
X111359368Y-72575830D01*
X111377781Y-72586866D01*
X111395024Y-72599654D01*
X111410930Y-72614070D01*
X111425346Y-72629976D01*
X111438134Y-72647219D01*
X111449170Y-72665632D01*
X111458349Y-72685038D01*
X111465581Y-72705250D01*
X111470797Y-72726074D01*
X111473947Y-72747309D01*
X111475000Y-72768750D01*
X111475000Y-73206250D01*
X111473947Y-73227691D01*
X111470797Y-73248926D01*
X111465581Y-73269750D01*
X111458349Y-73289962D01*
X111449170Y-73309368D01*
X111438134Y-73327781D01*
X111425346Y-73345024D01*
X111410930Y-73360930D01*
X111395024Y-73375346D01*
X111377781Y-73388134D01*
X111359368Y-73399170D01*
X111339962Y-73408349D01*
X111319750Y-73415581D01*
X111298926Y-73420797D01*
X111277691Y-73423947D01*
X111256250Y-73425000D01*
X110743750Y-73425000D01*
X110722309Y-73423947D01*
X110701074Y-73420797D01*
X110680250Y-73415581D01*
X110660038Y-73408349D01*
X110640632Y-73399170D01*
X110622219Y-73388134D01*
X110604976Y-73375346D01*
X110589070Y-73360930D01*
X110574654Y-73345024D01*
X110561866Y-73327781D01*
X110550830Y-73309368D01*
X110541651Y-73289962D01*
X110534419Y-73269750D01*
X110529203Y-73248926D01*
X110526053Y-73227691D01*
X110525000Y-73206250D01*
X110525000Y-72768750D01*
X110526053Y-72747309D01*
X110529203Y-72726074D01*
X110534419Y-72705250D01*
X110541651Y-72685038D01*
X110550830Y-72665632D01*
X110561866Y-72647219D01*
X110574654Y-72629976D01*
X110589070Y-72614070D01*
X110604976Y-72599654D01*
X110622219Y-72586866D01*
X110640632Y-72575830D01*
X110660038Y-72566651D01*
X110680250Y-72559419D01*
X110701074Y-72554203D01*
X110722309Y-72551053D01*
X110743750Y-72550000D01*
X111256250Y-72550000D01*
X111277691Y-72551053D01*
X111277691Y-72551053D01*
G37*
D11*
X111000000Y-72987500D03*
D10*
G36*
X111277691Y-70976053D02*
G01*
X111298926Y-70979203D01*
X111319750Y-70984419D01*
X111339962Y-70991651D01*
X111359368Y-71000830D01*
X111377781Y-71011866D01*
X111395024Y-71024654D01*
X111410930Y-71039070D01*
X111425346Y-71054976D01*
X111438134Y-71072219D01*
X111449170Y-71090632D01*
X111458349Y-71110038D01*
X111465581Y-71130250D01*
X111470797Y-71151074D01*
X111473947Y-71172309D01*
X111475000Y-71193750D01*
X111475000Y-71631250D01*
X111473947Y-71652691D01*
X111470797Y-71673926D01*
X111465581Y-71694750D01*
X111458349Y-71714962D01*
X111449170Y-71734368D01*
X111438134Y-71752781D01*
X111425346Y-71770024D01*
X111410930Y-71785930D01*
X111395024Y-71800346D01*
X111377781Y-71813134D01*
X111359368Y-71824170D01*
X111339962Y-71833349D01*
X111319750Y-71840581D01*
X111298926Y-71845797D01*
X111277691Y-71848947D01*
X111256250Y-71850000D01*
X110743750Y-71850000D01*
X110722309Y-71848947D01*
X110701074Y-71845797D01*
X110680250Y-71840581D01*
X110660038Y-71833349D01*
X110640632Y-71824170D01*
X110622219Y-71813134D01*
X110604976Y-71800346D01*
X110589070Y-71785930D01*
X110574654Y-71770024D01*
X110561866Y-71752781D01*
X110550830Y-71734368D01*
X110541651Y-71714962D01*
X110534419Y-71694750D01*
X110529203Y-71673926D01*
X110526053Y-71652691D01*
X110525000Y-71631250D01*
X110525000Y-71193750D01*
X110526053Y-71172309D01*
X110529203Y-71151074D01*
X110534419Y-71130250D01*
X110541651Y-71110038D01*
X110550830Y-71090632D01*
X110561866Y-71072219D01*
X110574654Y-71054976D01*
X110589070Y-71039070D01*
X110604976Y-71024654D01*
X110622219Y-71011866D01*
X110640632Y-71000830D01*
X110660038Y-70991651D01*
X110680250Y-70984419D01*
X110701074Y-70979203D01*
X110722309Y-70976053D01*
X110743750Y-70975000D01*
X111256250Y-70975000D01*
X111277691Y-70976053D01*
X111277691Y-70976053D01*
G37*
D11*
X111000000Y-71412500D03*
D10*
G36*
X141277691Y-62076053D02*
G01*
X141298926Y-62079203D01*
X141319750Y-62084419D01*
X141339962Y-62091651D01*
X141359368Y-62100830D01*
X141377781Y-62111866D01*
X141395024Y-62124654D01*
X141410930Y-62139070D01*
X141425346Y-62154976D01*
X141438134Y-62172219D01*
X141449170Y-62190632D01*
X141458349Y-62210038D01*
X141465581Y-62230250D01*
X141470797Y-62251074D01*
X141473947Y-62272309D01*
X141475000Y-62293750D01*
X141475000Y-62731250D01*
X141473947Y-62752691D01*
X141470797Y-62773926D01*
X141465581Y-62794750D01*
X141458349Y-62814962D01*
X141449170Y-62834368D01*
X141438134Y-62852781D01*
X141425346Y-62870024D01*
X141410930Y-62885930D01*
X141395024Y-62900346D01*
X141377781Y-62913134D01*
X141359368Y-62924170D01*
X141339962Y-62933349D01*
X141319750Y-62940581D01*
X141298926Y-62945797D01*
X141277691Y-62948947D01*
X141256250Y-62950000D01*
X140743750Y-62950000D01*
X140722309Y-62948947D01*
X140701074Y-62945797D01*
X140680250Y-62940581D01*
X140660038Y-62933349D01*
X140640632Y-62924170D01*
X140622219Y-62913134D01*
X140604976Y-62900346D01*
X140589070Y-62885930D01*
X140574654Y-62870024D01*
X140561866Y-62852781D01*
X140550830Y-62834368D01*
X140541651Y-62814962D01*
X140534419Y-62794750D01*
X140529203Y-62773926D01*
X140526053Y-62752691D01*
X140525000Y-62731250D01*
X140525000Y-62293750D01*
X140526053Y-62272309D01*
X140529203Y-62251074D01*
X140534419Y-62230250D01*
X140541651Y-62210038D01*
X140550830Y-62190632D01*
X140561866Y-62172219D01*
X140574654Y-62154976D01*
X140589070Y-62139070D01*
X140604976Y-62124654D01*
X140622219Y-62111866D01*
X140640632Y-62100830D01*
X140660038Y-62091651D01*
X140680250Y-62084419D01*
X140701074Y-62079203D01*
X140722309Y-62076053D01*
X140743750Y-62075000D01*
X141256250Y-62075000D01*
X141277691Y-62076053D01*
X141277691Y-62076053D01*
G37*
D11*
X141000000Y-62512500D03*
D10*
G36*
X141277691Y-63651053D02*
G01*
X141298926Y-63654203D01*
X141319750Y-63659419D01*
X141339962Y-63666651D01*
X141359368Y-63675830D01*
X141377781Y-63686866D01*
X141395024Y-63699654D01*
X141410930Y-63714070D01*
X141425346Y-63729976D01*
X141438134Y-63747219D01*
X141449170Y-63765632D01*
X141458349Y-63785038D01*
X141465581Y-63805250D01*
X141470797Y-63826074D01*
X141473947Y-63847309D01*
X141475000Y-63868750D01*
X141475000Y-64306250D01*
X141473947Y-64327691D01*
X141470797Y-64348926D01*
X141465581Y-64369750D01*
X141458349Y-64389962D01*
X141449170Y-64409368D01*
X141438134Y-64427781D01*
X141425346Y-64445024D01*
X141410930Y-64460930D01*
X141395024Y-64475346D01*
X141377781Y-64488134D01*
X141359368Y-64499170D01*
X141339962Y-64508349D01*
X141319750Y-64515581D01*
X141298926Y-64520797D01*
X141277691Y-64523947D01*
X141256250Y-64525000D01*
X140743750Y-64525000D01*
X140722309Y-64523947D01*
X140701074Y-64520797D01*
X140680250Y-64515581D01*
X140660038Y-64508349D01*
X140640632Y-64499170D01*
X140622219Y-64488134D01*
X140604976Y-64475346D01*
X140589070Y-64460930D01*
X140574654Y-64445024D01*
X140561866Y-64427781D01*
X140550830Y-64409368D01*
X140541651Y-64389962D01*
X140534419Y-64369750D01*
X140529203Y-64348926D01*
X140526053Y-64327691D01*
X140525000Y-64306250D01*
X140525000Y-63868750D01*
X140526053Y-63847309D01*
X140529203Y-63826074D01*
X140534419Y-63805250D01*
X140541651Y-63785038D01*
X140550830Y-63765632D01*
X140561866Y-63747219D01*
X140574654Y-63729976D01*
X140589070Y-63714070D01*
X140604976Y-63699654D01*
X140622219Y-63686866D01*
X140640632Y-63675830D01*
X140660038Y-63666651D01*
X140680250Y-63659419D01*
X140701074Y-63654203D01*
X140722309Y-63651053D01*
X140743750Y-63650000D01*
X141256250Y-63650000D01*
X141277691Y-63651053D01*
X141277691Y-63651053D01*
G37*
D11*
X141000000Y-64087500D03*
D10*
G36*
X110677691Y-77151053D02*
G01*
X110698926Y-77154203D01*
X110719750Y-77159419D01*
X110739962Y-77166651D01*
X110759368Y-77175830D01*
X110777781Y-77186866D01*
X110795024Y-77199654D01*
X110810930Y-77214070D01*
X110825346Y-77229976D01*
X110838134Y-77247219D01*
X110849170Y-77265632D01*
X110858349Y-77285038D01*
X110865581Y-77305250D01*
X110870797Y-77326074D01*
X110873947Y-77347309D01*
X110875000Y-77368750D01*
X110875000Y-77806250D01*
X110873947Y-77827691D01*
X110870797Y-77848926D01*
X110865581Y-77869750D01*
X110858349Y-77889962D01*
X110849170Y-77909368D01*
X110838134Y-77927781D01*
X110825346Y-77945024D01*
X110810930Y-77960930D01*
X110795024Y-77975346D01*
X110777781Y-77988134D01*
X110759368Y-77999170D01*
X110739962Y-78008349D01*
X110719750Y-78015581D01*
X110698926Y-78020797D01*
X110677691Y-78023947D01*
X110656250Y-78025000D01*
X110143750Y-78025000D01*
X110122309Y-78023947D01*
X110101074Y-78020797D01*
X110080250Y-78015581D01*
X110060038Y-78008349D01*
X110040632Y-77999170D01*
X110022219Y-77988134D01*
X110004976Y-77975346D01*
X109989070Y-77960930D01*
X109974654Y-77945024D01*
X109961866Y-77927781D01*
X109950830Y-77909368D01*
X109941651Y-77889962D01*
X109934419Y-77869750D01*
X109929203Y-77848926D01*
X109926053Y-77827691D01*
X109925000Y-77806250D01*
X109925000Y-77368750D01*
X109926053Y-77347309D01*
X109929203Y-77326074D01*
X109934419Y-77305250D01*
X109941651Y-77285038D01*
X109950830Y-77265632D01*
X109961866Y-77247219D01*
X109974654Y-77229976D01*
X109989070Y-77214070D01*
X110004976Y-77199654D01*
X110022219Y-77186866D01*
X110040632Y-77175830D01*
X110060038Y-77166651D01*
X110080250Y-77159419D01*
X110101074Y-77154203D01*
X110122309Y-77151053D01*
X110143750Y-77150000D01*
X110656250Y-77150000D01*
X110677691Y-77151053D01*
X110677691Y-77151053D01*
G37*
D11*
X110400000Y-77587500D03*
D10*
G36*
X110677691Y-75576053D02*
G01*
X110698926Y-75579203D01*
X110719750Y-75584419D01*
X110739962Y-75591651D01*
X110759368Y-75600830D01*
X110777781Y-75611866D01*
X110795024Y-75624654D01*
X110810930Y-75639070D01*
X110825346Y-75654976D01*
X110838134Y-75672219D01*
X110849170Y-75690632D01*
X110858349Y-75710038D01*
X110865581Y-75730250D01*
X110870797Y-75751074D01*
X110873947Y-75772309D01*
X110875000Y-75793750D01*
X110875000Y-76231250D01*
X110873947Y-76252691D01*
X110870797Y-76273926D01*
X110865581Y-76294750D01*
X110858349Y-76314962D01*
X110849170Y-76334368D01*
X110838134Y-76352781D01*
X110825346Y-76370024D01*
X110810930Y-76385930D01*
X110795024Y-76400346D01*
X110777781Y-76413134D01*
X110759368Y-76424170D01*
X110739962Y-76433349D01*
X110719750Y-76440581D01*
X110698926Y-76445797D01*
X110677691Y-76448947D01*
X110656250Y-76450000D01*
X110143750Y-76450000D01*
X110122309Y-76448947D01*
X110101074Y-76445797D01*
X110080250Y-76440581D01*
X110060038Y-76433349D01*
X110040632Y-76424170D01*
X110022219Y-76413134D01*
X110004976Y-76400346D01*
X109989070Y-76385930D01*
X109974654Y-76370024D01*
X109961866Y-76352781D01*
X109950830Y-76334368D01*
X109941651Y-76314962D01*
X109934419Y-76294750D01*
X109929203Y-76273926D01*
X109926053Y-76252691D01*
X109925000Y-76231250D01*
X109925000Y-75793750D01*
X109926053Y-75772309D01*
X109929203Y-75751074D01*
X109934419Y-75730250D01*
X109941651Y-75710038D01*
X109950830Y-75690632D01*
X109961866Y-75672219D01*
X109974654Y-75654976D01*
X109989070Y-75639070D01*
X110004976Y-75624654D01*
X110022219Y-75611866D01*
X110040632Y-75600830D01*
X110060038Y-75591651D01*
X110080250Y-75584419D01*
X110101074Y-75579203D01*
X110122309Y-75576053D01*
X110143750Y-75575000D01*
X110656250Y-75575000D01*
X110677691Y-75576053D01*
X110677691Y-75576053D01*
G37*
D11*
X110400000Y-76012500D03*
D10*
G36*
X154124504Y-68251204D02*
G01*
X154148773Y-68254804D01*
X154172571Y-68260765D01*
X154195671Y-68269030D01*
X154217849Y-68279520D01*
X154238893Y-68292133D01*
X154258598Y-68306747D01*
X154276777Y-68323223D01*
X154293253Y-68341402D01*
X154307867Y-68361107D01*
X154320480Y-68382151D01*
X154330970Y-68404329D01*
X154339235Y-68427429D01*
X154345196Y-68451227D01*
X154348796Y-68475496D01*
X154350000Y-68500000D01*
X154350000Y-72400000D01*
X154348796Y-72424504D01*
X154345196Y-72448773D01*
X154339235Y-72472571D01*
X154330970Y-72495671D01*
X154320480Y-72517849D01*
X154307867Y-72538893D01*
X154293253Y-72558598D01*
X154276777Y-72576777D01*
X154258598Y-72593253D01*
X154238893Y-72607867D01*
X154217849Y-72620480D01*
X154195671Y-72630970D01*
X154172571Y-72639235D01*
X154148773Y-72645196D01*
X154124504Y-72648796D01*
X154100000Y-72650000D01*
X152700000Y-72650000D01*
X152675496Y-72648796D01*
X152651227Y-72645196D01*
X152627429Y-72639235D01*
X152604329Y-72630970D01*
X152582151Y-72620480D01*
X152561107Y-72607867D01*
X152541402Y-72593253D01*
X152523223Y-72576777D01*
X152506747Y-72558598D01*
X152492133Y-72538893D01*
X152479520Y-72517849D01*
X152469030Y-72495671D01*
X152460765Y-72472571D01*
X152454804Y-72448773D01*
X152451204Y-72424504D01*
X152450000Y-72400000D01*
X152450000Y-68500000D01*
X152451204Y-68475496D01*
X152454804Y-68451227D01*
X152460765Y-68427429D01*
X152469030Y-68404329D01*
X152479520Y-68382151D01*
X152492133Y-68361107D01*
X152506747Y-68341402D01*
X152523223Y-68323223D01*
X152541402Y-68306747D01*
X152561107Y-68292133D01*
X152582151Y-68279520D01*
X152604329Y-68269030D01*
X152627429Y-68260765D01*
X152651227Y-68254804D01*
X152675496Y-68251204D01*
X152700000Y-68250000D01*
X154100000Y-68250000D01*
X154124504Y-68251204D01*
X154124504Y-68251204D01*
G37*
D20*
X153400000Y-70450000D03*
D10*
G36*
X154124504Y-59551204D02*
G01*
X154148773Y-59554804D01*
X154172571Y-59560765D01*
X154195671Y-59569030D01*
X154217849Y-59579520D01*
X154238893Y-59592133D01*
X154258598Y-59606747D01*
X154276777Y-59623223D01*
X154293253Y-59641402D01*
X154307867Y-59661107D01*
X154320480Y-59682151D01*
X154330970Y-59704329D01*
X154339235Y-59727429D01*
X154345196Y-59751227D01*
X154348796Y-59775496D01*
X154350000Y-59800000D01*
X154350000Y-63700000D01*
X154348796Y-63724504D01*
X154345196Y-63748773D01*
X154339235Y-63772571D01*
X154330970Y-63795671D01*
X154320480Y-63817849D01*
X154307867Y-63838893D01*
X154293253Y-63858598D01*
X154276777Y-63876777D01*
X154258598Y-63893253D01*
X154238893Y-63907867D01*
X154217849Y-63920480D01*
X154195671Y-63930970D01*
X154172571Y-63939235D01*
X154148773Y-63945196D01*
X154124504Y-63948796D01*
X154100000Y-63950000D01*
X152700000Y-63950000D01*
X152675496Y-63948796D01*
X152651227Y-63945196D01*
X152627429Y-63939235D01*
X152604329Y-63930970D01*
X152582151Y-63920480D01*
X152561107Y-63907867D01*
X152541402Y-63893253D01*
X152523223Y-63876777D01*
X152506747Y-63858598D01*
X152492133Y-63838893D01*
X152479520Y-63817849D01*
X152469030Y-63795671D01*
X152460765Y-63772571D01*
X152454804Y-63748773D01*
X152451204Y-63724504D01*
X152450000Y-63700000D01*
X152450000Y-59800000D01*
X152451204Y-59775496D01*
X152454804Y-59751227D01*
X152460765Y-59727429D01*
X152469030Y-59704329D01*
X152479520Y-59682151D01*
X152492133Y-59661107D01*
X152506747Y-59641402D01*
X152523223Y-59623223D01*
X152541402Y-59606747D01*
X152561107Y-59592133D01*
X152582151Y-59579520D01*
X152604329Y-59569030D01*
X152627429Y-59560765D01*
X152651227Y-59554804D01*
X152675496Y-59551204D01*
X152700000Y-59550000D01*
X154100000Y-59550000D01*
X154124504Y-59551204D01*
X154124504Y-59551204D01*
G37*
D20*
X153400000Y-61750000D03*
D10*
G36*
X149077691Y-57851053D02*
G01*
X149098926Y-57854203D01*
X149119750Y-57859419D01*
X149139962Y-57866651D01*
X149159368Y-57875830D01*
X149177781Y-57886866D01*
X149195024Y-57899654D01*
X149210930Y-57914070D01*
X149225346Y-57929976D01*
X149238134Y-57947219D01*
X149249170Y-57965632D01*
X149258349Y-57985038D01*
X149265581Y-58005250D01*
X149270797Y-58026074D01*
X149273947Y-58047309D01*
X149275000Y-58068750D01*
X149275000Y-58506250D01*
X149273947Y-58527691D01*
X149270797Y-58548926D01*
X149265581Y-58569750D01*
X149258349Y-58589962D01*
X149249170Y-58609368D01*
X149238134Y-58627781D01*
X149225346Y-58645024D01*
X149210930Y-58660930D01*
X149195024Y-58675346D01*
X149177781Y-58688134D01*
X149159368Y-58699170D01*
X149139962Y-58708349D01*
X149119750Y-58715581D01*
X149098926Y-58720797D01*
X149077691Y-58723947D01*
X149056250Y-58725000D01*
X148543750Y-58725000D01*
X148522309Y-58723947D01*
X148501074Y-58720797D01*
X148480250Y-58715581D01*
X148460038Y-58708349D01*
X148440632Y-58699170D01*
X148422219Y-58688134D01*
X148404976Y-58675346D01*
X148389070Y-58660930D01*
X148374654Y-58645024D01*
X148361866Y-58627781D01*
X148350830Y-58609368D01*
X148341651Y-58589962D01*
X148334419Y-58569750D01*
X148329203Y-58548926D01*
X148326053Y-58527691D01*
X148325000Y-58506250D01*
X148325000Y-58068750D01*
X148326053Y-58047309D01*
X148329203Y-58026074D01*
X148334419Y-58005250D01*
X148341651Y-57985038D01*
X148350830Y-57965632D01*
X148361866Y-57947219D01*
X148374654Y-57929976D01*
X148389070Y-57914070D01*
X148404976Y-57899654D01*
X148422219Y-57886866D01*
X148440632Y-57875830D01*
X148460038Y-57866651D01*
X148480250Y-57859419D01*
X148501074Y-57854203D01*
X148522309Y-57851053D01*
X148543750Y-57850000D01*
X149056250Y-57850000D01*
X149077691Y-57851053D01*
X149077691Y-57851053D01*
G37*
D11*
X148800000Y-58287500D03*
D10*
G36*
X149077691Y-56276053D02*
G01*
X149098926Y-56279203D01*
X149119750Y-56284419D01*
X149139962Y-56291651D01*
X149159368Y-56300830D01*
X149177781Y-56311866D01*
X149195024Y-56324654D01*
X149210930Y-56339070D01*
X149225346Y-56354976D01*
X149238134Y-56372219D01*
X149249170Y-56390632D01*
X149258349Y-56410038D01*
X149265581Y-56430250D01*
X149270797Y-56451074D01*
X149273947Y-56472309D01*
X149275000Y-56493750D01*
X149275000Y-56931250D01*
X149273947Y-56952691D01*
X149270797Y-56973926D01*
X149265581Y-56994750D01*
X149258349Y-57014962D01*
X149249170Y-57034368D01*
X149238134Y-57052781D01*
X149225346Y-57070024D01*
X149210930Y-57085930D01*
X149195024Y-57100346D01*
X149177781Y-57113134D01*
X149159368Y-57124170D01*
X149139962Y-57133349D01*
X149119750Y-57140581D01*
X149098926Y-57145797D01*
X149077691Y-57148947D01*
X149056250Y-57150000D01*
X148543750Y-57150000D01*
X148522309Y-57148947D01*
X148501074Y-57145797D01*
X148480250Y-57140581D01*
X148460038Y-57133349D01*
X148440632Y-57124170D01*
X148422219Y-57113134D01*
X148404976Y-57100346D01*
X148389070Y-57085930D01*
X148374654Y-57070024D01*
X148361866Y-57052781D01*
X148350830Y-57034368D01*
X148341651Y-57014962D01*
X148334419Y-56994750D01*
X148329203Y-56973926D01*
X148326053Y-56952691D01*
X148325000Y-56931250D01*
X148325000Y-56493750D01*
X148326053Y-56472309D01*
X148329203Y-56451074D01*
X148334419Y-56430250D01*
X148341651Y-56410038D01*
X148350830Y-56390632D01*
X148361866Y-56372219D01*
X148374654Y-56354976D01*
X148389070Y-56339070D01*
X148404976Y-56324654D01*
X148422219Y-56311866D01*
X148440632Y-56300830D01*
X148460038Y-56291651D01*
X148480250Y-56284419D01*
X148501074Y-56279203D01*
X148522309Y-56276053D01*
X148543750Y-56275000D01*
X149056250Y-56275000D01*
X149077691Y-56276053D01*
X149077691Y-56276053D01*
G37*
D11*
X148800000Y-56712500D03*
D10*
G36*
X150677691Y-57851053D02*
G01*
X150698926Y-57854203D01*
X150719750Y-57859419D01*
X150739962Y-57866651D01*
X150759368Y-57875830D01*
X150777781Y-57886866D01*
X150795024Y-57899654D01*
X150810930Y-57914070D01*
X150825346Y-57929976D01*
X150838134Y-57947219D01*
X150849170Y-57965632D01*
X150858349Y-57985038D01*
X150865581Y-58005250D01*
X150870797Y-58026074D01*
X150873947Y-58047309D01*
X150875000Y-58068750D01*
X150875000Y-58506250D01*
X150873947Y-58527691D01*
X150870797Y-58548926D01*
X150865581Y-58569750D01*
X150858349Y-58589962D01*
X150849170Y-58609368D01*
X150838134Y-58627781D01*
X150825346Y-58645024D01*
X150810930Y-58660930D01*
X150795024Y-58675346D01*
X150777781Y-58688134D01*
X150759368Y-58699170D01*
X150739962Y-58708349D01*
X150719750Y-58715581D01*
X150698926Y-58720797D01*
X150677691Y-58723947D01*
X150656250Y-58725000D01*
X150143750Y-58725000D01*
X150122309Y-58723947D01*
X150101074Y-58720797D01*
X150080250Y-58715581D01*
X150060038Y-58708349D01*
X150040632Y-58699170D01*
X150022219Y-58688134D01*
X150004976Y-58675346D01*
X149989070Y-58660930D01*
X149974654Y-58645024D01*
X149961866Y-58627781D01*
X149950830Y-58609368D01*
X149941651Y-58589962D01*
X149934419Y-58569750D01*
X149929203Y-58548926D01*
X149926053Y-58527691D01*
X149925000Y-58506250D01*
X149925000Y-58068750D01*
X149926053Y-58047309D01*
X149929203Y-58026074D01*
X149934419Y-58005250D01*
X149941651Y-57985038D01*
X149950830Y-57965632D01*
X149961866Y-57947219D01*
X149974654Y-57929976D01*
X149989070Y-57914070D01*
X150004976Y-57899654D01*
X150022219Y-57886866D01*
X150040632Y-57875830D01*
X150060038Y-57866651D01*
X150080250Y-57859419D01*
X150101074Y-57854203D01*
X150122309Y-57851053D01*
X150143750Y-57850000D01*
X150656250Y-57850000D01*
X150677691Y-57851053D01*
X150677691Y-57851053D01*
G37*
D11*
X150400000Y-58287500D03*
D10*
G36*
X150677691Y-56276053D02*
G01*
X150698926Y-56279203D01*
X150719750Y-56284419D01*
X150739962Y-56291651D01*
X150759368Y-56300830D01*
X150777781Y-56311866D01*
X150795024Y-56324654D01*
X150810930Y-56339070D01*
X150825346Y-56354976D01*
X150838134Y-56372219D01*
X150849170Y-56390632D01*
X150858349Y-56410038D01*
X150865581Y-56430250D01*
X150870797Y-56451074D01*
X150873947Y-56472309D01*
X150875000Y-56493750D01*
X150875000Y-56931250D01*
X150873947Y-56952691D01*
X150870797Y-56973926D01*
X150865581Y-56994750D01*
X150858349Y-57014962D01*
X150849170Y-57034368D01*
X150838134Y-57052781D01*
X150825346Y-57070024D01*
X150810930Y-57085930D01*
X150795024Y-57100346D01*
X150777781Y-57113134D01*
X150759368Y-57124170D01*
X150739962Y-57133349D01*
X150719750Y-57140581D01*
X150698926Y-57145797D01*
X150677691Y-57148947D01*
X150656250Y-57150000D01*
X150143750Y-57150000D01*
X150122309Y-57148947D01*
X150101074Y-57145797D01*
X150080250Y-57140581D01*
X150060038Y-57133349D01*
X150040632Y-57124170D01*
X150022219Y-57113134D01*
X150004976Y-57100346D01*
X149989070Y-57085930D01*
X149974654Y-57070024D01*
X149961866Y-57052781D01*
X149950830Y-57034368D01*
X149941651Y-57014962D01*
X149934419Y-56994750D01*
X149929203Y-56973926D01*
X149926053Y-56952691D01*
X149925000Y-56931250D01*
X149925000Y-56493750D01*
X149926053Y-56472309D01*
X149929203Y-56451074D01*
X149934419Y-56430250D01*
X149941651Y-56410038D01*
X149950830Y-56390632D01*
X149961866Y-56372219D01*
X149974654Y-56354976D01*
X149989070Y-56339070D01*
X150004976Y-56324654D01*
X150022219Y-56311866D01*
X150040632Y-56300830D01*
X150060038Y-56291651D01*
X150080250Y-56284419D01*
X150101074Y-56279203D01*
X150122309Y-56276053D01*
X150143750Y-56275000D01*
X150656250Y-56275000D01*
X150677691Y-56276053D01*
X150677691Y-56276053D01*
G37*
D11*
X150400000Y-56712500D03*
D10*
G36*
X131052691Y-58926053D02*
G01*
X131073926Y-58929203D01*
X131094750Y-58934419D01*
X131114962Y-58941651D01*
X131134368Y-58950830D01*
X131152781Y-58961866D01*
X131170024Y-58974654D01*
X131185930Y-58989070D01*
X131200346Y-59004976D01*
X131213134Y-59022219D01*
X131224170Y-59040632D01*
X131233349Y-59060038D01*
X131240581Y-59080250D01*
X131245797Y-59101074D01*
X131248947Y-59122309D01*
X131250000Y-59143750D01*
X131250000Y-59656250D01*
X131248947Y-59677691D01*
X131245797Y-59698926D01*
X131240581Y-59719750D01*
X131233349Y-59739962D01*
X131224170Y-59759368D01*
X131213134Y-59777781D01*
X131200346Y-59795024D01*
X131185930Y-59810930D01*
X131170024Y-59825346D01*
X131152781Y-59838134D01*
X131134368Y-59849170D01*
X131114962Y-59858349D01*
X131094750Y-59865581D01*
X131073926Y-59870797D01*
X131052691Y-59873947D01*
X131031250Y-59875000D01*
X130593750Y-59875000D01*
X130572309Y-59873947D01*
X130551074Y-59870797D01*
X130530250Y-59865581D01*
X130510038Y-59858349D01*
X130490632Y-59849170D01*
X130472219Y-59838134D01*
X130454976Y-59825346D01*
X130439070Y-59810930D01*
X130424654Y-59795024D01*
X130411866Y-59777781D01*
X130400830Y-59759368D01*
X130391651Y-59739962D01*
X130384419Y-59719750D01*
X130379203Y-59698926D01*
X130376053Y-59677691D01*
X130375000Y-59656250D01*
X130375000Y-59143750D01*
X130376053Y-59122309D01*
X130379203Y-59101074D01*
X130384419Y-59080250D01*
X130391651Y-59060038D01*
X130400830Y-59040632D01*
X130411866Y-59022219D01*
X130424654Y-59004976D01*
X130439070Y-58989070D01*
X130454976Y-58974654D01*
X130472219Y-58961866D01*
X130490632Y-58950830D01*
X130510038Y-58941651D01*
X130530250Y-58934419D01*
X130551074Y-58929203D01*
X130572309Y-58926053D01*
X130593750Y-58925000D01*
X131031250Y-58925000D01*
X131052691Y-58926053D01*
X131052691Y-58926053D01*
G37*
D11*
X130812500Y-59400000D03*
D10*
G36*
X132627691Y-58926053D02*
G01*
X132648926Y-58929203D01*
X132669750Y-58934419D01*
X132689962Y-58941651D01*
X132709368Y-58950830D01*
X132727781Y-58961866D01*
X132745024Y-58974654D01*
X132760930Y-58989070D01*
X132775346Y-59004976D01*
X132788134Y-59022219D01*
X132799170Y-59040632D01*
X132808349Y-59060038D01*
X132815581Y-59080250D01*
X132820797Y-59101074D01*
X132823947Y-59122309D01*
X132825000Y-59143750D01*
X132825000Y-59656250D01*
X132823947Y-59677691D01*
X132820797Y-59698926D01*
X132815581Y-59719750D01*
X132808349Y-59739962D01*
X132799170Y-59759368D01*
X132788134Y-59777781D01*
X132775346Y-59795024D01*
X132760930Y-59810930D01*
X132745024Y-59825346D01*
X132727781Y-59838134D01*
X132709368Y-59849170D01*
X132689962Y-59858349D01*
X132669750Y-59865581D01*
X132648926Y-59870797D01*
X132627691Y-59873947D01*
X132606250Y-59875000D01*
X132168750Y-59875000D01*
X132147309Y-59873947D01*
X132126074Y-59870797D01*
X132105250Y-59865581D01*
X132085038Y-59858349D01*
X132065632Y-59849170D01*
X132047219Y-59838134D01*
X132029976Y-59825346D01*
X132014070Y-59810930D01*
X131999654Y-59795024D01*
X131986866Y-59777781D01*
X131975830Y-59759368D01*
X131966651Y-59739962D01*
X131959419Y-59719750D01*
X131954203Y-59698926D01*
X131951053Y-59677691D01*
X131950000Y-59656250D01*
X131950000Y-59143750D01*
X131951053Y-59122309D01*
X131954203Y-59101074D01*
X131959419Y-59080250D01*
X131966651Y-59060038D01*
X131975830Y-59040632D01*
X131986866Y-59022219D01*
X131999654Y-59004976D01*
X132014070Y-58989070D01*
X132029976Y-58974654D01*
X132047219Y-58961866D01*
X132065632Y-58950830D01*
X132085038Y-58941651D01*
X132105250Y-58934419D01*
X132126074Y-58929203D01*
X132147309Y-58926053D01*
X132168750Y-58925000D01*
X132606250Y-58925000D01*
X132627691Y-58926053D01*
X132627691Y-58926053D01*
G37*
D11*
X132387500Y-59400000D03*
D10*
G36*
X138027691Y-62026053D02*
G01*
X138048926Y-62029203D01*
X138069750Y-62034419D01*
X138089962Y-62041651D01*
X138109368Y-62050830D01*
X138127781Y-62061866D01*
X138145024Y-62074654D01*
X138160930Y-62089070D01*
X138175346Y-62104976D01*
X138188134Y-62122219D01*
X138199170Y-62140632D01*
X138208349Y-62160038D01*
X138215581Y-62180250D01*
X138220797Y-62201074D01*
X138223947Y-62222309D01*
X138225000Y-62243750D01*
X138225000Y-62756250D01*
X138223947Y-62777691D01*
X138220797Y-62798926D01*
X138215581Y-62819750D01*
X138208349Y-62839962D01*
X138199170Y-62859368D01*
X138188134Y-62877781D01*
X138175346Y-62895024D01*
X138160930Y-62910930D01*
X138145024Y-62925346D01*
X138127781Y-62938134D01*
X138109368Y-62949170D01*
X138089962Y-62958349D01*
X138069750Y-62965581D01*
X138048926Y-62970797D01*
X138027691Y-62973947D01*
X138006250Y-62975000D01*
X137568750Y-62975000D01*
X137547309Y-62973947D01*
X137526074Y-62970797D01*
X137505250Y-62965581D01*
X137485038Y-62958349D01*
X137465632Y-62949170D01*
X137447219Y-62938134D01*
X137429976Y-62925346D01*
X137414070Y-62910930D01*
X137399654Y-62895024D01*
X137386866Y-62877781D01*
X137375830Y-62859368D01*
X137366651Y-62839962D01*
X137359419Y-62819750D01*
X137354203Y-62798926D01*
X137351053Y-62777691D01*
X137350000Y-62756250D01*
X137350000Y-62243750D01*
X137351053Y-62222309D01*
X137354203Y-62201074D01*
X137359419Y-62180250D01*
X137366651Y-62160038D01*
X137375830Y-62140632D01*
X137386866Y-62122219D01*
X137399654Y-62104976D01*
X137414070Y-62089070D01*
X137429976Y-62074654D01*
X137447219Y-62061866D01*
X137465632Y-62050830D01*
X137485038Y-62041651D01*
X137505250Y-62034419D01*
X137526074Y-62029203D01*
X137547309Y-62026053D01*
X137568750Y-62025000D01*
X138006250Y-62025000D01*
X138027691Y-62026053D01*
X138027691Y-62026053D01*
G37*
D11*
X137787500Y-62500000D03*
D10*
G36*
X136452691Y-62026053D02*
G01*
X136473926Y-62029203D01*
X136494750Y-62034419D01*
X136514962Y-62041651D01*
X136534368Y-62050830D01*
X136552781Y-62061866D01*
X136570024Y-62074654D01*
X136585930Y-62089070D01*
X136600346Y-62104976D01*
X136613134Y-62122219D01*
X136624170Y-62140632D01*
X136633349Y-62160038D01*
X136640581Y-62180250D01*
X136645797Y-62201074D01*
X136648947Y-62222309D01*
X136650000Y-62243750D01*
X136650000Y-62756250D01*
X136648947Y-62777691D01*
X136645797Y-62798926D01*
X136640581Y-62819750D01*
X136633349Y-62839962D01*
X136624170Y-62859368D01*
X136613134Y-62877781D01*
X136600346Y-62895024D01*
X136585930Y-62910930D01*
X136570024Y-62925346D01*
X136552781Y-62938134D01*
X136534368Y-62949170D01*
X136514962Y-62958349D01*
X136494750Y-62965581D01*
X136473926Y-62970797D01*
X136452691Y-62973947D01*
X136431250Y-62975000D01*
X135993750Y-62975000D01*
X135972309Y-62973947D01*
X135951074Y-62970797D01*
X135930250Y-62965581D01*
X135910038Y-62958349D01*
X135890632Y-62949170D01*
X135872219Y-62938134D01*
X135854976Y-62925346D01*
X135839070Y-62910930D01*
X135824654Y-62895024D01*
X135811866Y-62877781D01*
X135800830Y-62859368D01*
X135791651Y-62839962D01*
X135784419Y-62819750D01*
X135779203Y-62798926D01*
X135776053Y-62777691D01*
X135775000Y-62756250D01*
X135775000Y-62243750D01*
X135776053Y-62222309D01*
X135779203Y-62201074D01*
X135784419Y-62180250D01*
X135791651Y-62160038D01*
X135800830Y-62140632D01*
X135811866Y-62122219D01*
X135824654Y-62104976D01*
X135839070Y-62089070D01*
X135854976Y-62074654D01*
X135872219Y-62061866D01*
X135890632Y-62050830D01*
X135910038Y-62041651D01*
X135930250Y-62034419D01*
X135951074Y-62029203D01*
X135972309Y-62026053D01*
X135993750Y-62025000D01*
X136431250Y-62025000D01*
X136452691Y-62026053D01*
X136452691Y-62026053D01*
G37*
D11*
X136212500Y-62500000D03*
D10*
G36*
X125652691Y-71226053D02*
G01*
X125673926Y-71229203D01*
X125694750Y-71234419D01*
X125714962Y-71241651D01*
X125734368Y-71250830D01*
X125752781Y-71261866D01*
X125770024Y-71274654D01*
X125785930Y-71289070D01*
X125800346Y-71304976D01*
X125813134Y-71322219D01*
X125824170Y-71340632D01*
X125833349Y-71360038D01*
X125840581Y-71380250D01*
X125845797Y-71401074D01*
X125848947Y-71422309D01*
X125850000Y-71443750D01*
X125850000Y-71956250D01*
X125848947Y-71977691D01*
X125845797Y-71998926D01*
X125840581Y-72019750D01*
X125833349Y-72039962D01*
X125824170Y-72059368D01*
X125813134Y-72077781D01*
X125800346Y-72095024D01*
X125785930Y-72110930D01*
X125770024Y-72125346D01*
X125752781Y-72138134D01*
X125734368Y-72149170D01*
X125714962Y-72158349D01*
X125694750Y-72165581D01*
X125673926Y-72170797D01*
X125652691Y-72173947D01*
X125631250Y-72175000D01*
X125193750Y-72175000D01*
X125172309Y-72173947D01*
X125151074Y-72170797D01*
X125130250Y-72165581D01*
X125110038Y-72158349D01*
X125090632Y-72149170D01*
X125072219Y-72138134D01*
X125054976Y-72125346D01*
X125039070Y-72110930D01*
X125024654Y-72095024D01*
X125011866Y-72077781D01*
X125000830Y-72059368D01*
X124991651Y-72039962D01*
X124984419Y-72019750D01*
X124979203Y-71998926D01*
X124976053Y-71977691D01*
X124975000Y-71956250D01*
X124975000Y-71443750D01*
X124976053Y-71422309D01*
X124979203Y-71401074D01*
X124984419Y-71380250D01*
X124991651Y-71360038D01*
X125000830Y-71340632D01*
X125011866Y-71322219D01*
X125024654Y-71304976D01*
X125039070Y-71289070D01*
X125054976Y-71274654D01*
X125072219Y-71261866D01*
X125090632Y-71250830D01*
X125110038Y-71241651D01*
X125130250Y-71234419D01*
X125151074Y-71229203D01*
X125172309Y-71226053D01*
X125193750Y-71225000D01*
X125631250Y-71225000D01*
X125652691Y-71226053D01*
X125652691Y-71226053D01*
G37*
D11*
X125412500Y-71700000D03*
D10*
G36*
X127227691Y-71226053D02*
G01*
X127248926Y-71229203D01*
X127269750Y-71234419D01*
X127289962Y-71241651D01*
X127309368Y-71250830D01*
X127327781Y-71261866D01*
X127345024Y-71274654D01*
X127360930Y-71289070D01*
X127375346Y-71304976D01*
X127388134Y-71322219D01*
X127399170Y-71340632D01*
X127408349Y-71360038D01*
X127415581Y-71380250D01*
X127420797Y-71401074D01*
X127423947Y-71422309D01*
X127425000Y-71443750D01*
X127425000Y-71956250D01*
X127423947Y-71977691D01*
X127420797Y-71998926D01*
X127415581Y-72019750D01*
X127408349Y-72039962D01*
X127399170Y-72059368D01*
X127388134Y-72077781D01*
X127375346Y-72095024D01*
X127360930Y-72110930D01*
X127345024Y-72125346D01*
X127327781Y-72138134D01*
X127309368Y-72149170D01*
X127289962Y-72158349D01*
X127269750Y-72165581D01*
X127248926Y-72170797D01*
X127227691Y-72173947D01*
X127206250Y-72175000D01*
X126768750Y-72175000D01*
X126747309Y-72173947D01*
X126726074Y-72170797D01*
X126705250Y-72165581D01*
X126685038Y-72158349D01*
X126665632Y-72149170D01*
X126647219Y-72138134D01*
X126629976Y-72125346D01*
X126614070Y-72110930D01*
X126599654Y-72095024D01*
X126586866Y-72077781D01*
X126575830Y-72059368D01*
X126566651Y-72039962D01*
X126559419Y-72019750D01*
X126554203Y-71998926D01*
X126551053Y-71977691D01*
X126550000Y-71956250D01*
X126550000Y-71443750D01*
X126551053Y-71422309D01*
X126554203Y-71401074D01*
X126559419Y-71380250D01*
X126566651Y-71360038D01*
X126575830Y-71340632D01*
X126586866Y-71322219D01*
X126599654Y-71304976D01*
X126614070Y-71289070D01*
X126629976Y-71274654D01*
X126647219Y-71261866D01*
X126665632Y-71250830D01*
X126685038Y-71241651D01*
X126705250Y-71234419D01*
X126726074Y-71229203D01*
X126747309Y-71226053D01*
X126768750Y-71225000D01*
X127206250Y-71225000D01*
X127227691Y-71226053D01*
X127227691Y-71226053D01*
G37*
D11*
X126987500Y-71700000D03*
D21*
X98860000Y-74560000D03*
X98860000Y-58760000D03*
M02*
